<svg width="33" height="30" viewBox="0 0 33 30" fill="none" xmlns="http://www.w3.org/2000/svg">
<path d="M32.5253 16.314C32.5772 17.6938 32.1351 19.0401 31.2959 20.0577C30.4567 21.0752 29.289 21.6809 28.049 21.7418C27.9764 21.7455 27.9041 21.7474 27.8318 21.7474C27.5023 21.7471 27.1738 21.7074 26.852 21.629C25.897 23.2695 24.6448 24.6702 23.1754 25.7414C21.706 26.8127 20.0519 27.5309 18.3188 27.8502C18.1138 28.5202 17.7048 29.0895 17.1626 29.4597C16.6203 29.8298 15.9789 29.9775 15.3491 29.8773C14.7194 29.7771 14.1409 29.4352 13.7137 28.9108C13.2865 28.3864 13.0374 27.7123 13.0094 27.0052C12.9815 26.2981 13.1765 25.6024 13.5607 25.0383C13.9449 24.4742 14.4942 24.0772 15.1136 23.9158C15.733 23.7545 16.3836 23.8391 16.953 24.1548C17.5223 24.4706 17.9746 24.9978 18.2316 25.6452C20.6716 25.1431 22.8759 23.7043 24.4603 21.5796C26.0447 19.4549 26.9088 16.779 26.9018 14.0182C26.9018 7.49599 22.1326 2.18978 16.2703 2.18978C10.4081 2.18978 5.63882 7.49599 5.63882 14.0182C5.6385 16.035 6.10177 18.0184 6.9846 19.7799C7.01452 19.838 7.03698 19.9005 7.05132 19.9655C7.13659 20.2292 7.12748 20.5193 7.02586 20.7757C6.92425 21.0322 6.73791 21.2353 6.50541 21.3431C5.93611 21.6097 5.32467 21.747 4.70701 21.7469C4.63432 21.7469 4.56147 21.745 4.48847 21.7412C3.24896 21.6796 2.08201 21.0736 1.24348 20.0561C0.404959 19.0386 -0.036693 17.6927 0.0153671 16.3135C0.0362955 15.7635 0.0246176 15.2728 0.0132021 14.7982C0.00257384 14.3515 -0.0085136 13.8894 0.00972497 13.4073C0.064157 12.0606 0.584826 10.7896 1.46268 9.86048C2.34053 8.93135 3.50747 8.41617 4.71908 8.42285C6.6647 3.47015 11.1097 0 16.2703 0C21.4309 0 25.876 3.47015 27.8216 8.42292C29.0334 8.41523 30.2007 8.92997 31.0787 9.85912C31.9567 10.7883 32.4772 12.0596 32.5309 13.4065C32.5492 13.8893 32.5381 14.3513 32.5274 14.7981C32.5161 15.2727 32.5044 15.7636 32.5253 16.314ZM24.5239 14.0182C24.5235 15.4251 24.2326 16.813 23.6737 18.0749C23.1148 19.3369 22.3029 20.4392 21.3006 21.2968C20.2983 22.1544 19.1323 22.7445 17.8926 23.0214C16.6529 23.2984 15.3725 23.2548 14.1503 22.8942L10.8096 25.0407C10.641 25.149 10.4474 25.1992 10.2531 25.1851C10.0589 25.1709 9.8728 25.093 9.71837 24.9612C9.56394 24.8293 9.44812 24.6495 9.38556 24.4444C9.323 24.2393 9.3165 24.0182 9.3669 23.809L10.2207 20.2654C8.80676 18.565 8.02002 16.3347 8.01705 14.0182C8.01705 8.95343 11.7193 4.83328 16.2703 4.83328C20.8214 4.83328 24.5239 8.95343 24.5239 14.0182ZM13.9757 14.0182C13.9757 13.7279 13.8721 13.4494 13.6875 13.244C13.503 13.0387 13.2526 12.9234 12.9916 12.9234H12.99C12.7955 12.9238 12.6054 12.9883 12.4438 13.1089C12.2822 13.2294 12.1563 13.4006 12.0821 13.6007C12.0079 13.8008 11.9887 14.0208 12.0269 14.2331C12.0651 14.4454 12.1589 14.6403 12.2966 14.7932C12.4343 14.9461 12.6097 15.0502 12.8005 15.0922C12.9914 15.1343 13.1892 15.1125 13.3689 15.0296C13.5486 14.9467 13.7022 14.8063 13.8102 14.6263C13.9183 14.4463 13.9759 14.2347 13.9759 14.0182H13.9757ZM17.2546 14.0182C17.2545 13.9824 17.2528 13.9466 17.2494 13.9109C17.2463 13.8752 17.2415 13.8396 17.235 13.8044C17.2291 13.7693 17.2212 13.7347 17.2113 13.7007C17.2022 13.6664 17.191 13.6328 17.1792 13.5993C17.1674 13.5657 17.153 13.5343 17.1379 13.5029C17.1229 13.4714 17.1065 13.4407 17.0887 13.4109C17.0708 13.3809 17.0515 13.3519 17.0309 13.3241C17.0107 13.2962 16.989 13.2696 16.966 13.2445C16.9437 13.219 16.9194 13.1949 16.8945 13.1715C16.8695 13.1496 16.8433 13.1277 16.8164 13.108C16.7897 13.0882 16.7621 13.07 16.7338 13.0533C16.7055 13.0365 16.676 13.0212 16.6465 13.0073C16.6169 12.9935 16.5867 12.9816 16.556 12.9715C16.4946 12.9496 16.4312 12.9354 16.367 12.9292C16.2706 12.9189 16.1734 12.924 16.0784 12.9445C16.0467 12.9517 16.0154 12.9607 15.9846 12.9715C15.9539 12.9816 15.9236 12.9935 15.8941 13.0073C15.8646 13.0212 15.835 13.0365 15.8068 13.0533C15.7786 13.0701 15.7511 13.0883 15.7241 13.108C15.6971 13.1277 15.6709 13.1496 15.6467 13.1715C15.6212 13.1949 15.5975 13.219 15.5746 13.2445C15.5515 13.2696 15.5298 13.2962 15.5096 13.3241C15.4892 13.3519 15.4702 13.3809 15.4525 13.4109C15.4345 13.4406 15.4179 13.4713 15.4027 13.5029C15.3875 13.5342 15.3739 13.5664 15.3619 13.5993C15.3495 13.6325 15.3385 13.6663 15.3291 13.7007C15.32 13.7343 15.3121 13.7693 15.3056 13.8044C15.2991 13.8396 15.2943 13.8752 15.2911 13.9109C15.2879 13.9467 15.2865 13.9825 15.2865 14.0182C15.2865 14.054 15.2879 14.0905 15.2911 14.1263C15.2943 14.1618 15.2992 14.1971 15.3056 14.2321C15.3121 14.2672 15.32 14.3022 15.3291 14.3365C15.3385 14.3707 15.3495 14.4043 15.3619 14.4372C15.3739 14.4704 15.3875 14.5028 15.4027 14.5343C15.4177 14.5657 15.4348 14.5963 15.4525 14.6263C15.4702 14.6561 15.4892 14.6848 15.5096 14.7124C15.53 14.7404 15.5517 14.7672 15.5746 14.7927C15.5975 14.8175 15.6212 14.8423 15.6467 14.865C15.6714 14.8878 15.6972 14.909 15.7241 14.9285C15.7511 14.9482 15.7785 14.9672 15.8068 14.9839C15.8638 15.017 15.9233 15.0443 15.9846 15.0657C16.0154 15.0759 16.0469 15.0847 16.0784 15.092C16.1416 15.1064 16.206 15.1135 16.2706 15.1131C16.5313 15.1124 16.7812 14.9972 16.966 14.7927C17.0114 14.7415 17.0524 14.6858 17.0887 14.6263C17.1064 14.5963 17.1228 14.5657 17.1379 14.5343C17.153 14.5029 17.1668 14.4701 17.1792 14.4372C17.1917 14.4044 17.2022 14.3701 17.2113 14.3365C17.2211 14.3023 17.229 14.2674 17.235 14.2321C17.2414 14.1971 17.2462 14.1618 17.2494 14.1263C17.2527 14.0903 17.2544 14.0542 17.2544 14.0181L17.2546 14.0182ZM20.5349 14.0182C20.5349 13.7279 20.4313 13.4494 20.2467 13.244C20.0621 13.0387 19.8118 12.9234 19.5508 12.9234H19.5489C19.3544 12.9238 19.1643 12.9883 19.0027 13.1089C18.8411 13.2295 18.7153 13.4006 18.6411 13.6007C18.5669 13.8008 18.5477 14.0209 18.5859 14.2331C18.6241 14.4454 18.718 14.6403 18.8557 14.7932C18.9934 14.9461 19.1687 15.0502 19.3596 15.0923C19.5504 15.1343 19.7482 15.1125 19.9279 15.0296C20.1076 14.9467 20.2612 14.8063 20.3692 14.6263C20.4773 14.4463 20.5349 14.2347 20.5349 14.0182Z" fill="white"/>
</svg>
