<svg width="33" height="22" viewBox="0 0 33 22" fill="none" xmlns="http://www.w3.org/2000/svg">
<g clip-path="url(#clip0_552_2788)">
<path fill-rule="evenodd" clip-rule="evenodd" d="M2.30457 17.4696H19.655C18.5916 13.1293 21.9376 8.91591 26.5285 8.91591C27.2152 8.91591 27.8788 9.01225 28.5066 9.19131V3.85722L16.4025 8.68329C15.0084 9.23908 13.6309 9.23908 12.237 8.68329L0.132812 3.85715V15.3406C0.132812 16.5114 1.11013 17.4696 2.30457 17.4696ZM26.5285 9.69698C29.9926 9.69698 32.8009 12.4498 32.8009 15.8457C32.8009 19.2415 29.9926 21.9943 26.5285 21.9943C23.0644 21.9943 20.2561 19.2415 20.2561 15.8457C20.2561 12.4498 23.0644 9.69698 26.5285 9.69698ZM28.5066 3.01399L16.1023 7.95976C14.9004 8.43894 13.739 8.43894 12.5372 7.95976L0.132812 3.01399V2.00987C0.132812 0.960571 1.00861 0.102051 2.07902 0.102051H26.5603C27.6307 0.102051 28.5065 0.960571 28.5065 2.00987L28.5066 3.01399ZM28.9427 13.1803C29.1628 13.1803 29.3411 13.3552 29.3411 13.5709C29.3411 13.7866 29.1628 13.9614 28.9427 13.9614H25.8532C25.6331 13.9614 25.4548 13.7866 25.4548 13.5709C25.4548 13.3552 25.6331 13.1803 25.8532 13.1803H28.9427ZM24.1168 17.7299C23.8934 17.7299 23.7159 17.9045 23.7159 18.1204C23.7159 18.3364 23.8942 18.511 24.1143 18.511C24.3376 18.511 24.5152 18.3364 24.5152 18.1204C24.5152 17.9045 24.3368 17.7299 24.1168 17.7299ZM28.9427 17.7299H25.8532C25.6331 17.7299 25.4548 17.9047 25.4548 18.1204C25.4548 18.3361 25.6331 18.511 25.8532 18.511H28.9427C29.1628 18.511 29.3411 18.3361 29.3411 18.1204C29.3411 17.9047 29.1628 17.7299 28.9427 17.7299ZM24.1168 15.4551C24.3368 15.4551 24.5152 15.6299 24.5152 15.8457C24.5152 16.0614 24.3376 16.2362 24.1143 16.2362C23.8942 16.2362 23.7159 16.0614 23.7159 15.8457C23.7159 15.6299 23.8934 15.4551 24.1168 15.4551ZM28.9427 15.4551C29.1628 15.4551 29.3411 15.6299 29.3411 15.8457C29.3411 16.0614 29.1628 16.2362 28.9427 16.2362H25.8532C25.6331 16.2362 25.4548 16.0614 25.4548 15.8457C25.4548 15.6299 25.6331 15.4551 25.8532 15.4551H28.9427ZM24.1168 13.1803C24.3368 13.1803 24.5152 13.3552 24.5152 13.5709C24.5152 13.7866 24.3376 13.9614 24.1143 13.9614C23.8942 13.9614 23.7159 13.7866 23.7159 13.5709C23.7159 13.3552 23.8934 13.1803 24.1168 13.1803Z" fill="white"/>
</g>
<defs>
<clipPath id="clip0_552_2788">
<rect width="33" height="22" fill="white"/>
</clipPath>
</defs>
</svg>
