<svg width="22" height="30" viewBox="0 0 22 30" fill="none" xmlns="http://www.w3.org/2000/svg">
<path d="M10.5469 0C4.73098 0 0 4.73098 0 10.5469C0 12.5115 0.54416 14.429 1.5733 16.0924L9.94611 29.5842C10.2933 30.1448 11.1118 30.1363 11.4482 29.5721L19.6072 15.9499C20.5788 14.3217 21.0938 12.4532 21.0938 10.5469C21.0938 4.73098 16.3628 0 10.5469 0ZM10.5469 15.832C7.59697 15.832 5.26172 13.4309 5.26172 10.5469C5.26172 7.63893 7.63893 5.26172 10.5469 5.26172C13.4548 5.26172 15.832 7.63893 15.832 10.5469C15.832 13.4055 13.5282 15.832 10.5469 15.832Z" fill="white"/>
</svg>
