<svg width="52" height="45" viewBox="0 0 52 45" fill="none" xmlns="http://www.w3.org/2000/svg">
<g clip-path="url(#clip0_619_822)">
<path d="M36.0758 15.0203C36.0758 16.756 35.1963 18.258 33.8871 18.757C33.7916 18.7937 33.6941 18.8101 33.5987 18.8101C33.2706 18.8101 32.9619 18.6091 32.838 18.2835C32.6785 17.8621 32.8898 17.3897 33.3092 17.2295C33.8759 17.0131 34.4487 16.1846 34.4487 15.0203C34.4487 13.856 33.8739 13.0254 33.3072 12.807C32.8877 12.6458 32.6785 12.1733 32.839 11.7519C32.9995 11.3305 33.4697 11.1193 33.8891 11.2815C35.1973 11.7846 36.0758 13.2866 36.0758 15.0203ZM18.7025 17.2305C18.1358 17.0131 17.562 16.1846 17.562 15.0203C17.562 13.857 18.1368 13.0264 18.7045 12.807C19.124 12.6448 19.3332 12.1723 19.1717 11.7509C19.0102 11.3295 18.54 11.1193 18.1205 11.2815C16.8134 11.7866 15.9349 13.2886 15.9349 15.0203C15.9349 16.754 16.8145 18.256 18.1226 18.757C18.218 18.7937 18.3155 18.8111 18.412 18.8111C18.7401 18.8111 19.0488 18.6111 19.1717 18.2846C19.3322 17.8631 19.122 17.3907 18.7025 17.2305ZM40.0763 19.7652C40.1921 20.1846 40.25 20.6182 40.25 21.0601C40.25 23.7009 38.1416 25.855 35.5263 25.9182C35.5771 26.3203 35.6035 26.7305 35.6035 27.1458C35.6035 30.6693 34.1695 32.2784 32.6511 33.9825C32.4236 34.2386 32.188 34.5029 31.9564 34.7744C31.4882 35.3274 31.1693 35.9152 30.9905 36.557C31.994 36.8703 32.7242 37.8111 32.7242 38.9213C32.7242 40.0948 31.9087 41.0795 30.8179 41.3335V42.3948C30.8179 43.8437 29.6428 45.0223 28.1996 45.0223H23.8091C22.3669 45.0223 21.1938 43.8437 21.1938 42.3948V41.3335C20.103 41.0784 19.2875 40.0937 19.2875 38.9213C19.2875 37.8131 20.0167 36.8723 21.0191 36.558C20.8404 35.9152 20.5215 35.3264 20.0523 34.7754C19.8197 34.5009 19.5841 34.2366 19.3555 33.9795C17.8402 32.2764 16.4082 30.6672 16.4082 27.1458C16.4082 26.7295 16.4346 26.3203 16.4854 25.9182C13.8702 25.857 11.7617 23.7019 11.7617 21.0601C11.7617 20.6193 11.8196 20.1866 11.9354 19.7662C10.5684 18.8672 9.69188 17.0642 9.69188 15.0203C9.69188 12.9784 10.5673 11.1744 11.9344 10.2733C11.8196 9.85497 11.7617 9.42232 11.7617 8.98048C11.7617 6.29987 13.9321 4.11926 16.6002 4.11926C16.7789 4.11926 16.9556 4.12844 17.1313 4.14783C17.1537 1.85803 19.0143 0.00292969 21.2984 0.00292969C23.5958 0.00292969 25.4655 1.8815 25.4655 4.18966V17.5213C25.6443 17.5111 25.8241 17.506 26.0048 17.506C26.1846 17.506 26.3644 17.5111 26.5421 17.5213V4.19068C26.5421 1.88252 28.4129 0.00394992 30.7123 0.00394992C32.9964 0.00394992 34.856 1.85905 34.8794 4.14783C35.0541 4.12946 35.2298 4.11926 35.4075 4.11926C38.0766 4.11926 40.248 6.29987 40.248 8.98048C40.248 9.42334 40.1901 9.85599 40.0743 10.2733C41.4403 11.1744 42.3148 12.9774 42.3148 15.0193C42.3178 17.0642 41.4423 18.8662 40.0763 19.7652ZM16.8439 24.2764C17.8514 21.0366 20.5184 18.5264 23.8405 17.7539V4.19068C23.8405 2.78354 22.701 1.63762 21.2995 1.63762C19.8979 1.63762 18.7584 2.78252 18.7584 4.19068C18.7584 4.45701 18.797 4.71211 18.8721 4.94783C19.1169 5.74068 19.7455 6.37946 20.5337 6.6264C20.9623 6.76109 21.202 7.21926 21.0679 7.64987C20.9592 7.99987 20.6383 8.22334 20.292 8.22334C20.2117 8.22334 20.1305 8.21109 20.0492 8.18558C18.8863 7.8213 17.9611 6.9764 17.4827 5.87436C17.1994 5.79375 16.9038 5.75293 16.6012 5.75293C14.8299 5.75293 13.3898 7.20089 13.3898 8.97946C13.3898 9.44783 13.4883 9.90089 13.6812 10.3254C13.7747 10.5305 13.7798 10.7652 13.6945 10.9744C13.6091 11.1835 13.4426 11.3478 13.2323 11.4284C12.106 11.8621 11.3189 13.3386 11.3189 15.0182C11.3189 16.6988 12.105 18.1733 13.2313 18.605C13.4416 18.6856 13.6081 18.8488 13.6934 19.058C13.7787 19.2672 13.7747 19.5019 13.6812 19.707C13.4873 20.1356 13.3887 20.5897 13.3887 21.058C13.3887 22.8376 14.8299 24.2846 16.6002 24.2846C16.6834 24.2866 16.7637 24.2825 16.8439 24.2764ZM29.1929 41.3978H22.8219V42.3948C22.8219 42.9427 23.2657 43.3886 23.8111 43.3886H28.2016C28.748 43.3886 29.1929 42.9427 29.1929 42.3948V41.3978ZM30.2623 38.0805H30.0379C30.0369 38.0805 30.0369 38.0805 30.0359 38.0805C30.0348 38.0805 30.0348 38.0805 30.0338 38.0805H21.9748C21.9738 38.0805 21.9738 38.0805 21.9728 38.0805H21.7514C21.2903 38.0805 20.9145 38.457 20.9145 38.9203C20.9145 39.3856 21.2893 39.7631 21.7514 39.7631H30.2613C30.7224 39.7631 31.0972 39.3846 31.0972 38.9203C31.0982 38.458 30.7234 38.0805 30.2623 38.0805ZM33.9775 27.1458C33.9775 22.7315 30.4015 19.1407 26.0069 19.1407C21.6123 19.1407 18.0362 22.7315 18.0362 27.1458C18.0362 30.0427 19.1545 31.2988 20.5692 32.8897C20.8038 33.1529 21.0466 33.4254 21.2903 33.7131C21.9972 34.5437 22.4522 35.4437 22.6695 36.4458H25.1934V29.9478L22.6858 27.4315C22.3679 27.1131 22.3679 26.5948 22.6848 26.2764C23.0016 25.957 23.5176 25.957 23.8345 26.2754L26.0069 28.455L28.1763 26.2764C28.4941 25.957 29.0091 25.957 29.3259 26.2764C29.6438 26.5958 29.6438 27.1131 29.3259 27.4315L26.8204 29.9488V36.4468H29.3412C29.5585 35.4478 30.0125 34.5478 30.7194 33.7142C30.9641 33.4264 31.2059 33.155 31.4395 32.8927C32.8573 31.3009 33.9775 30.0437 33.9775 27.1458ZM40.6908 15.0203C40.6908 13.3397 39.9047 11.8631 38.7784 11.4305C38.5681 11.3499 38.4005 11.1846 38.3152 10.9744C38.2299 10.7642 38.236 10.5284 38.3305 10.3233C38.5255 9.90191 38.624 9.44987 38.624 8.98048C38.624 7.20089 37.1818 5.75395 35.4095 5.75395C35.1059 5.75395 34.8113 5.79477 34.529 5.87538C34.0486 6.97844 33.1223 7.82334 31.9605 8.18762C31.8802 8.21313 31.798 8.22538 31.7177 8.22538C31.3714 8.22538 31.0505 8.00089 30.9418 7.65191C30.8077 7.2213 31.0474 6.76313 31.476 6.62844C32.2611 6.38252 32.8908 5.74477 33.1386 4.95395C33.2148 4.70803 33.2544 4.45191 33.2544 4.1917C33.2544 2.78456 32.1148 1.63864 30.7133 1.63864C29.3107 1.63864 28.1702 2.78354 28.1702 4.1917V17.7539C31.4933 18.5264 34.1623 21.0366 35.1698 24.2774C35.2491 24.2835 35.3293 24.2866 35.4095 24.2866C37.1818 24.2866 38.624 22.8397 38.624 21.0601C38.624 20.5917 38.5255 20.1376 38.3305 19.7131C38.236 19.507 38.2309 19.2713 38.3163 19.0621C38.4016 18.8529 38.5691 18.6876 38.7804 18.607C39.9047 18.1764 40.6908 16.7019 40.6908 15.0203ZM1.48969 9.07538L7.57531 10.7121C7.64539 10.7315 7.71648 10.7397 7.78656 10.7397C8.14609 10.7397 8.47414 10.4988 8.57164 10.1335C8.68742 9.69783 8.43047 9.24987 7.9968 9.13252L1.91117 7.49579C1.47648 7.37946 1.03164 7.63762 0.914844 8.07334C0.798047 8.51109 1.05602 8.95905 1.48969 9.07538ZM3.88148 2.71722L9.33742 5.8815C9.46539 5.95599 9.60555 5.99068 9.74367 5.99068C10.025 5.99068 10.2982 5.84375 10.4485 5.58252C10.673 5.19171 10.5399 4.6917 10.1509 4.46619L4.695 1.30191C4.30602 1.0764 3.80836 1.21007 3.58391 1.60089C3.35945 1.99171 3.4925 2.4917 3.88148 2.71722ZM43.4421 10.1346C43.5396 10.4999 43.8677 10.7407 44.2272 10.7407C44.2973 10.7407 44.3673 10.7315 44.4384 10.7131L50.522 9.0764C50.9557 8.96007 51.2137 8.51109 51.0969 8.07538C50.9801 7.63966 50.5352 7.38048 50.1005 7.49783L44.017 9.13456C43.5833 9.25089 43.3263 9.69885 43.4421 10.1346ZM42.2711 5.9917C42.4092 5.9917 42.5494 5.95599 42.6773 5.88252L48.1292 2.71722C48.5182 2.4917 48.6513 1.99171 48.4268 1.60089C48.2023 1.21007 47.7047 1.0764 47.3157 1.30191L41.8628 4.46619C41.4738 4.6917 41.3408 5.19171 41.5652 5.58252C41.7166 5.84477 41.9898 5.9917 42.2711 5.9917ZM7.9318 15.0203C7.9318 14.5693 7.5682 14.2029 7.11828 14.2029H0.819375C0.370469 14.2029 0.00585938 14.5682 0.00585938 15.0203C0.00585938 15.4723 0.369453 15.8376 0.819375 15.8376H7.11828C7.56719 15.8376 7.9318 15.4713 7.9318 15.0203ZM50.521 20.9642L44.4374 19.3274C44.0037 19.2111 43.5579 19.4693 43.4411 19.905C43.3253 20.3407 43.5823 20.7886 44.0159 20.906L50.0995 22.5427C50.1696 22.5621 50.2407 22.5703 50.3108 22.5703C50.6703 22.5703 50.9984 22.3295 51.0959 21.9642C51.2127 21.5295 50.9547 21.0815 50.521 20.9642ZM51.1944 14.2029H44.8955C44.4466 14.2029 44.082 14.5682 44.082 15.0203C44.082 15.4723 44.4455 15.8376 44.8955 15.8376H51.1944C51.6433 15.8376 52.0079 15.4723 52.0079 15.0203C52.0079 14.5682 51.6443 14.2029 51.1944 14.2029ZM9.33742 24.158L3.88148 27.3223C3.4925 27.5478 3.35945 28.0478 3.58391 28.4386C3.73422 28.7009 4.00844 28.8468 4.28875 28.8468C4.42687 28.8468 4.56703 28.8111 4.695 28.7376L10.1509 25.5744C10.5399 25.3488 10.673 24.8488 10.4485 24.458C10.223 24.0672 9.72641 23.9335 9.33742 24.158ZM8.57164 19.905C8.45586 19.4693 8.00898 19.2111 7.57531 19.3274L1.48969 20.9642C1.05602 21.0805 0.798047 21.5284 0.914844 21.9652C1.01234 22.3305 1.34039 22.5713 1.69992 22.5713C1.77 22.5713 1.84008 22.5621 1.91117 22.5437L7.9968 20.907C8.43047 20.7897 8.68742 20.3417 8.57164 19.905ZM48.1292 27.3233L42.6763 24.1591C42.2873 23.9335 41.7897 24.0672 41.5652 24.458C41.3408 24.8488 41.4738 25.3488 41.8628 25.5744L47.3157 28.7386C47.4437 28.8131 47.5838 28.8478 47.722 28.8478C48.0033 28.8478 48.2765 28.7009 48.4268 28.4397C48.6513 28.0488 48.5182 27.5488 48.1292 27.3233Z" fill="white"/>
</g>
<defs>
<clipPath id="clip0_619_822">
<rect width="52" height="45" fill="white"/>
</clipPath>
</defs>
</svg>
