<svg width="48" height="45" viewBox="0 0 48 45" fill="none" xmlns="http://www.w3.org/2000/svg">
<g clip-path="url(#clip0_619_750)">
<path d="M46.3018 20.2407C45.9774 19.6161 45.4486 19.1773 44.7727 18.9729L44.6949 18.9495C43.4593 18.5742 42.1308 19.1783 41.6058 20.3546L38.7099 26.8404C38.1146 26.7517 37.4874 26.8852 36.9633 27.2633L33.8349 29.5152L32.2177 30.1762C30.8752 30.7251 29.9265 31.7951 29.5458 33.1899L27.7496 39.7784H27.7149C26.8965 39.7784 26.2299 40.4412 26.2299 41.2572V43.5231C26.2299 44.3381 26.8955 45.0019 27.7149 45.0019H36.9352C37.7536 45.0019 38.4202 44.339 38.4202 43.5231V41.2563C38.4202 40.4412 37.7546 39.7774 36.9352 39.7774H36.443L36.6699 38.9568C36.8368 38.3527 37.1565 37.9065 37.6768 37.5526L40.8671 35.382C41.9255 34.6622 42.6343 33.7295 43.0318 32.5336L46.4602 22.2172C46.6805 21.5487 46.6261 20.8662 46.3018 20.2407ZM36.9343 40.8978C37.1293 40.8978 37.2943 41.0621 37.2943 41.2563V43.5221C37.2943 43.7163 37.1293 43.8806 36.9343 43.8806H27.714C27.519 43.8806 27.354 43.7163 27.354 43.5221V41.2563C27.354 41.0621 27.519 40.8978 27.714 40.8978H35.7024H35.7033H35.7043H36.9343ZM45.3905 21.8652L41.9621 32.1816C41.6405 33.1497 41.0902 33.8723 40.2315 34.4568L37.0411 36.6274C36.3099 37.125 35.8196 37.8084 35.5843 38.659L35.2749 39.7774H28.9149L30.6315 33.4821C30.9221 32.4159 31.6186 31.6307 32.6443 31.2106L34.3224 30.5244C34.3636 30.5076 34.4021 30.4861 34.4386 30.46L37.6215 28.1689C37.973 27.9159 38.4127 27.8711 38.7924 28.0093C38.7952 28.0102 38.798 28.0121 38.8008 28.013C38.8177 28.0205 38.8355 28.027 38.8533 28.0335C39.0558 28.1194 39.2386 28.2595 39.3765 28.449C39.5715 28.7179 39.6502 29.0475 39.5968 29.3779C39.5433 29.7084 39.3652 29.9979 39.0961 30.1921L34.6149 33.4186C34.3627 33.5997 34.3065 33.9498 34.4883 34.201C34.6702 34.4521 35.0218 34.5081 35.274 34.327L39.7552 31.1005C40.269 30.7307 40.6074 30.1818 40.7077 29.5553C40.808 28.9289 40.659 28.3024 40.2868 27.7917C40.134 27.5817 39.953 27.4043 39.7524 27.2605L42.6333 20.8093C42.9324 20.1389 43.6618 19.8075 44.3668 20.0213L44.4446 20.0446C44.8346 20.1632 45.1149 20.3957 45.3024 20.7561C45.4899 21.1164 45.519 21.4796 45.3905 21.8652ZM20.2871 39.7774H20.2524L18.4561 33.1889C18.0755 31.7941 17.1268 30.7242 15.7843 30.1752L14.1671 29.5143L11.0386 27.2615C10.5146 26.8843 9.88646 26.7508 9.29208 26.8385L6.39615 20.3527C5.87115 19.1764 4.54271 18.5733 3.30708 18.9477L3.22833 18.9719C2.5524 19.1773 2.02365 19.6152 1.69927 20.2398C1.3749 20.8644 1.32052 21.5478 1.54177 22.2153L4.97021 32.5326C5.36771 33.7295 6.07552 34.6612 7.1349 35.3811L10.3252 37.5517C10.8446 37.9055 11.1652 38.3509 11.3321 38.9559L11.559 39.7765H11.0668C10.2483 39.7765 9.58177 40.4394 9.58177 41.2553V43.5212C9.58177 44.3362 10.2474 45 11.0668 45H20.2871C21.1055 45 21.7721 44.3372 21.7721 43.5212V41.2563C21.7711 40.4412 21.1055 39.7774 20.2871 39.7774ZM10.9599 36.6274L7.76958 34.4568C6.9099 33.8723 6.36052 33.1488 6.03896 32.1816L2.61052 21.8643C2.48208 21.4787 2.51115 21.1164 2.69865 20.7561C2.88615 20.3957 3.16646 20.1623 3.55646 20.0446L3.63521 20.0204C4.34021 19.8066 5.06958 20.138 5.36865 20.8083L8.24958 27.2596C8.04896 27.4034 7.86802 27.5807 7.71521 27.7908C7.34302 28.3015 7.19396 28.9279 7.29427 29.5544C7.39552 30.1809 7.73302 30.7298 8.24771 31.0995L12.729 34.3261C12.9802 34.5072 13.3327 34.4512 13.5146 34.2C13.6965 33.9498 13.6402 33.5988 13.388 33.4177L8.90677 30.1911C8.63677 29.9969 8.45865 29.7075 8.40615 29.377C8.35271 29.0465 8.43146 28.716 8.62646 28.4481C8.76427 28.2585 8.94708 28.1185 9.14958 28.0326C9.1674 28.027 9.18521 28.0205 9.20208 28.0121C9.2049 28.0111 9.20771 28.0093 9.21052 28.0083C9.59021 27.8702 10.0299 27.9159 10.3805 28.168L13.5633 30.4591C13.599 30.4852 13.6383 30.5067 13.6796 30.5235L15.3577 31.2097C16.3843 31.6289 17.0799 32.414 17.3705 33.4812L19.0871 39.7765H12.7271L12.4177 38.658C12.1824 37.8084 11.6921 37.125 10.9599 36.6274ZM20.6461 43.5212C20.6461 43.7154 20.4811 43.8797 20.2861 43.8797H11.0658C10.8708 43.8797 10.7058 43.7154 10.7058 43.5212V41.2563C10.7058 41.0621 10.8708 40.8978 11.0658 40.8978H12.2949H12.2958H12.2968H20.2852C20.4802 40.8978 20.6452 41.0621 20.6452 41.2563V43.5212H20.6461ZM31.7424 19.1222V13.0024L36.8443 10.9737V15.2683C36.4018 15.3701 35.9949 15.5913 35.6649 15.919C35.199 16.3812 34.9411 16.9964 34.9393 17.6509C34.9374 18.4902 35.453 19.182 35.9077 19.7916C36.0352 19.9625 36.1561 20.1249 36.2602 20.2818L36.923 21.2854C37.0271 21.4423 37.2024 21.5375 37.3918 21.5375H37.3927C37.5811 21.5375 37.7565 21.4441 37.8615 21.2873L38.529 20.2874C38.634 20.1305 38.7549 19.969 38.8833 19.7991C39.3408 19.1913 39.8602 18.5023 39.8621 17.663C39.864 17.0086 39.609 16.3914 39.1458 15.9274C38.8177 15.5988 38.4118 15.3747 37.9693 15.2711V10.1474C37.9693 9.91778 37.8286 9.71239 37.6149 9.62743L28.3936 5.96208C28.4161 5.76228 28.4293 5.55969 28.4293 5.3543C28.4293 2.40222 26.018 0.000976562 23.0536 0.000976562C20.0893 0.000976562 17.678 2.40222 17.678 5.3543C17.678 5.55969 17.6911 5.76228 17.7136 5.96208L8.4924 9.62743C8.27865 9.71239 8.13802 9.91872 8.13802 10.1474C8.13802 10.3762 8.27865 10.5825 8.4924 10.6675L14.3658 13.0024V19.1222C14.3658 19.2978 14.4493 19.4639 14.5899 19.5694C17.0855 21.4413 19.7715 22.3507 23.0396 22.4319H23.0536C23.0536 22.4319 23.063 22.4319 23.0677 22.4319C26.3368 22.3507 29.0218 21.4413 31.5174 19.5694C31.659 19.4639 31.7424 19.2987 31.7424 19.1222ZM37.4049 16.3251C37.7621 16.3261 38.0968 16.4652 38.349 16.7173C38.6011 16.9693 38.739 17.3036 38.738 17.6593C38.7371 18.1261 38.3546 18.634 37.9843 19.126C37.8521 19.3015 37.7152 19.4835 37.5924 19.6665L37.3955 19.9616L37.1996 19.6656C37.0786 19.4817 36.9427 19.2996 36.8105 19.1232C36.443 18.6302 36.0624 18.1205 36.0643 17.6527C36.0652 17.297 36.2049 16.9628 36.458 16.7126C36.7102 16.4624 37.0449 16.3251 37.4011 16.3251H37.4049ZM23.0536 1.12037C25.3974 1.12037 27.3043 3.01934 27.3043 5.35336C27.3043 7.68739 25.3974 9.58635 23.0536 9.58635C20.7099 9.58635 18.803 7.68739 18.803 5.35336C18.803 3.01934 20.7099 1.12037 23.0536 1.12037ZM10.2174 10.1474L17.9621 7.06934C18.339 8.1766 19.0702 9.12235 20.0208 9.77214H18.2405C17.9302 9.77214 17.678 10.0233 17.678 10.3323C17.678 10.6413 17.9302 10.8925 18.2405 10.8925H27.8668C28.1771 10.8925 28.4293 10.6413 28.4293 10.3323C28.4293 10.0233 28.1771 9.77214 27.8668 9.77214H26.0865C27.0371 9.12235 27.7683 8.1766 28.1452 7.06934L35.8899 10.1474L23.0536 15.2496L10.2174 10.1474ZM30.6174 18.8403C28.359 20.4713 26.0133 21.2359 23.0546 21.3116C20.0949 21.2359 17.7493 20.4713 15.4918 18.8403V13.4496L22.8465 16.3728C22.913 16.3998 22.9843 16.4129 23.0546 16.4129C23.1249 16.4129 23.1961 16.3998 23.2627 16.3728L30.6174 13.4496V18.8403ZM21.2724 4.2517C21.2724 3.53282 21.7824 2.92131 22.4911 2.69724V2.31353C22.4911 2.0045 22.7433 1.75336 23.0536 1.75336C23.364 1.75336 23.6161 2.0045 23.6161 2.31353V2.67857C24.1599 2.83075 24.6061 3.20886 24.7983 3.71488C24.908 4.0043 24.7618 4.32732 24.4711 4.43749C24.1805 4.54672 23.8561 4.40108 23.7455 4.11166C23.6593 3.88479 23.3874 3.72608 23.0846 3.72608C22.7124 3.72608 22.3974 3.96695 22.3974 4.25264C22.3974 4.30025 22.4068 4.54112 22.598 4.60647L23.2355 4.82401C23.244 4.82681 23.2524 4.83054 23.2608 4.83334L24.0418 5.1433C24.5377 5.34029 24.834 5.83044 24.834 6.45596C24.834 7.17484 24.324 7.78635 23.6152 8.01042V8.39413C23.6152 8.70316 23.363 8.9543 23.0527 8.9543C22.7424 8.9543 22.4902 8.70316 22.4902 8.39413V8.02909C21.9465 7.87691 21.5002 7.4988 21.308 6.99278C21.1983 6.70336 21.3446 6.38033 21.6352 6.27017C21.9258 6.16094 22.2502 6.30658 22.3608 6.596C22.4471 6.82286 22.719 6.98158 23.0218 6.98158C23.394 6.98158 23.709 6.74071 23.709 6.45502C23.709 6.30751 23.6658 6.19921 23.6255 6.18334L22.8577 5.87898L22.2333 5.66612C21.6502 5.46633 21.2724 4.91177 21.2724 4.2517Z" fill="white"/>
</g>
<defs>
<clipPath id="clip0_619_750">
<rect width="48" height="45" fill="white"/>
</clipPath>
</defs>
</svg>
