<svg width="45" height="45" viewBox="0 0 45 45" fill="none" xmlns="http://www.w3.org/2000/svg">
<g clip-path="url(#clip0_619_765)">
<path d="M21.9539 6.79572H24.574C25.6099 6.78019 25.6127 5.23332 24.574 5.21678H23.2672C23.325 4.64462 23.143 4.07682 22.4777 4.05493C22.0418 4.05493 21.6883 4.40803 21.6883 4.8444V5.24362C18.7692 5.62489 19.002 9.87893 21.9539 9.93974C21.9539 9.93974 23.0016 9.93974 23.0016 9.93974C24.0299 9.95707 24.0307 11.4872 23.0016 11.5048H20.3815C19.3456 11.5203 19.3428 13.0672 20.3815 13.0838C20.3815 13.0838 21.6883 13.0838 21.6883 13.0838C21.6305 13.6559 21.8125 14.2237 22.4778 14.2456C22.9137 14.2456 23.2672 13.8925 23.2672 13.4561V13.0569C26.1863 12.6756 25.9535 8.42161 23.0016 8.36079H21.9539C20.9256 8.34346 20.9248 6.81334 21.9539 6.79572Z" fill="white"/>
<path d="M38.0345 15.7127C37.7262 15.4043 37.2266 15.4043 36.9182 15.7127L30.6024 22.0285C30.3765 22.2544 30.309 22.5936 30.4312 22.8889C30.5534 23.1842 30.8414 23.3762 31.1606 23.3762H34.0579V25.3583C34.0764 26.3964 35.6188 26.3961 35.6368 25.3583V22.5867C35.6368 22.1503 35.2833 21.7972 34.8473 21.7972H33.0664L37.4764 17.3873L41.8863 21.7972H40.1131C39.6771 21.7972 39.3236 22.1503 39.3236 22.5867V43.8871C39.3355 44.9103 40.8849 44.9362 40.9025 43.887V23.3762H43.7921C44.4725 23.3998 44.8502 22.4942 44.3503 22.0285C44.3503 22.0285 38.0345 15.7127 38.0345 15.7127Z" fill="white"/>
<path d="M10.8959 25.3583V23.3762H13.7932C14.4736 23.3998 14.8513 22.4942 14.3513 22.0285C14.3514 22.0285 8.03558 15.7127 8.03558 15.7127C7.72719 15.4043 7.2276 15.4043 6.91921 15.7127L0.603424 22.0285C0.106577 22.4953 0.478198 23.3988 1.16165 23.3762C1.16161 23.3762 4.05121 23.3762 4.05121 23.3762V43.8871C4.05121 44.3234 4.40469 44.6765 4.84068 44.6765C5.27667 44.6765 5.63015 44.3234 5.63015 43.8871V22.5867C5.63015 22.1503 5.27667 21.7972 4.84068 21.7972H3.06745L7.4774 17.3873L11.8874 21.7972H10.1064C9.67043 21.7972 9.31694 22.1503 9.31694 22.5867V25.3583C9.33315 26.3954 10.8792 26.3962 10.8959 25.3583Z" fill="white"/>
<path d="M32.7404 28.0977H28.0036V25.7293C28.0036 24.4232 26.9412 23.3608 25.6352 23.3608H19.3194C18.0134 23.3608 16.951 24.4232 16.951 25.7293V28.0977H12.2141C10.9081 28.0977 9.8457 29.1601 9.8457 30.4661V42.3082C9.8457 43.6142 10.9081 44.6766 12.2141 44.6766H32.7404C34.0465 44.6766 35.1089 43.6142 35.1089 42.3082V30.4661C35.1089 29.1601 34.0465 28.0977 32.7404 28.0977ZM18.5299 25.7293C18.5299 25.2937 18.8842 24.9398 19.3194 24.9398H25.6352C26.0704 24.9398 26.4247 25.2937 26.4247 25.7293V28.0977H18.5299V25.7293ZM33.5299 42.3082C33.5299 42.7438 33.1757 43.0977 32.7404 43.0977H12.2141C11.7789 43.0977 11.4247 42.7438 11.4247 42.3082V34.4135H19.7141V36.3872C19.7141 37.9106 20.9538 39.1503 22.4773 39.1503C24.0007 39.1503 25.2404 37.9106 25.2404 36.3872V34.4135H30.372C31.4044 34.3985 31.4138 32.8518 30.372 32.8345H24.451C21.8717 32.8343 14.1153 32.8347 11.4247 32.8345V30.4661C11.4247 30.0305 11.7789 29.6766 12.2141 29.6766H32.7404C33.1757 29.6766 33.5299 30.0305 33.5299 30.4661V42.3082ZM21.2931 34.4135H23.6615V36.3872C23.6615 37.0402 23.1303 37.5714 22.4773 37.5714C21.8243 37.5714 21.2931 37.0402 21.2931 36.3872V34.4135Z" fill="white"/>
<path d="M25.6349 20.9924C26.0709 20.9924 26.4244 20.6393 26.4244 20.2029V16.8758C34.4334 12.7071 31.6296 0.584383 22.4769 0.466064C13.3231 0.587872 10.5202 12.7041 18.5297 16.8758C18.5296 16.8758 18.5296 20.2029 18.5296 20.2029C18.5478 21.2389 20.0902 21.2424 20.1086 20.2029V17.4978C21.6034 17.942 23.3506 17.9421 24.8454 17.4978V20.2029C24.8454 20.6393 25.1989 20.9924 25.6349 20.9924ZM15.3717 9.15026C15.3717 5.23219 18.5593 2.045 22.477 2.045C31.9031 2.43528 31.9004 15.8667 22.4769 16.2555C18.5593 16.2555 15.3717 13.0683 15.3717 9.15026Z" fill="white"/>
</g>
<defs>
<clipPath id="clip0_619_765">
<rect width="45" height="45" fill="white"/>
</clipPath>
</defs>
</svg>
