<svg width="43" height="45" viewBox="0 0 43 45" fill="none" xmlns="http://www.w3.org/2000/svg">
<g clip-path="url(#clip0_619_775)">
<path d="M39.5461 31.1763H3.32762C1.65946 31.1763 0.302734 29.8273 0.302734 28.1687V3.05107C0.302734 1.39244 1.65946 0.043457 3.32762 0.043457H39.5471C41.2153 0.043457 42.572 1.39244 42.572 3.05107V28.1687C42.571 29.8273 41.2143 31.1763 39.5461 31.1763ZM3.32762 1.06541C2.22682 1.06541 1.33056 1.95656 1.33056 3.05107V28.1687C1.33056 29.2632 2.22682 30.1544 3.32762 30.1544H39.5471C40.6479 30.1544 41.5442 29.2632 41.5442 28.1687V3.05107C41.5442 1.95656 40.6479 1.06541 39.5471 1.06541H3.32762Z" fill="white"/>
<path d="M38.8918 28.0296H3.98071C3.69703 28.0296 3.4668 27.8006 3.4668 27.5186V3.7019C3.4668 3.41984 3.69703 3.19092 3.98071 3.19092H38.8908C39.1744 3.19092 39.4047 3.41984 39.4047 3.7019V27.5186C39.4057 27.8006 39.1755 28.0296 38.8918 28.0296ZM4.49462 27.0076H38.3769V4.21287H4.49462V27.0076Z" fill="white"/>
<path d="M9.24049 45.0176C9.15312 45.0176 9.06473 44.9952 8.98353 44.9492C8.73788 44.8081 8.6536 44.4954 8.79544 44.2512L16.832 30.4098C16.9738 30.1655 17.2884 30.0817 17.534 30.2228C17.7797 30.3638 17.8639 30.6765 17.7221 30.9208L9.68553 44.7621C9.59097 44.9257 9.4183 45.0176 9.24049 45.0176Z" fill="white"/>
<path d="M33.6325 45.0176C33.4547 45.0176 33.282 44.9257 33.1875 44.7621L25.1509 30.9208C25.0091 30.6765 25.0933 30.3638 25.339 30.2228C25.5846 30.0817 25.8992 30.1655 26.041 30.4098L34.0776 44.2512C34.2194 44.4954 34.1351 44.8081 33.8895 44.9492C33.8083 44.9962 33.7199 45.0176 33.6325 45.0176Z" fill="white"/>
<path d="M21.4377 45.0176C21.1541 45.0176 20.9238 44.7887 20.9238 44.5066V30.6653C20.9238 30.3832 21.1541 30.1543 21.4377 30.1543C21.7214 30.1543 21.9517 30.3832 21.9517 30.6653V44.5066C21.9517 44.7887 21.7214 45.0176 21.4377 45.0176Z" fill="white"/>
<path d="M30.9969 40.4805H11.8752C11.5916 40.4805 11.3613 40.2515 11.3613 39.9695C11.3613 39.6874 11.5916 39.4585 11.8752 39.4585H30.9969C31.2806 39.4585 31.5108 39.6874 31.5108 39.9695C31.5108 40.2515 31.2806 40.4805 30.9969 40.4805Z" fill="white"/>
<path d="M15.4309 20.361H9.43969C9.15601 20.361 8.92578 20.1321 8.92578 19.85V11.3708C8.92578 11.0888 9.15601 10.8599 9.43969 10.8599H15.4309C15.7146 10.8599 15.9448 11.0888 15.9448 11.3708V19.85C15.9448 20.1321 15.7146 20.361 15.4309 20.361ZM9.95361 19.339H14.917V11.8818H9.95361V19.339Z" fill="white"/>
<path d="M22.4961 23.0446C22.2124 23.0446 21.9822 22.8157 21.9822 22.5336V19.0559H15.4319C15.1482 19.0559 14.918 18.827 14.918 18.5449C14.918 18.2629 15.1482 18.0339 15.4319 18.0339H22.4961C22.7798 18.0339 23.01 18.2629 23.01 18.5449V22.5336C23.01 22.8157 22.7808 23.0446 22.4961 23.0446Z" fill="white"/>
<path d="M22.4961 13.1859H15.4319C15.1482 13.1859 14.918 12.957 14.918 12.675C14.918 12.3929 15.1482 12.164 15.4319 12.164H21.9822V8.68627C21.9822 8.40421 22.2124 8.17529 22.4961 8.17529C22.7798 8.17529 23.01 8.40421 23.01 8.68627V12.675C23.01 12.957 22.7808 13.1859 22.4961 13.1859Z" fill="white"/>
<path d="M22.4959 25.7537C21.4609 25.7537 20.6191 24.9167 20.6191 23.8876C20.6191 22.8585 21.4609 22.0215 22.4959 22.0215C23.531 22.0215 24.3728 22.8585 24.3728 23.8876C24.3728 24.9167 23.531 25.7537 22.4959 25.7537ZM22.4959 23.0445C22.0283 23.0445 21.647 23.4226 21.647 23.8886C21.647 24.3546 22.0273 24.7327 22.4959 24.7327C22.9636 24.7327 23.3449 24.3546 23.3449 23.8886C23.3449 23.4226 22.9646 23.0445 22.4959 23.0445Z" fill="white"/>
<path d="M22.4959 9.19703C21.4609 9.19703 20.6191 8.36005 20.6191 7.33094C20.6191 6.30183 21.4609 5.46484 22.4959 5.46484C23.531 5.46484 24.3728 6.30183 24.3728 7.33094C24.3728 8.36005 23.531 9.19703 22.4959 9.19703ZM22.4959 6.48782C22.0283 6.48782 21.647 6.86595 21.647 7.33196C21.647 7.79797 22.0273 8.17609 22.4959 8.17609C22.9636 8.17609 23.3449 7.79797 23.3449 7.33196C23.3449 6.86595 22.9646 6.48782 22.4959 6.48782Z" fill="white"/>
<path d="M26.6341 16.1208H23.4427C23.1591 16.1208 22.9288 15.8919 22.9288 15.6099C22.9288 15.3278 23.1591 15.0989 23.4427 15.0989H26.6341C26.9178 15.0989 27.1481 15.3278 27.1481 15.6099C27.1481 15.8919 26.9178 16.1208 26.6341 16.1208ZM18.6233 16.1208H15.4319C15.1482 16.1208 14.918 15.8919 14.918 15.6099C14.918 15.3278 15.1482 15.0989 15.4319 15.0989H18.6233C18.907 15.0989 19.1372 15.3278 19.1372 15.6099C19.1372 15.8919 18.907 16.1208 18.6233 16.1208Z" fill="white"/>
<path d="M29.4605 20.9874C29.2827 20.9874 29.11 20.8954 29.0155 20.7319L26.19 15.8654C26.0481 15.6211 26.1324 15.3084 26.3781 15.1674C26.6237 15.0263 26.9382 15.1101 27.0801 15.3544L29.9056 20.2209C30.0474 20.4652 29.9631 20.7779 29.7175 20.9189C29.6363 20.9659 29.5479 20.9874 29.4605 20.9874Z" fill="white"/>
<path d="M26.634 16.1209C26.5466 16.1209 26.4582 16.0985 26.3781 16.0525C26.1324 15.9114 26.0481 15.5987 26.19 15.3545L29.0155 10.4879C29.1573 10.2437 29.4718 10.1599 29.7175 10.3009C29.9631 10.4419 30.0474 10.7547 29.9056 10.9989L27.0801 15.8655C26.9845 16.03 26.8118 16.1209 26.634 16.1209Z" fill="white"/>
<path d="M30.6089 24.9259H28.3127C28.0291 24.9259 27.7988 24.697 27.7988 24.4149V20.4763C27.7988 20.1943 28.0291 19.9653 28.3127 19.9653H30.6089C30.8926 19.9653 31.1228 20.1943 31.1228 20.4763V24.4149C31.1228 24.697 30.8926 24.9259 30.6089 24.9259ZM28.8267 23.904H30.095V20.9873H28.8267V23.904Z" fill="white"/>
<path d="M30.6089 11.2543H28.3127C28.0291 11.2543 27.7988 11.0254 27.7988 10.7433V6.80468C27.7988 6.52262 28.0291 6.2937 28.3127 6.2937H30.6089C30.8926 6.2937 31.1228 6.52262 31.1228 6.80468V10.7433C31.1228 11.0254 30.8926 11.2543 30.6089 11.2543ZM28.8267 10.2323H30.095V7.31566H28.8267V10.2323Z" fill="white"/>
<path d="M31.0752 16.1208H26.635C26.3513 16.1208 26.1211 15.8919 26.1211 15.6099C26.1211 15.3278 26.3513 15.0989 26.635 15.0989H31.0752C31.3589 15.0989 31.5891 15.3278 31.5891 15.6099C31.5891 15.8919 31.3589 16.1208 31.0752 16.1208Z" fill="white"/>
<path d="M33.4333 17.2941H31.0745C30.7908 17.2941 30.5605 17.0652 30.5605 16.7831V14.4377C30.5605 14.1557 30.7908 13.9268 31.0745 13.9268H33.4333C33.717 13.9268 33.9472 14.1557 33.9472 14.4377V16.7831C33.9472 17.0652 33.717 17.2941 33.4333 17.2941ZM31.5884 16.2721H32.9194V14.9487H31.5884V16.2721Z" fill="white"/>
<path d="M23.4428 16.967H18.6233C18.3396 16.967 18.1094 16.7381 18.1094 16.4561V14.7627C18.1094 14.4806 18.3396 14.2517 18.6233 14.2517H23.4428C23.7264 14.2517 23.9567 14.4806 23.9567 14.7627V16.4561C23.9567 16.7392 23.7264 16.967 23.4428 16.967ZM19.1372 15.9451H22.9288V15.2737H19.1372V15.9451Z" fill="white"/>
</g>
<defs>
<clipPath id="clip0_619_775">
<rect width="43" height="45" fill="white"/>
</clipPath>
</defs>
</svg>
