<svg id="_x33_0" enable-background="new 0 0 62.142 62" height="300" viewBox="0 0 62.142 62" width="300" xmlns="http://www.w3.org/2000/svg" version="1.1" xmlns:xlink="http://www.w3.org/1999/xlink" xmlns:svgjs="http://svgjs.dev/svgjs"><g width="100%" height="100%" transform="matrix(1,0,0,1,0,0)"><g><path d="m46.789 38.658.105-.211-1.789-.895-.105.212c-.381.762-1.147 1.236-2 1.236s-1.619-.474-2-1.236l-.105-.211-1.789.895.105.211c.722 1.444 2.174 2.341 3.789 2.341s3.067-.897 3.789-2.342z" fill="#ffffff" fill-opacity="1" data-original-color="#000000ff" stroke="none" stroke-opacity="1"/><path d="m41.707 31.707-1.414-1.414-.293.293c-.533.535-1.465.535-2 0l-.293-.293-1.414 1.414.292.293c.645.645 1.502 1 2.415 1s1.77-.355 2.414-1z" fill="#ffffff" fill-opacity="1" data-original-color="#000000ff" stroke="none" stroke-opacity="1"/><path d="m47 33c.913 0 1.77-.355 2.414-1l.293-.293-1.414-1.414-.293.293c-.533.535-1.465.535-2 0l-.293-.293-1.414 1.414.292.293c.645.645 1.502 1 2.415 1z" fill="#ffffff" fill-opacity="1" data-original-color="#000000ff" stroke="none" stroke-opacity="1"/><path d="m43.553 36.895.894-1.79-1.105-.552.553-1.106-1.79-.894-1.447 2.894z" fill="#ffffff" fill-opacity="1" data-original-color="#000000ff" stroke="none" stroke-opacity="1"/><circle cx="13" cy="13" r="1" fill="#ffffff" fill-opacity="1" data-original-color="#000000ff" stroke="none" stroke-opacity="1"/><circle cx="21" cy="13" r="1" fill="#ffffff" fill-opacity="1" data-original-color="#000000ff" stroke="none" stroke-opacity="1"/><path d="m15 18.764-.105-.211-1.789.895.105.211c.722 1.444 2.174 2.341 3.789 2.341s3.067-.897 3.789-2.342l.105-.211-1.789-.895-.105.212c-.381.762-1.147 1.236-2 1.236s-1.619-.474-2-1.236z" fill="#ffffff" fill-opacity="1" data-original-color="#000000ff" stroke="none" stroke-opacity="1"/><path d="m18.447 16.105-1.224-.612.726-2.177-1.898-.632-1.274 3.823 2.776 1.388z" fill="#ffffff" fill-opacity="1" data-original-color="#000000ff" stroke="none" stroke-opacity="1"/><path d="m61.339 55.98c-.467-3.503-2.283-6.588-4.887-8.736.867-1.031 1.402-2.3 1.522-3.654 1.262-.843 2.026-2.253 2.026-3.801 0-1.434-.685-2.802-1.831-3.662-1.358-1.019-2.169-2.641-2.169-4.338v-2.789c0-7.168-5.832-13-13-13s-13 5.832-13 13v.122c-2.371-1.463-5.019-2.473-7.768-2.93l-.232-.04v-.561c2.057-1.229 3.436-3.266 3.854-5.592h.146c2.206 0 4-1.794 4-4 0-1.135-.48-2.155-1.241-2.884.802-1.32 1.241-2.819 1.241-4.372 0-4.821-3.922-8.743-8.744-8.743-.943 0-1.873.151-2.764.449l-1.492.497-1.491-.497c-.892-.298-1.822-.449-2.765-.449-4.822 0-8.744 3.922-8.744 8.743 0 1.553.439 3.051 1.241 4.373-.761.729-1.241 1.749-1.241 2.884 0 2.206 1.794 4 4 4h.146c.418 2.326 1.797 4.363 3.854 5.592v.561l-1.973.329c-5.81.968-10.027 5.947-10.027 11.836v4.682c0 3.114 1.59 5.862 4 7.478v.846c0 1.552-.455 3.056-1.316 4.347-.448.671-.684 1.451-.684 2.259 0 2.244 1.826 4.07 4.07 4.07h56.072zm-4.37-18.253c.645.484 1.031 1.255 1.031 2.062 0 .982-.546 1.866-1.432 2.309l-.568.272v.63c0 1.154-.431 2.243-1.193 3.084-1.756-1.063-3.756-1.751-5.891-1.929-.379-.031-.697-.277-.838-.61 2.014-1.234 3.363-3.248 3.776-5.545h.146c1.436 0 2.688-.767 3.393-1.907.438.615.961 1.173 1.576 1.634zm-23.677 13.566c-.833.834-1.292 1.942-1.292 3.121v5.586h-5.858l.501-3.756c.204-1.536.714-2.978 1.486-4.308 2.032-.288 3.615-1.926 3.825-3.981.943-.601 1.965-1.057 3.037-1.366l7.009 8.762v4.649h-8v-5.586c0-.645.251-1.251.708-1.707zm-5.792-6.293c1.378 0 2.5 1.121 2.5 2.5s-1.122 2.5-2.5 2.5h-3.5v-5zm2.5-2-.022-.629-.553-.276c-.879-.44-1.425-1.324-1.425-2.306 0-.807.386-1.578 1.031-2.063.615-.461 1.138-1.018 1.576-1.634.705 1.141 1.957 1.908 3.393 1.908h.146c.412 2.297 1.761 4.311 3.776 5.545-.141.333-.459.579-.839.611-1.907.159-3.755.724-5.424 1.636-.328-.796-.88-1.474-1.575-1.965-.05-.273-.084-.549-.084-.827zm4-7c-1.103 0-2-.897-2-2s.897-2 2-2zm9 17.399-2.72-3.399h5.439zm4.32-5.399h-8.64l-1.476-1.845c.015-.001.029-.005.044-.007 1.544-.127 2.752-1.44 2.752-2.988v-.778l-.553-.276c-2.126-1.063-3.447-3.201-3.447-5.578v-7.578c1.889-.179 3.7-.864 5.24-1.977 2.227 1.312 4.764 2.027 7.417 2.027h1.343v7.528c0 2.377-1.321 4.515-3.447 5.577l-.553.277v.778c0 1.548 1.208 2.861 2.751 2.988.015.001.03.004.045.006zm4.68-16c1.103 0 2 .897 2 2s-.897 2-2 2zm-9-14c6.065 0 11 4.935 11 11v1.556c-.591-.344-1.268-.556-2-.556v-1-1-.764c0-1.76-.978-3.343-2.553-4.131l-.895 1.789c.821.411 1.357 1.204 1.437 2.105h-1.333c-3.381 0-6.56-1.316-8.95-3.707l-1.414 1.414c.373.373.766.72 1.171 1.047-1.043.627-2.207 1.034-3.417 1.182.093-.463.319-.888.661-1.229l-1.415-1.414c-.833.835-1.292 1.943-1.292 3.122v.586 1 1c-.732 0-1.409.212-2 .556v-1.556c0-6.065 4.935-11 11-11zm-20.512 10.28c-.238.59-.561 1.124-.957 1.595l-.935-1.122c.182-.143.359-.294.525-.46l.222-.222.56.093c.196.033.39.077.585.116zm-6.488 1.63v2.002c-.718-.122-1.391-.384-2.003-.745l1.209-1.451c.259.083.524.147.794.194zm2 0c.27-.047.535-.111.794-.194l1.209 1.451c-.613.361-1.285.623-2.003.745zm8-11.91v-4c1.103 0 2 .897 2 2s-.897 2-2 2zm-20-9.257c0-3.718 3.025-6.743 6.744-6.743.727 0 1.444.116 2.132.346l2.124.708 2.125-.708c.688-.23 1.404-.346 2.131-.346 3.719 0 6.744 3.025 6.744 6.743 0 1.21-.347 2.38-.984 3.404-.327-.086-.663-.147-1.016-.147v-1-1-.764c0-1.76-.978-3.343-2.553-4.131l-.895 1.789c.822.412 1.358 1.205 1.438 2.106h-1.333c-3.381 0-6.56-1.316-8.95-3.707l-1.414 1.414c.373.373.766.72 1.171 1.047-1.043.627-2.207 1.034-3.417 1.182.093-.463.319-.888.661-1.229l-1.416-1.414c-.833.834-1.292 1.942-1.292 3.121v.586 1 1c-.353 0-.689.061-1.016.147-.637-1.024-.984-2.194-.984-3.404zm0 7.257c0-1.103.897-2 2-2v4c-1.103 0-2-.897-2-2zm4 2.528v-7.578c1.889-.179 3.7-.864 5.24-1.977 2.227 1.312 4.764 2.027 7.417 2.027h1.343v7.528c0 2.377-1.321 4.515-3.447 5.577l-.553.277v2.204l-.293.293c-1.446 1.445-3.968 1.445-5.414 0l-.293-.293v-2.204l-.553-.276c-2.126-1.063-3.447-3.201-3.447-5.578zm2.657 9.543.222.222c.166.166.343.317.525.46l-.935 1.122c-.4-.476-.726-1.016-.965-1.612zm-10.657 14.929v-4.682c0-4.613 3.105-8.553 7.497-9.681 1.102 3.209 4.105 5.363 7.503 5.363 3.348 0 6.305-2.096 7.445-5.227 1.982.613 3.863 1.542 5.555 2.745v.271c0 1.697-.811 3.319-2.169 4.338-1.146.86-1.831 2.228-1.831 3.662 0 1.228.487 2.364 1.329 3.211h-16.422l-.757-7.705c-.125-1.131-.638-2.197-1.443-3.002l-1.414 1.414c.485.485.793 1.127.868 1.796l.797 8.124-1.666 1.666 1.414 1.414 1.708-1.707h11.586v5h-13c-3.86 0-7-3.141-7-7zm2 14.93c0-.328.097-.64.244-.93h13.756v-2h-12.739c.453-1.119.71-2.307.728-3.529.943.336 1.954.529 3.011.529h16.835c-.448.956-.775 1.96-.99 3h-4.845v2h4.525l-.4 3h-18.055c-1.141 0-2.07-.929-2.07-2.07zm50 2.07v-5.586c0-1.179-.459-2.287-1.292-3.121l-1.415 1.414c.456.456.707 1.063.707 1.707v5.586h-8v-4.649l7.018-8.772c4.36 1.275 7.723 5.044 8.339 9.665l.501 3.756z" fill="#ffffff" fill-opacity="1" data-original-color="#000000ff" stroke="none" stroke-opacity="1"/></g></g></svg>