<svg width="48" height="45" viewBox="0 0 48 45" fill="none" xmlns="http://www.w3.org/2000/svg">
<g clip-path="url(#clip0_619_846)">
<path d="M23.9989 15.6084C16.2021 15.6084 9.85938 22.2069 9.85938 30.3181C9.85938 38.4293 16.2021 45.0278 23.9989 45.0278C31.7957 45.0278 38.1384 38.4293 38.1384 30.3181C38.1384 22.2069 31.7957 15.6084 23.9989 15.6084ZM33.6016 38.877C32.8882 38.1876 32.1181 37.5836 31.3023 37.0692C31.8079 35.2714 32.1148 33.2499 32.1743 31.0923H36.6276C36.4616 34.0549 35.3496 36.7574 33.6016 38.877ZM11.3703 31.0923H15.8236C15.883 33.2499 16.1898 35.2712 16.6955 37.069C15.8797 37.5834 15.1095 38.1875 14.3962 38.8769C12.6482 36.7574 11.5362 34.0549 11.3703 31.0923ZM14.3961 21.7593C15.1095 22.4488 15.8796 23.0529 16.6954 23.5672C16.1897 25.365 15.8829 27.3864 15.8235 29.5439H11.3702C11.5362 26.5812 12.6481 23.8788 14.3961 21.7593ZM30.684 31.0923C30.626 32.9517 30.361 34.7215 29.9345 36.3115C28.3198 35.5339 26.5658 35.0803 24.7431 34.9833V32.6407H23.2547V34.9833C21.4318 35.0802 19.6778 35.5338 18.0633 36.3113C17.6369 34.7214 17.3718 32.9517 17.3138 31.0924H18.7896V29.544H17.3138C17.3718 27.6847 17.6369 25.9149 18.0633 24.325C19.6778 25.1024 21.4318 25.556 23.2547 25.653V27.9956H24.7431V25.653C26.5658 25.5559 28.32 25.1023 29.9346 24.3249C30.361 25.9149 30.626 27.6846 30.684 29.544H29.2082V31.0924H30.684V31.0923ZM23.2547 43.3935C21.3249 42.9519 19.6138 40.821 18.527 37.7967C19.9926 37.0642 21.5911 36.6338 23.2547 36.5347V43.3935ZM24.7431 36.5346C26.4065 36.6337 28.0052 37.0642 29.4709 37.7968C28.3842 40.8211 26.6732 42.9519 24.7431 43.3935V36.5346ZM23.2547 24.1016C21.5912 24.0025 19.9927 23.572 18.527 22.8395C19.6138 19.8152 21.3249 17.6843 23.2547 17.2426V24.1016ZM24.7431 24.1016V17.2427C26.6733 17.6843 28.3842 19.8152 29.4709 22.8395C28.0052 23.5719 26.4065 24.0025 24.7431 24.1016ZM28.5709 18.0464C30.0599 18.6489 31.4128 19.5366 32.5677 20.6446C32.018 21.1734 31.4308 21.6459 30.8124 22.0592C30.2208 20.467 29.4593 19.1041 28.5709 18.0464ZM17.1854 22.0592C16.5671 21.6459 15.9799 21.1734 15.4301 20.6446C16.585 19.5366 17.9379 18.6489 19.4269 18.0464C18.5385 19.1041 17.7771 20.467 17.1854 22.0592ZM17.1853 38.5769C17.777 40.1691 18.5385 41.5321 19.4268 42.5897C17.9378 41.9873 16.585 41.0996 15.43 39.9915C15.9798 39.4628 16.567 38.9902 17.1853 38.5769ZM30.8124 38.5769C31.4308 38.9903 32.0179 39.4627 32.5677 39.9914C31.4128 41.0995 30.0599 41.9872 28.5709 42.5896C29.4593 41.5321 30.2208 40.1691 30.8124 38.5769ZM32.1743 29.5439C32.1148 27.3864 31.808 25.3651 31.3024 23.5672C32.1183 23.0529 32.8884 22.4488 33.6017 21.7593C35.3497 23.8787 36.4615 26.5812 36.6276 29.5439H32.1743Z" fill="white"/>
<path d="M21.7677 29.5439H20.2793V31.0923H21.7677V29.5439Z" fill="white"/>
<path d="M24.7442 29.5439H23.2559V31.0923H24.7442V29.5439Z" fill="white"/>
<path d="M27.7208 29.5439H26.2324V31.0923H27.7208V29.5439Z" fill="white"/>
<path d="M47.8135 9.65878L23.9995 0.0688477L0.185547 9.65878V12.2694L5.39485 14.3539V24.2578C4.52871 24.5774 3.90648 25.438 3.90648 26.4471V31.0922H8.37159V26.4471C8.37159 25.4379 7.74936 24.5774 6.88322 24.2578V14.9494L9.85997 16.1406V20.2535H11.3483V15.6084C11.3483 13.4507 16.3939 10.189 23.9995 10.189C31.6051 10.189 36.6507 13.4507 36.6507 15.6084V20.2535H38.139V16.1406L47.8135 12.2693V9.65878ZM6.88322 29.5439H5.39485V26.4472C5.39485 26.0198 5.72899 25.673 6.13904 25.673C6.54908 25.673 6.88322 26.0198 6.88322 26.4472V29.5439ZM46.3251 11.2056L37.96 14.5524C36.8584 11.3006 30.8067 8.64072 23.9995 8.64072C17.1916 8.64072 11.1405 11.3006 10.0389 14.5524L6.88322 13.2898V10.9633H5.39485V12.6943L1.67392 11.2056V10.7194L23.9995 1.72872L46.3251 10.7194V11.2056Z" fill="white"/>
</g>
<defs>
<clipPath id="clip0_619_846">
<rect width="48" height="45" fill="white"/>
</clipPath>
</defs>
</svg>
