<svg width="44" height="45" viewBox="0 0 44 45" fill="none" xmlns="http://www.w3.org/2000/svg">
<path d="M0.214867 33.5373L11.5815 44.7873C11.7216 44.9263 11.9093 45 12.1 45C12.1414 45 12.1829 44.9949 12.2239 44.988C12.2632 44.9946 12.3028 45 12.3442 45H23.1C23.5048 45 23.8333 44.6748 23.8333 44.2742C23.8333 43.8736 23.5048 43.5484 23.1 43.5484H12.8333V34.4758C12.8333 33.2753 11.8466 32.2984 10.6333 32.2984H1.46667V2.17742C1.46667 1.77714 1.79557 1.45161 2.2 1.45161H30.8C31.1755 1.45161 31.475 1.72306 31.5333 1.85044V14.879C31.5333 15.2797 31.8619 15.6048 32.2667 15.6048C32.6715 15.6048 33 15.2797 33 14.879V1.81452C33 0.975484 32.039 0 30.8 0H2.2C0.9867 0 0 0.976936 0 2.17742V32.6914C0 32.7531 0.010267 32.8123 0.0249336 32.8696C-0.028233 33.1084 0.0359335 33.3606 0.214867 33.5373ZM10.6333 33.75C11.0378 33.75 11.3667 34.0755 11.3667 34.4758V42.5221L2.50397 33.75H10.6333Z" fill="white"/>
<path d="M16.4997 5.08057C11.8497 5.08057 8.06641 8.825 8.06641 13.4273C8.06641 18.0297 11.8497 21.7741 16.4997 21.7741C21.1498 21.7741 24.9331 18.0297 24.9331 13.4273C24.9331 8.825 21.1498 5.08057 16.4997 5.08057ZM23.4272 12.7015H20.1532C20.0762 10.5296 19.6542 8.41347 18.9032 6.96403C21.3423 7.85532 23.1459 10.0542 23.4272 12.7015ZM16.4997 20.3225C15.6557 20.3225 14.4526 17.9422 14.3137 14.1531H18.6858C18.5468 17.9422 17.3438 20.3225 16.4997 20.3225ZM14.3137 12.7015C14.4523 8.91246 15.6557 6.53218 16.4997 6.53218C17.3438 6.53218 18.5468 8.91246 18.6858 12.7015H14.3137ZM14.0962 6.96403C13.3457 8.41347 12.9233 10.5296 12.8463 12.7015H9.57231C9.85354 10.0542 11.6572 7.85532 14.0962 6.96403ZM9.57231 14.1531H12.8463C12.9233 16.3251 13.3453 18.4412 14.0962 19.8906C11.6572 18.9994 9.85354 16.8005 9.57231 14.1531ZM18.9032 19.8906C19.6538 18.4412 20.0762 16.3251 20.1532 14.1531H23.4272C23.1459 16.8005 21.3423 18.9994 18.9032 19.8906Z" fill="white"/>
<path d="M22 25.7661H6.23333C5.82853 25.7661 5.5 26.0913 5.5 26.4919C5.5 26.8926 5.82853 27.2177 6.23333 27.2177H22C22.4048 27.2177 22.7333 26.8926 22.7333 26.4919C22.7333 26.0913 22.4048 25.7661 22 25.7661Z" fill="white"/>
<path d="M21.9993 32.2983H15.3993C14.9945 32.2983 14.666 32.6235 14.666 33.0241C14.666 33.4248 14.9945 33.75 15.3993 33.75H21.9993C22.4041 33.75 22.7327 33.4248 22.7327 33.0241C22.7327 32.6235 22.4041 32.2983 21.9993 32.2983Z" fill="white"/>
<path d="M43.9992 30.8467V25.4032C43.9992 23.4021 42.3544 21.7741 40.3326 21.7741V20.6854C40.3326 19.2846 39.1812 18.1451 37.7659 18.1451C37.2731 18.1451 36.814 18.2855 36.4228 18.5247C36.0132 17.6588 35.127 17.0564 34.0992 17.0564C33.0715 17.0564 32.1852 17.6588 31.7757 18.5247C31.3844 18.2855 30.9254 18.1451 30.4326 18.1451C29.1749 18.1451 28.1277 19.0458 27.9095 20.2293C27.5649 20.0583 27.1773 19.9596 26.7659 19.9596C25.3506 19.9596 24.1992 21.0991 24.1992 22.4999V25.7661C24.1992 25.8477 24.204 25.9279 24.2117 26.0078C24.2047 26.0473 24.1992 26.0872 24.1992 26.129V30.8467C24.1992 33.8022 25.7345 36.569 28.2326 38.1665V39.9193H26.7659C25.957 39.9193 25.2992 40.5703 25.2992 41.3709V44.2741C25.2992 44.6748 25.6278 44.9999 26.0326 44.9999H42.1659C42.5707 44.9999 42.8992 44.6748 42.8992 44.2741V41.3709C42.8992 40.5703 42.2414 39.9193 41.4326 39.9193H39.9659V38.1665C42.464 36.569 43.9992 33.8022 43.9992 30.8467ZM37.7659 19.5967C38.3724 19.5967 38.8659 20.0852 38.8659 20.6854V21.7741H36.6659V20.6854C36.6659 20.0852 37.1594 19.5967 37.7659 19.5967ZM32.9992 19.5967C32.9992 18.9965 33.4928 18.508 34.0992 18.508C34.7057 18.508 35.1992 18.9965 35.1992 19.5967V20.6854V21.7741C34.3904 21.7741 33.7326 22.4252 33.7326 23.2258V23.5887C33.7326 24.6726 34.2712 25.6325 35.0951 26.227C34.9187 26.5986 34.537 26.8548 34.0992 26.8548C33.4928 26.8548 32.9992 26.3663 32.9992 25.7661V20.6854V19.5967ZM29.3326 20.6854C29.3326 20.0852 29.8261 19.5967 30.4326 19.5967C31.039 19.5967 31.5326 20.0852 31.5326 20.6854V25.7661C31.5326 26.3663 31.039 26.8548 30.4326 26.8548C29.8261 26.8548 29.3326 26.3663 29.3326 25.7661V22.4999V20.6854ZM25.6659 22.4999C25.6659 21.8997 26.1594 21.4112 26.7659 21.4112C27.3724 21.4112 27.8659 21.8997 27.8659 22.4999V25.7661C27.8659 26.3663 27.3724 26.8548 26.7659 26.8548C26.1594 26.8548 25.6659 26.3663 25.6659 25.7661V22.4999ZM41.4326 43.5483H26.7659V41.3709H41.4326V43.5483ZM29.6992 39.9193V37.76C29.6992 37.5009 29.5599 37.2614 29.3333 37.1318C27.0713 35.8359 25.6659 33.4277 25.6659 30.8467V28.0578C25.9999 28.2157 26.3721 28.3064 26.7659 28.3064C27.4838 28.3064 28.1328 28.0124 28.5992 27.5407C29.0656 28.0124 29.7146 28.3064 30.4326 28.3064C31.1505 28.3064 31.7995 28.0124 32.2659 27.5407C32.7323 28.0124 33.3813 28.3064 34.0992 28.3064C35.1365 28.3064 36.0389 27.6891 36.4415 26.7993C36.6336 26.8341 36.8305 26.8548 37.0326 26.8548H38.8659V27.9899C35.7738 28.3507 33.3659 30.957 33.3659 34.1128C33.3659 34.5135 33.6944 34.8387 34.0992 34.8387C34.504 34.8387 34.8326 34.5135 34.8326 34.1128C34.8326 31.5116 36.971 29.3951 39.5992 29.3951C40.004 29.3951 40.3326 29.0699 40.3326 28.6693V26.129C40.3326 25.7283 40.004 25.4032 39.5992 25.4032H37.0326C36.0217 25.4032 35.1992 24.5892 35.1992 23.5887V23.2258H40.3326C41.5459 23.2258 42.5326 24.2027 42.5326 25.4032V30.8467C42.5326 33.4277 41.1271 35.8359 38.8652 37.1318C38.6386 37.2614 38.4992 37.5009 38.4992 37.76V39.9193H29.6992Z" fill="white"/>
</svg>
