<svg width="44" height="45" viewBox="0 0 44 45" fill="none" xmlns="http://www.w3.org/2000/svg">
<g clip-path="url(#clip0_619_828)">
<path fill-rule="evenodd" clip-rule="evenodd" d="M29.2803 44.6465C29.2194 44.6465 29.1586 44.6366 29.1 44.6142C26.8735 43.7646 24.4229 43.7646 22.1987 44.6142C22.0818 44.659 21.9552 44.659 21.8382 44.6142C19.6118 43.7646 17.1611 43.7646 14.937 44.6142C14.7786 44.6739 14.6008 44.6515 14.462 44.5519C14.3231 44.4547 14.2402 44.2928 14.2402 44.1184V33.8239C14.2402 33.6022 14.3742 33.4054 14.5764 33.3281C16.9735 32.4138 19.6093 32.3914 22.0184 33.2634C24.4277 32.3914 27.0635 32.4138 29.4605 33.3281C29.6627 33.4054 29.7967 33.6022 29.7967 33.8239V44.1208C29.7967 44.2928 29.7139 44.4546 29.5751 44.5543C29.4874 44.6141 29.3851 44.6465 29.2803 44.6465ZM18.3865 42.9225C19.6167 42.9225 20.8444 43.1342 22.0185 43.5603C24.1964 42.7729 26.5593 42.7156 28.7663 43.3884V34.1952C26.6299 33.4677 24.3133 33.5101 22.1988 34.3173C22.0819 34.3621 21.9553 34.3621 21.8383 34.3173C19.7239 33.5101 17.4072 33.4677 15.2708 34.1952V43.3884C16.2891 43.077 17.3366 42.9225 18.3865 42.9225Z" fill="white"/>
<path fill-rule="evenodd" clip-rule="evenodd" d="M33.172 10.3551C32.9382 10.3551 32.7261 10.1907 32.6702 9.94895L31.9783 6.9394C31.9418 6.77997 31.9807 6.61051 32.0807 6.48342C32.1829 6.35888 32.3389 6.28409 32.4972 6.29411L35.5179 6.40617C35.8029 6.4161 36.0246 6.66035 36.0149 6.95179C36.0051 7.24324 35.7664 7.47 35.4814 7.45752L33.1355 7.37033L33.6714 9.70725C33.7371 9.99123 33.5666 10.2753 33.2889 10.3426C33.2499 10.3501 33.211 10.3551 33.172 10.3551Z" fill="white"/>
<path fill-rule="evenodd" clip-rule="evenodd" d="M11.7343 39.3224H11.7148L8.69418 39.2102C8.40913 39.2003 8.1875 38.9562 8.1997 38.6646C8.20941 38.3731 8.45064 38.1464 8.7332 38.1563L11.0791 38.2435L10.5407 35.9066C10.475 35.6251 10.6479 35.341 10.9256 35.2738C11.2009 35.2066 11.4786 35.3834 11.5444 35.6649L12.2362 38.6746C12.2727 38.834 12.2338 39.0034 12.1339 39.1304C12.0341 39.2525 11.8879 39.3223 11.7344 39.3223L11.7343 39.3224Z" fill="white"/>
<path fill-rule="evenodd" clip-rule="evenodd" d="M32.9602 38.6971C32.8018 38.6971 32.6436 38.6224 32.5437 38.4803C32.3756 38.2437 32.4267 37.9148 32.6582 37.7429C37.3402 34.26 40.1368 28.6493 40.1368 22.7348C40.1368 16.8203 37.484 11.4239 32.858 7.88123C32.6314 7.70685 32.5851 7.3755 32.7556 7.14374C32.9261 6.90951 33.2477 6.86222 33.4767 7.0366C35.8104 8.82544 37.747 11.1698 39.0723 13.8182C40.4608 16.596 41.1673 19.5957 41.1673 22.7373C41.1673 25.8789 40.4194 29.0056 39.0089 31.776C37.6448 34.4568 35.6594 36.8137 33.2624 38.5975C33.1722 38.6647 33.0651 38.6972 32.9603 38.6972L32.9602 38.6971ZM10.6901 38.4305C10.5806 38.4305 10.4709 38.3956 10.3759 38.3234C8.08365 36.5321 6.18598 34.1976 4.88755 31.5692C3.52337 28.8162 2.83398 25.8441 2.83398 22.7373C2.83398 19.5932 3.57941 16.4689 4.9899 13.6985C6.35407 11.0178 8.34189 8.65844 10.7365 6.87708C10.9679 6.70516 11.2895 6.75755 11.4576 6.99424C11.6232 7.22846 11.5745 7.55981 11.3431 7.72918C6.66104 11.2147 3.86446 16.8252 3.86446 22.7373C3.86446 28.5672 6.46613 33.9435 11.002 37.4863C11.2285 37.6632 11.27 37.9946 11.0995 38.2263C10.9972 38.3608 10.8436 38.4305 10.6901 38.4305Z" fill="white"/>
<path fill-rule="evenodd" clip-rule="evenodd" d="M22.1068 26.5867C19.9436 26.5867 17.7805 26.2279 16.5649 25.5104C16.4065 25.4157 16.3066 25.2412 16.3066 25.0544V21.9227C16.3066 21.6312 16.5381 21.3945 16.8231 21.3945C17.1082 21.3945 17.3396 21.6288 17.3396 21.9227V24.7354C19.5418 25.7993 24.6721 25.7993 26.8766 24.7354V21.9227C26.8766 21.6312 27.1056 21.3945 27.3931 21.3945C27.6781 21.3945 27.9071 21.6288 27.9071 21.9227V25.0544C27.9071 25.2412 27.8096 25.4156 27.6488 25.5104C26.4309 26.2279 24.2675 26.5867 22.1068 26.5867Z" fill="white"/>
<path fill-rule="evenodd" clip-rule="evenodd" d="M22.1074 24.2944C22.0513 24.2944 21.9953 24.2845 21.9418 24.267L12.4875 20.9635C12.278 20.8887 12.1367 20.6894 12.1367 20.4652C12.1367 20.2384 12.278 20.0392 12.4875 19.967L21.9418 16.6634C22.0489 16.6236 22.1659 16.6236 22.273 16.6634L31.7272 19.967C31.9367 20.0392 32.078 20.2385 32.078 20.4652C32.078 20.6894 31.9367 20.8887 31.7272 20.9635L22.273 24.267C22.2194 24.2844 22.1634 24.2944 22.1074 24.2944ZM14.2463 20.4652L22.1074 23.2107L29.9684 20.4652L22.1074 17.7172L14.2463 20.4652Z" fill="white"/>
<path fill-rule="evenodd" clip-rule="evenodd" d="M31.5614 25.58C31.2764 25.58 31.0449 25.3458 31.0449 25.0544V20.4652C31.0449 20.1737 31.2764 19.937 31.5614 19.937C31.8465 19.937 32.0779 20.1737 32.0779 20.4652V25.0544C32.0779 25.3433 31.8465 25.58 31.5614 25.58Z" fill="white"/>
<path fill-rule="evenodd" clip-rule="evenodd" d="M28.242 9.63522C27.9569 9.63522 27.7255 9.40099 27.7255 9.10699C27.7255 8.81555 27.9569 8.58132 28.242 8.58132C28.2931 8.58132 28.3369 8.53649 28.3369 8.48666V1.49839C28.3369 1.44855 28.2931 1.40619 28.242 1.40619H15.9741C15.9254 1.40619 15.884 1.44855 15.884 1.49839V8.48666C15.884 8.53896 15.9254 8.58132 15.9741 8.58132C16.2591 8.58132 16.4905 8.81555 16.4905 9.10699C16.4905 9.40099 16.2591 9.63522 15.9741 9.63522C15.3554 9.63522 14.8535 9.11947 14.8535 8.48912V1.49839C14.8535 0.865576 15.3578 0.352295 15.9741 0.352295H28.242C28.8607 0.352295 29.3674 0.868037 29.3674 1.49839V8.48666C29.3674 9.11947 28.8607 9.63522 28.242 9.63522Z" fill="white"/>
<path fill-rule="evenodd" clip-rule="evenodd" d="M28.4461 11.3368H15.769C15.026 11.3368 14.4219 10.7189 14.4219 9.96153V9.10943C14.4219 8.81799 14.6509 8.5813 14.9359 8.5813H29.2792C29.5642 8.5813 29.7956 8.81799 29.7956 9.10943V9.96153C29.7956 10.7189 29.189 11.3368 28.446 11.3368H28.4461ZM15.4499 9.6352V9.96153C15.4499 10.1359 15.5961 10.2829 15.769 10.2829H28.4461C28.6191 10.2829 28.7628 10.1359 28.7628 9.96153V9.6352H15.4499Z" fill="white"/>
<path fill-rule="evenodd" clip-rule="evenodd" d="M22.0009 44.6467C21.7158 44.6467 21.4844 44.4124 21.4844 44.1185V33.8017C21.4844 33.5102 21.7158 33.2734 22.0009 33.2734C22.2859 33.2734 22.5173 33.5101 22.5173 33.8017V44.121C22.5173 44.4124 22.2858 44.6467 22.0009 44.6467Z" fill="white"/>
<path fill-rule="evenodd" clip-rule="evenodd" d="M19.7447 41.6619C19.6887 41.6619 19.6303 41.652 19.5742 41.632C18.7728 41.348 17.8934 41.348 17.0919 41.632C16.824 41.7292 16.5292 41.5847 16.4367 41.3082C16.3441 41.0341 16.4854 40.7327 16.7533 40.638C17.7716 40.2742 18.8946 40.2742 19.9153 40.638C20.1833 40.7327 20.3246 41.0341 20.232 41.3082C20.1565 41.5249 19.9567 41.6619 19.7447 41.6619ZM27.1088 41.6619C27.0528 41.6619 26.9943 41.652 26.9383 41.632C26.1393 41.348 25.2599 41.348 24.4609 41.632C24.1905 41.7267 23.8958 41.5822 23.8031 41.3082C23.7106 41.0317 23.8519 40.7327 24.1222 40.638C25.1405 40.2742 26.261 40.2742 27.2793 40.638C27.5473 40.7327 27.6885 41.0341 27.596 41.3082C27.5204 41.5249 27.3207 41.6619 27.1088 41.6619ZM19.7447 39.0833C19.6887 39.0833 19.6303 39.0734 19.5742 39.0559C18.7728 38.7694 17.8934 38.7694 17.0919 39.0559C16.824 39.1505 16.5292 39.006 16.4367 38.732C16.3441 38.4555 16.4854 38.1565 16.7533 38.0593C17.7716 37.6981 18.8946 37.6981 19.9153 38.0593C20.1833 38.1564 20.3246 38.4554 20.232 38.732C20.1565 38.9463 19.9567 39.0833 19.7447 39.0833ZM27.1088 39.0833C27.0528 39.0833 26.9943 39.0734 26.9383 39.0534C26.1393 38.7694 25.2599 38.7694 24.4609 39.0534C24.1905 39.1505 23.8958 39.0061 23.8031 38.7295C23.7106 38.4555 23.8519 38.154 24.1222 38.0594C25.1405 37.6956 26.261 37.6956 27.2793 38.0594C27.5473 38.154 27.6885 38.4555 27.596 38.7295C27.5204 38.9487 27.3207 39.0833 27.1088 39.0833ZM27.1088 36.5072C27.0504 36.5072 26.9943 36.4973 26.9383 36.4773C26.1393 36.1908 25.2599 36.1908 24.4609 36.4773C24.1929 36.5745 23.8982 36.43 23.8031 36.1559C23.7106 35.8819 23.8519 35.5804 24.1198 35.4832C25.1381 35.1195 26.2611 35.1195 27.2793 35.4832C27.5473 35.5803 27.6885 35.8819 27.5936 36.1559C27.5204 36.3727 27.3207 36.5072 27.1088 36.5072ZM16.9238 36.5072C16.7118 36.5072 16.512 36.3727 16.4366 36.1559C16.344 35.8819 16.4853 35.5804 16.7533 35.4832C17.7715 35.1195 18.8946 35.1195 19.9152 35.4832C20.1832 35.5803 20.3245 35.8819 20.2295 36.1559C20.137 36.43 19.8422 36.5745 19.5742 36.4798C18.7728 36.1933 17.8934 36.1933 17.0943 36.4798C17.0383 36.4972 16.9798 36.5072 16.9238 36.5072Z" fill="white"/>
</g>
<defs>
<clipPath id="clip0_619_828">
<rect width="44" height="45" fill="white"/>
</clipPath>
</defs>
</svg>
