<svg width="43" height="44" viewBox="0 0 43 44" fill="none" xmlns="http://www.w3.org/2000/svg">
<path d="M40.1396 8.99512C41.3359 8.99527 42.3045 9.9946 42.3047 11.2178V24.6113C42.3046 24.8708 42.0989 25.0859 41.8398 25.0859C41.5809 25.0859 41.3761 24.8707 41.376 24.6113V11.2178C41.3758 10.513 40.8183 9.94449 40.1396 9.94434H37.2246C36.9657 9.94425 36.7609 9.72909 36.7607 9.46973C36.7607 9.21024 36.9656 8.9952 37.2246 8.99512H40.1396Z" fill="white" stroke="white" stroke-width="0.2"/>
<path d="M41.8477 34.1013C42.1067 34.1014 42.3115 34.3165 42.3115 34.5759V36.8689C42.3115 37.8169 41.5614 38.5925 40.6328 38.5925H39.9453C39.6863 38.5924 39.4814 38.3774 39.4814 38.1179C39.4816 37.8586 39.6864 37.6434 39.9453 37.6433H40.6328C41.0438 37.6433 41.3828 37.2984 41.3828 36.8689V34.5759C41.3828 34.3164 41.5885 34.1013 41.8477 34.1013Z" fill="white" stroke="white" stroke-width="0.2"/>
<path d="M4.56445 8.99512C4.82354 8.99512 5.0293 9.21018 5.0293 9.46973C5.02916 9.72915 4.82347 9.94434 4.56445 9.94434H2.26562C1.58684 9.94434 1.02952 10.5129 1.0293 11.2178V33.7061H21.5049C21.7639 33.7062 21.9687 33.9212 21.9688 34.1807C21.9688 34.4401 21.7639 34.6551 21.5049 34.6553H1.0293V36.8691C1.02933 37.2987 1.36831 37.6436 1.7793 37.6436H23.5547C23.8137 37.6436 24.0186 37.8587 24.0186 38.1182C24.0186 38.3777 23.8137 38.5927 23.5547 38.5928H17.7119L15.9844 42.5H26.4268L26.0273 41.5977C25.9228 41.3611 26.0239 41.0801 26.2578 40.9707C26.4934 40.8606 26.7686 40.9684 26.874 41.2061L27.4463 42.5H28.4443C28.7033 42.5002 28.9082 42.7162 28.9082 42.9756C28.908 43.2348 28.7031 43.45 28.4443 43.4502H10.6914C10.4324 43.4502 10.2268 43.2349 10.2266 42.9756C10.2266 42.7161 10.4323 42.5 10.6914 42.5H14.9648L16.6924 38.5928H1.7793C0.850764 38.5928 0.100624 37.8171 0.100586 36.8691V11.2178C0.100805 9.99452 1.06928 8.99512 2.26562 8.99512H4.56445Z" fill="white" stroke="white" stroke-width="0.2"/>
<path d="M30.9668 19.9856C31.4584 19.6736 32.0709 19.6735 32.5625 19.9856L41.624 25.7375C42.0671 26.0188 42.3313 26.5305 42.3174 27.0715C42.2833 28.3939 42.1375 29.6832 41.8848 30.9036C41.7346 31.6288 41.5435 32.3449 41.3164 33.0315C41.1096 33.6567 40.8676 34.2733 40.5977 34.8645C38.2409 40.0249 34.1699 42.4538 32.5273 43.259C32.2854 43.3776 32.025 43.4367 31.7646 43.4368C31.5043 43.4368 31.2439 43.3776 31.002 43.259C29.3594 42.4538 25.2884 40.0249 22.9316 34.8645C22.6617 34.2733 22.4197 33.6567 22.2129 33.0315C21.9858 32.3449 21.7947 31.6287 21.6445 30.9036C21.3919 29.6832 21.246 28.3939 21.2119 27.0715C21.198 26.5305 21.4622 26.0188 21.9053 25.7375L30.9668 19.9856ZM31.7646 20.7024C31.6589 20.7024 31.5524 20.7318 31.457 20.7922L22.3955 26.5442C22.2357 26.6456 22.1353 26.8369 22.1406 27.0461C22.1732 28.3117 22.3118 29.5439 22.5527 30.7073C22.6954 31.3962 22.8774 32.0756 23.0928 32.7268C23.2887 33.3191 23.517 33.9036 23.7725 34.4631C26.0024 39.3461 29.8531 41.6426 31.4033 42.4026C31.6331 42.5152 31.8962 42.5152 32.126 42.4026C33.6763 41.6425 37.5259 39.3457 39.7559 34.4631C40.0113 33.9036 40.2406 33.3191 40.4365 32.7268C40.6518 32.0756 40.8339 31.3962 40.9766 30.7073C41.2175 29.5439 41.3561 28.3117 41.3887 27.0461C41.394 26.8369 41.2936 26.6456 41.1338 26.5442L32.0723 20.7922C31.9769 20.7317 31.8705 20.7024 31.7646 20.7024Z" fill="white" stroke="white" stroke-width="0.2"/>
<path d="M31.2441 22.7942C31.5592 22.5891 31.9662 22.5891 32.2812 22.7942L38.9746 27.1555L39.1016 27.2502C39.3833 27.4919 39.546 27.8632 39.5361 28.2512C39.511 29.2408 39.4043 30.2062 39.2178 31.1204C39.1069 31.6638 38.9655 32.2004 38.7979 32.7151C38.6451 33.184 38.4661 33.6467 38.2666 34.0901C36.4244 38.1839 33.1811 39.9997 32.2275 40.4602C32.0801 40.5314 31.9215 40.5676 31.7627 40.5676C31.6039 40.5676 31.4453 40.5314 31.2979 40.4602C30.3442 39.9996 27.1009 38.1838 25.2588 34.0901C25.0593 33.6468 24.8813 33.184 24.7285 32.7151C24.5608 32.2004 24.4195 31.6639 24.3086 31.1204C24.1221 30.2065 24.0145 29.2412 23.9893 28.2512C23.978 27.808 24.1921 27.387 24.5527 27.1545L31.2441 22.7942ZM31.7402 23.5969L25.0498 27.9563C24.9683 28.0088 24.9152 28.1104 24.918 28.2258C24.9417 29.1599 25.0428 30.0693 25.2178 30.927C25.3214 31.4347 25.453 31.9356 25.6094 32.4153C25.7515 32.8516 25.9172 33.2818 26.1025 33.6936C27.8139 37.4968 30.8177 39.1784 31.6943 39.6018C31.7378 39.6228 31.7876 39.6228 31.8311 39.6018C32.7075 39.1785 35.7114 37.497 37.4229 33.6936C37.6082 33.2817 37.7739 32.8515 37.916 32.4153C38.0723 31.9356 38.204 31.4347 38.3076 30.927C38.4827 30.069 38.5837 29.1597 38.6074 28.2258C38.6103 28.1101 38.5572 28.0087 38.4775 27.9573H38.4766L31.7842 23.5959C31.7734 23.5899 31.7664 23.5891 31.7627 23.5891C31.7588 23.5891 31.7517 23.5902 31.7402 23.5969Z" fill="white" stroke="white" stroke-width="0.2"/>
<mask id="path-6-outside-1_619_739" maskUnits="userSpaceOnUse" x="3.15332" y="-0.800049" width="34" height="32" fill="black">
<rect fill="white" x="3.15332" y="-0.800049" width="34" height="32"/>
<path d="M5.75117 13.5707C4.84278 13.7469 4.15332 14.5685 4.15332 15.553C4.15332 16.1143 4.37414 16.6359 4.76606 17.0159L4.16752 20.8457C4.11597 21.1756 4.20727 21.5106 4.41798 21.7649C4.6287 22.0192 4.93589 22.165 5.26079 22.165H6.97043C7.29531 22.165 7.60252 22.0192 7.81325 21.7649C8.02395 21.5106 8.11524 21.1756 8.06368 20.8457L7.46512 17.0159C7.85706 16.6359 8.0779 16.1143 8.0779 15.5531C8.0779 14.5685 7.38842 13.7469 6.48003 13.5707V8.91201L13.4055 11.6911L13.2619 14.6166C13.2553 14.7503 13.2977 14.8778 13.3807 14.98C12.1617 16.6654 11.4933 18.7234 11.4933 20.833C11.4933 23.1982 12.3231 25.4824 13.8299 27.2647C15.3134 29.0196 17.3536 30.1777 19.578 30.5287C19.5906 30.5321 20.4576 30.6259 20.4654 30.6259C20.656 30.6259 20.8164 30.4734 20.8287 30.275C20.8415 30.0684 20.689 29.8903 20.4882 29.8772C20.2835 29.8638 20.0864 29.8445 19.899 29.8201C18.9066 27.9892 18.3376 26.1636 18.025 24.5182H22.4219C22.6232 24.5182 22.7863 24.3504 22.7863 24.1435C22.7863 23.9365 22.6232 23.7688 22.4219 23.7688H17.8974C17.7332 22.6734 17.6785 21.6769 17.6785 20.838C17.6785 19.8616 17.7544 18.8751 17.9028 17.897H24.1701C24.3181 18.8717 24.3933 19.8537 24.3933 20.828C24.3933 21.4436 24.3629 22.0725 24.3028 22.6972C24.2541 23.2037 24.9812 23.2585 25.0281 22.771C25.0905 22.1219 25.1222 21.4682 25.1222 20.828C25.1222 19.8534 25.0489 18.8718 24.9066 17.8969H29.3739C29.5241 18.3478 29.6402 18.8111 29.719 19.2827C29.7984 19.7579 30.5223 19.6639 30.4373 19.1557C30.1852 17.648 29.586 16.2178 28.6976 14.9873C28.7858 14.8838 28.831 14.7527 28.8242 14.6151L28.6878 11.8345L35.8402 9.15836C36.1276 9.04952 36.3168 8.783 36.334 8.4628C36.3511 8.14534 36.1861 7.84971 35.914 7.70982L21.7075 0.385418C21.2384 0.142587 20.6985 0.138013 20.2261 0.372853L6.17827 7.36581C5.91316 7.4989 5.74899 7.78126 5.75342 8.08925C5.75293 8.09719 5.75121 8.10478 5.75121 8.11286V13.5707H5.75117ZM7.34904 15.553C7.34904 15.9545 7.16859 16.324 6.85394 16.5668C6.74573 16.6503 6.69141 16.7886 6.71288 16.926L7.34405 20.9646C7.36195 21.079 7.33153 21.1906 7.25845 21.2788C7.18541 21.367 7.0831 21.4155 6.97041 21.4155H5.26077C5.1481 21.4155 5.0458 21.367 4.9727 21.2788C4.89962 21.1906 4.8692 21.079 4.8871 20.9646L5.51828 16.926C5.53975 16.7886 5.48545 16.6503 5.37724 16.5668C5.0626 16.324 4.88215 15.9545 4.88215 15.553C4.88215 14.8537 5.43545 14.2847 6.11558 14.2847C6.79573 14.2847 7.34904 14.8537 7.34904 15.553ZM21.1567 14.441C18.0111 14.441 15.0301 14.441 14.0003 14.4398L14.3162 8.00176C14.3295 7.70433 14.5706 7.45031 14.9026 7.38402C16.0734 7.15027 18.4428 6.75809 21.1566 6.75809C23.8642 6.75809 26.1 7.14371 27.1917 7.37356C27.5187 7.44243 27.7562 7.69574 27.7693 7.98959C27.7694 7.99016 27.7694 7.99073 27.7694 7.9913L28.0858 14.4385C27.1154 14.441 24.3401 14.441 21.1567 14.441ZM12.9866 17.1475C13.2883 16.4504 13.6759 15.7918 14.1426 15.1894C14.8328 15.19 16.1492 15.1903 17.7469 15.1904C17.5617 15.8282 17.4078 16.4841 17.2883 17.1475H12.9866ZM18.9818 29.6448C16.2915 28.9811 14.098 27.0358 12.9949 24.5182H17.2832C17.5734 26.1075 18.0924 27.8657 18.9818 29.6448ZM17.1607 23.7687H12.7049C12.392 22.8425 12.2221 21.8536 12.2221 20.833C12.2221 19.8281 12.3875 18.8362 12.7005 17.8969H17.1658C17.0231 18.8748 16.9496 19.8612 16.9496 20.838C16.9497 21.6802 17.0031 22.6755 17.1607 23.7687ZM18.0301 17.1475C18.1551 16.4819 18.3152 15.8256 18.5079 15.1904C19.3482 15.1904 20.2453 15.1904 21.1567 15.1904C21.9951 15.1904 22.8051 15.1904 23.5615 15.1904C23.7298 15.7498 24.0225 17.0528 24.0406 17.1475H18.0301ZM24.7836 17.1475C24.7567 17.0012 24.4695 15.6986 24.3226 15.1904C25.9445 15.1901 27.2449 15.1896 27.929 15.1883C28.3957 15.7906 28.7843 16.4496 29.0867 17.1475H24.7836ZM20.5435 1.04751C20.81 0.915006 21.1149 0.917734 21.3803 1.05512C21.3803 1.05512 35.5924 8.45357 35.5896 8.45461L28.6493 11.0514L28.4973 7.95362C28.4681 7.31733 27.9916 6.77702 27.3379 6.63936C26.2192 6.40381 23.9285 6.00864 21.1566 6.00864C18.3818 6.00864 15.9602 6.40942 14.7637 6.64833C14.1003 6.78077 13.6169 7.32321 13.5883 7.9657L13.4441 10.9021L6.49856 8.11496C6.48762 8.1106 20.5435 1.04751 20.5435 1.04751Z"/>
</mask>
<path d="M5.75117 13.5707C4.84278 13.7469 4.15332 14.5685 4.15332 15.553C4.15332 16.1143 4.37414 16.6359 4.76606 17.0159L4.16752 20.8457C4.11597 21.1756 4.20727 21.5106 4.41798 21.7649C4.6287 22.0192 4.93589 22.165 5.26079 22.165H6.97043C7.29531 22.165 7.60252 22.0192 7.81325 21.7649C8.02395 21.5106 8.11524 21.1756 8.06368 20.8457L7.46512 17.0159C7.85706 16.6359 8.0779 16.1143 8.0779 15.5531C8.0779 14.5685 7.38842 13.7469 6.48003 13.5707V8.91201L13.4055 11.6911L13.2619 14.6166C13.2553 14.7503 13.2977 14.8778 13.3807 14.98C12.1617 16.6654 11.4933 18.7234 11.4933 20.833C11.4933 23.1982 12.3231 25.4824 13.8299 27.2647C15.3134 29.0196 17.3536 30.1777 19.578 30.5287C19.5906 30.5321 20.4576 30.6259 20.4654 30.6259C20.656 30.6259 20.8164 30.4734 20.8287 30.275C20.8415 30.0684 20.689 29.8903 20.4882 29.8772C20.2835 29.8638 20.0864 29.8445 19.899 29.8201C18.9066 27.9892 18.3376 26.1636 18.025 24.5182H22.4219C22.6232 24.5182 22.7863 24.3504 22.7863 24.1435C22.7863 23.9365 22.6232 23.7688 22.4219 23.7688H17.8974C17.7332 22.6734 17.6785 21.6769 17.6785 20.838C17.6785 19.8616 17.7544 18.8751 17.9028 17.897H24.1701C24.3181 18.8717 24.3933 19.8537 24.3933 20.828C24.3933 21.4436 24.3629 22.0725 24.3028 22.6972C24.2541 23.2037 24.9812 23.2585 25.0281 22.771C25.0905 22.1219 25.1222 21.4682 25.1222 20.828C25.1222 19.8534 25.0489 18.8718 24.9066 17.8969H29.3739C29.5241 18.3478 29.6402 18.8111 29.719 19.2827C29.7984 19.7579 30.5223 19.6639 30.4373 19.1557C30.1852 17.648 29.586 16.2178 28.6976 14.9873C28.7858 14.8838 28.831 14.7527 28.8242 14.6151L28.6878 11.8345L35.8402 9.15836C36.1276 9.04952 36.3168 8.783 36.334 8.4628C36.3511 8.14534 36.1861 7.84971 35.914 7.70982L21.7075 0.385418C21.2384 0.142587 20.6985 0.138013 20.2261 0.372853L6.17827 7.36581C5.91316 7.4989 5.74899 7.78126 5.75342 8.08925C5.75293 8.09719 5.75121 8.10478 5.75121 8.11286V13.5707H5.75117ZM7.34904 15.553C7.34904 15.9545 7.16859 16.324 6.85394 16.5668C6.74573 16.6503 6.69141 16.7886 6.71288 16.926L7.34405 20.9646C7.36195 21.079 7.33153 21.1906 7.25845 21.2788C7.18541 21.367 7.0831 21.4155 6.97041 21.4155H5.26077C5.1481 21.4155 5.0458 21.367 4.9727 21.2788C4.89962 21.1906 4.8692 21.079 4.8871 20.9646L5.51828 16.926C5.53975 16.7886 5.48545 16.6503 5.37724 16.5668C5.0626 16.324 4.88215 15.9545 4.88215 15.553C4.88215 14.8537 5.43545 14.2847 6.11558 14.2847C6.79573 14.2847 7.34904 14.8537 7.34904 15.553ZM21.1567 14.441C18.0111 14.441 15.0301 14.441 14.0003 14.4398L14.3162 8.00176C14.3295 7.70433 14.5706 7.45031 14.9026 7.38402C16.0734 7.15027 18.4428 6.75809 21.1566 6.75809C23.8642 6.75809 26.1 7.14371 27.1917 7.37356C27.5187 7.44243 27.7562 7.69574 27.7693 7.98959C27.7694 7.99016 27.7694 7.99073 27.7694 7.9913L28.0858 14.4385C27.1154 14.441 24.3401 14.441 21.1567 14.441ZM12.9866 17.1475C13.2883 16.4504 13.6759 15.7918 14.1426 15.1894C14.8328 15.19 16.1492 15.1903 17.7469 15.1904C17.5617 15.8282 17.4078 16.4841 17.2883 17.1475H12.9866ZM18.9818 29.6448C16.2915 28.9811 14.098 27.0358 12.9949 24.5182H17.2832C17.5734 26.1075 18.0924 27.8657 18.9818 29.6448ZM17.1607 23.7687H12.7049C12.392 22.8425 12.2221 21.8536 12.2221 20.833C12.2221 19.8281 12.3875 18.8362 12.7005 17.8969H17.1658C17.0231 18.8748 16.9496 19.8612 16.9496 20.838C16.9497 21.6802 17.0031 22.6755 17.1607 23.7687ZM18.0301 17.1475C18.1551 16.4819 18.3152 15.8256 18.5079 15.1904C19.3482 15.1904 20.2453 15.1904 21.1567 15.1904C21.9951 15.1904 22.8051 15.1904 23.5615 15.1904C23.7298 15.7498 24.0225 17.0528 24.0406 17.1475H18.0301ZM24.7836 17.1475C24.7567 17.0012 24.4695 15.6986 24.3226 15.1904C25.9445 15.1901 27.2449 15.1896 27.929 15.1883C28.3957 15.7906 28.7843 16.4496 29.0867 17.1475H24.7836ZM20.5435 1.04751C20.81 0.915006 21.1149 0.917734 21.3803 1.05512C21.3803 1.05512 35.5924 8.45357 35.5896 8.45461L28.6493 11.0514L28.4973 7.95362C28.4681 7.31733 27.9916 6.77702 27.3379 6.63936C26.2192 6.40381 23.9285 6.00864 21.1566 6.00864C18.3818 6.00864 15.9602 6.40942 14.7637 6.64833C14.1003 6.78077 13.6169 7.32321 13.5883 7.9657L13.4441 10.9021L6.49856 8.11496C6.48762 8.1106 20.5435 1.04751 20.5435 1.04751Z" fill="white"/>
<path d="M5.75117 13.5707C4.84278 13.7469 4.15332 14.5685 4.15332 15.553C4.15332 16.1143 4.37414 16.6359 4.76606 17.0159L4.16752 20.8457C4.11597 21.1756 4.20727 21.5106 4.41798 21.7649C4.6287 22.0192 4.93589 22.165 5.26079 22.165H6.97043C7.29531 22.165 7.60252 22.0192 7.81325 21.7649C8.02395 21.5106 8.11524 21.1756 8.06368 20.8457L7.46512 17.0159C7.85706 16.6359 8.0779 16.1143 8.0779 15.5531C8.0779 14.5685 7.38842 13.7469 6.48003 13.5707V8.91201L13.4055 11.6911L13.2619 14.6166C13.2553 14.7503 13.2977 14.8778 13.3807 14.98C12.1617 16.6654 11.4933 18.7234 11.4933 20.833C11.4933 23.1982 12.3231 25.4824 13.8299 27.2647C15.3134 29.0196 17.3536 30.1777 19.578 30.5287C19.5906 30.5321 20.4576 30.6259 20.4654 30.6259C20.656 30.6259 20.8164 30.4734 20.8287 30.275C20.8415 30.0684 20.689 29.8903 20.4882 29.8772C20.2835 29.8638 20.0864 29.8445 19.899 29.8201C18.9066 27.9892 18.3376 26.1636 18.025 24.5182H22.4219C22.6232 24.5182 22.7863 24.3504 22.7863 24.1435C22.7863 23.9365 22.6232 23.7688 22.4219 23.7688H17.8974C17.7332 22.6734 17.6785 21.6769 17.6785 20.838C17.6785 19.8616 17.7544 18.8751 17.9028 17.897H24.1701C24.3181 18.8717 24.3933 19.8537 24.3933 20.828C24.3933 21.4436 24.3629 22.0725 24.3028 22.6972C24.2541 23.2037 24.9812 23.2585 25.0281 22.771C25.0905 22.1219 25.1222 21.4682 25.1222 20.828C25.1222 19.8534 25.0489 18.8718 24.9066 17.8969H29.3739C29.5241 18.3478 29.6402 18.8111 29.719 19.2827C29.7984 19.7579 30.5223 19.6639 30.4373 19.1557C30.1852 17.648 29.586 16.2178 28.6976 14.9873C28.7858 14.8838 28.831 14.7527 28.8242 14.6151L28.6878 11.8345L35.8402 9.15836C36.1276 9.04952 36.3168 8.783 36.334 8.4628C36.3511 8.14534 36.1861 7.84971 35.914 7.70982L21.7075 0.385418C21.2384 0.142587 20.6985 0.138013 20.2261 0.372853L6.17827 7.36581C5.91316 7.4989 5.74899 7.78126 5.75342 8.08925C5.75293 8.09719 5.75121 8.10478 5.75121 8.11286V13.5707H5.75117ZM7.34904 15.553C7.34904 15.9545 7.16859 16.324 6.85394 16.5668C6.74573 16.6503 6.69141 16.7886 6.71288 16.926L7.34405 20.9646C7.36195 21.079 7.33153 21.1906 7.25845 21.2788C7.18541 21.367 7.0831 21.4155 6.97041 21.4155H5.26077C5.1481 21.4155 5.0458 21.367 4.9727 21.2788C4.89962 21.1906 4.8692 21.079 4.8871 20.9646L5.51828 16.926C5.53975 16.7886 5.48545 16.6503 5.37724 16.5668C5.0626 16.324 4.88215 15.9545 4.88215 15.553C4.88215 14.8537 5.43545 14.2847 6.11558 14.2847C6.79573 14.2847 7.34904 14.8537 7.34904 15.553ZM21.1567 14.441C18.0111 14.441 15.0301 14.441 14.0003 14.4398L14.3162 8.00176C14.3295 7.70433 14.5706 7.45031 14.9026 7.38402C16.0734 7.15027 18.4428 6.75809 21.1566 6.75809C23.8642 6.75809 26.1 7.14371 27.1917 7.37356C27.5187 7.44243 27.7562 7.69574 27.7693 7.98959C27.7694 7.99016 27.7694 7.99073 27.7694 7.9913L28.0858 14.4385C27.1154 14.441 24.3401 14.441 21.1567 14.441ZM12.9866 17.1475C13.2883 16.4504 13.6759 15.7918 14.1426 15.1894C14.8328 15.19 16.1492 15.1903 17.7469 15.1904C17.5617 15.8282 17.4078 16.4841 17.2883 17.1475H12.9866ZM18.9818 29.6448C16.2915 28.9811 14.098 27.0358 12.9949 24.5182H17.2832C17.5734 26.1075 18.0924 27.8657 18.9818 29.6448ZM17.1607 23.7687H12.7049C12.392 22.8425 12.2221 21.8536 12.2221 20.833C12.2221 19.8281 12.3875 18.8362 12.7005 17.8969H17.1658C17.0231 18.8748 16.9496 19.8612 16.9496 20.838C16.9497 21.6802 17.0031 22.6755 17.1607 23.7687ZM18.0301 17.1475C18.1551 16.4819 18.3152 15.8256 18.5079 15.1904C19.3482 15.1904 20.2453 15.1904 21.1567 15.1904C21.9951 15.1904 22.8051 15.1904 23.5615 15.1904C23.7298 15.7498 24.0225 17.0528 24.0406 17.1475H18.0301ZM24.7836 17.1475C24.7567 17.0012 24.4695 15.6986 24.3226 15.1904C25.9445 15.1901 27.2449 15.1896 27.929 15.1883C28.3957 15.7906 28.7843 16.4496 29.0867 17.1475H24.7836ZM20.5435 1.04751C20.81 0.915006 21.1149 0.917734 21.3803 1.05512C21.3803 1.05512 35.5924 8.45357 35.5896 8.45461L28.6493 11.0514L28.4973 7.95362C28.4681 7.31733 27.9916 6.77702 27.3379 6.63936C26.2192 6.40381 23.9285 6.00864 21.1566 6.00864C18.3818 6.00864 15.9602 6.40942 14.7637 6.64833C14.1003 6.78077 13.6169 7.32321 13.5883 7.9657L13.4441 10.9021L6.49856 8.11496C6.48762 8.1106 20.5435 1.04751 20.5435 1.04751Z" stroke="white" stroke-width="0.4" mask="url(#path-6-outside-1_619_739)"/>
</svg>
