<svg width="47" height="45" viewBox="0 0 47 45" fill="none" xmlns="http://www.w3.org/2000/svg">
<g clip-path="url(#clip0_619_859)">
<path d="M42.4706 16.1923C41.1176 16.3351 40.1206 17.6201 40.3342 18.9765L41.3312 26.4723C41.4024 26.9006 41.26 27.3289 40.9751 27.6145L37.9842 30.6842C37.7706 30.8984 37.4145 30.8984 37.2009 30.7556C36.916 30.5414 36.916 30.1845 37.1297 29.8989L38.0554 28.9709C39.1948 27.7573 38.9812 25.9012 37.6994 24.9731C36.8448 24.3306 35.6342 24.4734 34.8509 25.2587L29.0115 31.6123C28.2994 32.3975 27.9433 33.397 27.9433 34.4678V39.3222H27.516C26.7327 39.3222 26.0918 39.9647 26.0918 40.75V43.7483C26.0918 44.5336 26.7327 45.1761 27.516 45.1761H38.5539C39.3372 45.1761 39.9782 44.5336 39.9782 43.7483V40.75C39.9782 39.9647 39.3372 39.3222 38.5539 39.3222H37.6994C37.7706 39.0367 37.4857 37.7517 38.5539 36.6809L45.3903 30.3987C46.0312 29.8275 46.3872 28.8995 46.2448 28.0428L45.1766 18.4053C45.0342 17.049 43.8236 16.0495 42.4706 16.1923ZM38.4827 43.677H27.4448V40.6786H38.4827V43.677ZM44.3933 29.3278L37.5569 35.61C35.9191 37.1092 36.2751 39.0367 36.2039 39.2509H29.2963V34.3964C29.2963 33.6825 29.5812 33.04 30.0085 32.5403L35.8479 26.1867C36.0615 25.9012 36.4888 25.9012 36.7736 26.1153C37.4145 26.5437 37.4857 27.4717 36.9872 27.9714L36.0615 28.8995C35.2782 29.7562 35.3494 31.1125 36.2039 31.8264C36.9873 32.4689 38.1979 32.3975 38.91 31.6837L41.9009 28.6139C42.4706 27.9714 42.7554 27.1148 42.6842 26.2581L41.6872 18.7623C41.616 18.1912 42.0433 17.6915 42.613 17.6201C43.1827 17.5487 43.6812 17.977 43.7524 18.5481L44.8206 28.1856C44.8918 28.6139 44.6782 29.0423 44.3933 29.3278Z" fill="white"/>
<path d="M19.4689 39.2509H19.0416V34.3964C19.0416 33.3256 18.6143 32.3262 17.9022 31.5409L12.0628 25.1873C11.3507 24.402 10.1401 24.2592 9.21434 24.9017C7.86131 25.8298 7.71888 27.7573 8.85828 28.8995C9.07192 29.2565 10.4249 30.0417 9.71282 30.6842C9.49919 30.8984 9.14313 30.827 8.92949 30.6128L5.93858 27.5431C5.65373 27.2576 5.51131 26.8292 5.58252 26.4009L6.57949 18.9765C6.79313 17.6201 5.79616 16.3351 4.44313 16.1923C3.0901 16.0495 1.87949 17.049 1.73707 18.334L0.668885 27.9715C0.597673 28.8281 0.882521 29.7562 1.52343 30.3273L8.35979 36.6095C8.92949 37.1092 9.21434 37.8945 9.21434 38.6084V39.1795H8.35979C7.57646 39.1795 6.93555 39.822 6.93555 40.6073V43.6056C6.93555 44.3909 7.57646 45.0334 8.35979 45.0334H19.3977C20.181 45.0334 20.8219 44.3909 20.8219 43.6056V40.6073C20.8931 39.8934 20.2522 39.2509 19.4689 39.2509ZM9.35676 35.61L2.5204 29.3278C2.23555 29.0423 2.02192 28.614 2.09313 28.1856L3.16131 18.5481C3.16131 17.977 3.73101 17.5487 4.22949 17.6201C4.79919 17.6915 5.22646 18.1912 5.15525 18.7623L4.15828 26.2581C4.01585 27.1148 4.3007 27.9715 4.94161 28.614L7.93252 31.6837C8.64464 32.3976 9.85525 32.4689 10.6386 31.8264C11.5643 31.1126 11.6356 29.7562 10.781 28.8995L9.92646 27.9715C9.42798 27.4003 9.49919 26.5437 10.1401 26.1153C10.4249 25.9012 10.8522 25.9726 11.0659 26.1867L16.9052 32.5403C17.4037 33.0401 17.6174 33.6826 17.6174 34.3964V39.2509H10.7098V38.6798C10.7098 37.4662 10.2113 36.3953 9.35676 35.61ZM8.43101 43.677V40.6786H19.4689V43.677H8.43101Z" fill="white"/>
<path d="M36.4894 14.6932C36.4894 13.0512 36.2046 11.4807 35.6349 10.0529C37.2728 9.33902 41.1894 7.6257 43.7531 6.55486C45.8182 5.62681 46.9576 3.34237 45.8894 1.55765C44.8212 -0.298456 42.2576 -0.441233 40.4773 0.915153C38.1985 2.62848 34.7803 5.19848 33.3561 6.26931C30.9349 3.41376 27.3743 1.62904 23.4576 1.62904C16.2652 1.62904 10.4258 7.48292 10.4258 14.6932C10.4258 21.9034 16.2652 27.7573 23.4576 27.7573C30.65 27.6859 36.4894 21.9034 36.4894 14.6932ZM41.3318 1.98598C42.4 1.20071 44.0379 1.12932 44.6076 2.20015C45.2485 3.27098 44.3228 4.62737 43.1834 5.19848C40.6197 6.3407 36.7031 7.98264 35.0652 8.69653C34.7803 8.19681 34.5667 7.76847 34.2106 7.26875C35.6349 6.26931 39.0531 3.69931 41.3318 1.98598ZM23.4576 26.2582C17.0485 26.2582 11.85 21.0468 11.85 14.6218C11.85 8.26819 17.0485 3.05681 23.4576 3.05681C29.8667 3.05681 35.0652 8.26819 35.0652 14.6932C35.0652 21.1182 29.8667 26.2582 23.4576 26.2582Z" fill="white"/>
<path d="M22.6735 6.98315C19.825 7.3401 17.4038 9.62454 17.0477 12.4801C16.7629 14.6931 17.5462 16.9062 19.1841 18.334C20.7508 19.6903 20.1811 21.6892 20.2523 22.6887C20.2523 23.474 20.8932 24.1165 21.6765 24.1165H25.1659C25.9492 24.1165 26.5901 23.474 26.5901 22.6887C26.7326 21.6178 26.0917 19.7617 27.8008 18.1912C29.1538 16.9776 29.9371 15.1929 29.9371 13.4081C29.9371 9.55315 26.5901 6.48343 22.6735 6.98315ZM21.6765 22.6887V21.5465H25.1659V22.6887H21.6765ZM26.875 17.1917C26.0204 17.977 25.4508 19.0479 25.2371 20.1901H24.1689V14.9787C24.525 14.8359 24.8811 14.6931 25.1659 14.4076C25.4508 14.122 25.4508 13.6937 25.1659 13.4081C24.8811 13.1226 24.4538 13.1226 24.1689 13.4081C23.8129 13.7651 23.1008 13.7651 22.7447 13.4081C22.4598 13.1226 22.0326 13.1226 21.7477 13.4081C21.4629 13.6937 21.4629 14.122 21.7477 14.4076C22.0326 14.6931 22.3886 14.9073 22.7447 14.9787V20.1901H21.6765C21.5341 19.0479 20.9644 18.0484 20.1098 17.2631C18.828 16.1209 18.1871 14.4076 18.4008 12.6943C18.6856 10.4812 20.6083 8.69648 22.8159 8.41093C25.878 8.05399 28.5129 10.4812 28.5129 13.4795C28.5129 14.8359 27.9432 16.1923 26.875 17.1917Z" fill="white"/>
</g>
<defs>
<clipPath id="clip0_619_859">
<rect width="47" height="45" fill="white"/>
</clipPath>
</defs>
</svg>
