<svg width="40" height="45" viewBox="0 0 40 45" fill="none" xmlns="http://www.w3.org/2000/svg">
<g clip-path="url(#clip0_619_756)">
<path d="M36.9584 28.8548V16.3794C36.8963 16.3725 36.8412 16.3586 36.7791 16.3517C38.3308 16.1025 39.5239 14.7594 39.5239 13.1325C39.5239 11.3255 38.0619 9.85784 36.2619 9.85784C35.2963 9.85784 34.4412 10.2871 33.8481 10.9586L23.0894 4.72091C23.1929 4.40938 23.2619 4.07707 23.2619 3.73091C23.2619 1.92399 21.7998 0.456299 19.9998 0.456299C18.1998 0.456299 16.7377 1.92399 16.7377 3.73091C16.7377 4.07707 16.8067 4.40938 16.9101 4.72091L6.14461 10.9586C5.54461 10.2871 4.68944 9.85784 3.73082 9.85784C1.93082 9.85784 0.46875 11.3255 0.46875 13.1325C0.46875 14.6971 1.5722 16.0055 3.04116 16.324V28.8478C1.5722 29.1663 0.46875 30.4748 0.46875 32.0394C0.46875 33.8463 1.93082 35.314 3.73082 35.314C4.69634 35.314 5.55151 34.8848 6.14461 34.2201L16.9101 40.4578C16.8067 40.7694 16.7377 41.1017 16.7377 41.4478C16.7377 43.2548 18.1998 44.7225 19.9998 44.7225C21.7998 44.7225 23.2619 43.2548 23.2619 41.4478C23.2619 41.1017 23.1929 40.7694 23.0894 40.4578L33.855 34.2201C34.455 34.8917 35.3101 35.3209 36.2687 35.3209C38.0688 35.3209 39.5308 33.8532 39.5308 32.0463C39.5308 30.4817 38.4274 29.1732 36.9584 28.8548ZM36.2687 11.2425C37.3032 11.2425 38.1515 12.0871 38.1515 13.1325C38.1515 14.1778 37.3101 15.0225 36.2687 15.0225C35.2343 15.0225 34.386 14.1778 34.386 13.1325C34.386 12.0871 35.2343 11.2425 36.2687 11.2425ZM19.9998 1.84091C21.0343 1.84091 21.8825 2.68553 21.8825 3.73091C21.8825 4.7763 21.0343 5.61399 19.9998 5.61399C18.9653 5.61399 18.117 4.76938 18.117 3.72399C18.117 2.67861 18.9653 1.84091 19.9998 1.84091ZM1.84806 13.1325C1.84806 12.094 2.68944 11.2425 3.73082 11.2425C4.7653 11.2425 5.61358 12.0871 5.61358 13.1325C5.61358 14.1778 4.7722 15.0225 3.73082 15.0225C2.68944 15.0225 1.84806 14.1709 1.84806 13.1325ZM3.73082 33.9363C2.69634 33.9363 1.84806 33.0917 1.84806 32.0463C1.84806 31.0078 2.68944 30.1563 3.73082 30.1563C4.7653 30.1563 5.61358 31.0009 5.61358 32.0463C5.60668 33.0848 4.7653 33.9363 3.73082 33.9363ZM19.9998 43.3378C18.9653 43.3378 18.117 42.4932 18.117 41.4478C18.117 40.4094 18.9584 39.5578 19.9998 39.5578C21.0343 39.5578 21.8825 40.4025 21.8825 41.4478C21.8825 42.4932 21.0343 43.3378 19.9998 43.3378ZM22.3998 39.2601C21.7998 38.6025 20.9515 38.1801 19.9998 38.1801C19.0481 38.1801 18.1929 38.6025 17.5998 39.2601L6.82737 33.0155C6.92392 32.704 6.99289 32.3855 6.99289 32.0463C6.99289 30.4817 5.88944 29.1732 4.42047 28.8548V16.324C5.88944 16.0055 6.99289 14.6971 6.99289 13.1325C6.99289 12.7932 6.92392 12.4748 6.82737 12.1632L17.5998 5.91861C18.1929 6.5763 19.0481 6.99861 19.9998 6.99861C20.9515 6.99861 21.8067 6.5763 22.3998 5.91861L33.1722 12.1632C33.0756 12.4748 33.0067 12.7932 33.0067 13.1325C33.0067 14.6971 34.1101 16.0055 35.5791 16.324V28.8478C34.1101 29.1663 33.0067 30.4748 33.0067 32.0394C33.0067 32.3786 33.0756 32.6971 33.1722 33.0086L22.3998 39.2601ZM36.2687 33.9363C35.2343 33.9363 34.386 33.0917 34.386 32.0463C34.386 31.0078 35.2274 30.1563 36.2687 30.1563C37.3032 30.1563 38.1515 31.0009 38.1515 32.0463C38.1515 33.0848 37.3101 33.9363 36.2687 33.9363Z" fill="white"/>
<path d="M29.1173 13.4369C28.538 12.8553 27.9035 12.3292 27.2277 11.8653C23.8966 9.60147 19.6277 9.03378 15.807 10.3492C13.938 10.9861 12.2828 12.0245 10.8759 13.4369C8.44834 15.8807 7.10352 19.1276 7.10352 22.5892C7.10352 26.0507 8.44145 29.2976 10.8828 31.7415C11.2001 32.0599 11.538 32.3645 11.8966 32.6553C14.1656 34.5038 17.0414 35.5215 19.9863 35.5284H20.007C23.4483 35.5284 26.6828 34.1853 29.1242 31.7345C29.6483 31.2084 30.1311 30.6269 30.5656 30.0176C32.5242 27.2138 33.3035 23.6692 32.6966 20.2838C32.2277 17.6876 30.9932 15.313 29.1173 13.4369ZM31.2139 19.9861C31.0828 20.0276 30.9587 20.0553 30.8346 20.0622C30.4414 20.0761 30.0208 19.8961 29.6483 19.723C28.938 19.3976 28.2552 19.0307 27.6139 18.6361C27.469 18.5461 27.1932 18.373 27.138 18.2345C27.1035 18.1307 27.1311 17.9438 27.1587 17.743C27.2001 17.473 27.2414 17.1753 27.1863 16.843C27.069 16.1092 26.4966 15.4999 25.5863 15.1192C25.4345 15.0569 25.2828 14.9945 25.1311 14.9392C24.7656 14.8007 24.4277 14.6761 24.1932 14.4753C24.069 14.3645 23.9725 14.1776 23.9725 14.0253C23.9725 13.9976 23.9725 13.9422 23.9932 13.9215C24.0828 13.8315 24.4139 13.8592 24.7104 13.8799C24.9449 13.9007 25.2139 13.9215 25.4759 13.9007C25.9725 13.8592 26.4483 13.6653 26.8897 13.3192C27.3311 13.6515 27.7587 14.0045 28.1518 14.3992C29.6828 15.9569 30.7311 17.8745 31.2139 19.9861ZM11.8552 14.413C13.0346 13.2292 14.4208 12.3499 15.9656 11.7753C16.1311 11.8722 16.2828 11.9692 16.3794 12.073C16.7104 12.4469 16.5311 13.2292 16.3035 13.9422C16.1311 14.4961 15.607 16.1784 16.7104 17.1684C16.8621 17.3069 17.0621 17.3622 17.2621 17.3345C17.2828 17.3761 17.2897 17.4245 17.2897 17.4522C17.2414 17.653 17.0621 17.8745 16.8759 18.1099C16.7794 18.2345 16.6759 18.3522 16.5863 18.4769C15.869 19.4807 15.6828 20.8238 16.1104 21.973C16.1863 22.1876 16.2897 22.4022 16.3932 22.6169C16.5932 23.0392 16.7656 23.3992 16.7035 23.6969C16.6552 23.9253 16.3863 24.1399 16.1518 24.1192C15.9173 24.1053 15.6828 23.8769 15.6621 23.6415C15.6414 23.4199 15.5173 23.2192 15.3311 23.1015C15.0277 22.9215 14.669 22.9007 14.338 23.053C13.8552 23.2815 13.5656 23.8076 13.4966 24.2369L13.469 24.4515C13.4552 24.5553 13.4346 24.7215 13.407 24.8115C13.3242 24.7907 13.207 24.7492 13.1173 24.7215C12.7518 24.5969 12.2552 24.4169 11.7311 24.6661C11.3656 24.8392 11.1173 25.1784 11.0414 25.5938C10.9449 26.113 11.1311 26.7015 11.5173 27.103C11.7725 27.3592 12.0621 27.5322 12.3173 27.6915C12.5035 27.8022 12.6759 27.9061 12.807 28.0238C13.3173 28.4876 13.2897 29.3461 13.0552 29.9415C12.8897 30.3707 12.6208 30.7515 12.2759 31.153C12.1311 31.0215 11.9932 30.8899 11.8621 30.7584C9.68283 28.5776 8.48283 25.6769 8.48283 22.5892C8.48283 19.5015 9.68283 16.6007 11.8552 14.413ZM28.1449 30.7653C26.2001 32.7176 23.6759 33.8807 20.9656 34.1022C21.0483 33.943 21.1449 33.7907 21.2552 33.6453C21.807 33.0015 22.3725 32.3576 22.9311 31.7207L24.7035 29.7061C25.1518 29.983 25.7518 29.9276 26.1311 29.5469C26.1656 29.5122 26.2346 29.443 26.2828 29.3599C26.5656 28.9169 26.7725 28.4115 26.8897 27.8853C27.3449 28.0445 27.8139 28.2315 28.2208 28.4876C28.669 28.7645 29.007 29.1315 29.207 29.5122C28.8759 29.9622 28.5242 30.3776 28.1449 30.7653ZM30.0345 28.2661C29.7449 27.913 29.3863 27.5876 28.9587 27.3245C28.3518 26.9369 27.6897 26.6945 27.0621 26.4869C26.7449 26.383 26.3932 26.4315 26.1104 26.6045C25.8208 26.7845 25.6277 27.0822 25.5725 27.4215C25.5173 27.7538 25.407 28.0792 25.2483 28.3907C25.0621 28.2799 24.8414 28.2315 24.6277 28.2384C24.3104 28.2522 24.0277 28.3907 23.8139 28.6261L21.9035 30.7999C21.338 31.4438 20.7725 32.0876 20.1863 32.7661C19.8621 33.1884 19.6139 33.6592 19.4552 34.123C17.2552 34.0192 15.1311 33.2853 13.3449 32.0184C13.738 31.5545 14.0966 31.0492 14.3242 30.4538C14.7449 29.3945 14.7173 27.913 13.7242 26.9992C13.4966 26.7915 13.2414 26.6322 13.0139 26.5007C12.8139 26.3761 12.6208 26.2653 12.4966 26.1338C12.4483 26.0853 12.4139 26.0092 12.4001 25.9468C12.4759 25.9676 12.5794 26.0022 12.6552 26.0299C13.0139 26.1545 13.5587 26.3484 14.0966 26.0438C14.5794 25.7669 14.7242 25.2892 14.7932 24.8945C15.1242 25.2476 15.5725 25.4761 16.069 25.5038C16.9932 25.5522 17.869 24.8807 18.0483 23.9738C18.2001 23.2261 17.8966 22.5892 17.6346 22.0284C17.5518 21.8553 17.469 21.6753 17.4001 21.5022C17.138 20.7822 17.2552 19.9169 17.7035 19.2869C17.7794 19.183 17.8552 19.0861 17.938 18.9892C18.207 18.6569 18.5104 18.283 18.6277 17.7707C18.7587 17.2307 18.5518 16.6145 18.1311 16.2407C17.938 16.0745 17.7173 15.9707 17.4897 15.943C17.3173 15.5484 17.4552 14.8907 17.6208 14.3645C17.8345 13.6861 18.2483 12.3222 17.5173 11.3184C18.338 11.1384 19.1656 11.0415 19.9932 11.0415C21.9449 11.0415 23.8759 11.5399 25.5932 12.4953C25.5173 12.523 25.4345 12.5369 25.3518 12.5438C25.2001 12.5576 25.0139 12.5438 24.8139 12.523C24.2828 12.4815 23.5518 12.4192 23.007 12.9661C22.7173 13.2569 22.5656 13.6584 22.5794 14.0945C22.6001 14.6276 22.8621 15.1745 23.2759 15.5415C23.6966 15.9084 24.2001 16.0953 24.6346 16.2615C24.7725 16.3099 24.9035 16.3653 25.0414 16.4207C25.4897 16.6076 25.7725 16.8569 25.8139 17.0992C25.8346 17.2169 25.807 17.383 25.7794 17.563C25.7311 17.8884 25.6759 18.2969 25.8277 18.733C26.0346 19.273 26.469 19.5845 26.869 19.8338C27.5587 20.263 28.2966 20.6576 29.0552 21.0038C29.5794 21.2461 30.1518 21.4676 30.7725 21.4676H30.869C31.0621 21.4607 31.2414 21.4261 31.4139 21.3776C31.6897 23.7522 31.2001 26.1822 30.0345 28.2661Z" fill="white"/>
<path d="M24.5092 21.7587C24.2264 21.3502 23.9092 20.8933 23.4402 20.5402C22.8264 20.0763 22.0954 19.9448 21.4885 20.1871C20.9092 20.4225 20.7092 20.914 20.6057 21.184C20.5919 21.2117 20.585 21.2394 20.5781 21.2671C20.454 21.3156 20.3092 21.4056 20.185 21.551C19.8816 21.911 19.8126 22.3471 19.7643 22.6379L19.3436 25.2617C19.2954 25.5802 19.2057 26.1133 19.4885 26.5979C19.7298 27.0063 20.185 27.2625 20.654 27.2625C20.7298 27.2625 20.8057 27.2556 20.8747 27.2417C20.916 27.2348 20.9505 27.2279 20.985 27.214C21.4954 27.034 22.3436 26.7225 22.7436 25.9471C22.8195 25.8017 22.8678 25.6425 22.9229 25.4902C22.9574 25.3794 22.9988 25.2548 23.0333 25.2133C23.0954 25.1302 23.3505 25.0679 23.5505 25.0194C23.9574 24.9156 24.4678 24.791 24.8195 24.341C25.1367 23.9325 25.2264 23.3579 25.0609 22.7971C24.9367 22.3748 24.7092 22.0425 24.5092 21.7587ZM23.7367 23.4756C23.6747 23.5517 23.4264 23.614 23.2195 23.6694C22.8126 23.7663 22.316 23.891 21.9574 24.341C21.7574 24.5902 21.6747 24.8533 21.6057 25.0679C21.5781 25.151 21.5574 25.241 21.516 25.3171C21.3919 25.5525 21.0471 25.7187 20.6678 25.8571C20.6609 25.7533 20.6885 25.5594 20.7023 25.4833L21.1229 22.8594C21.1367 22.7625 21.1574 22.624 21.1919 22.5271C21.3092 22.4925 21.4816 22.4302 21.6264 22.2779C21.8609 22.0356 21.8954 21.7933 21.9023 21.6617C21.9574 21.5302 21.985 21.4887 21.9919 21.4748L21.9988 21.4679C22.1505 21.4125 22.3988 21.4817 22.6126 21.641C22.9023 21.8556 23.1436 22.2087 23.3781 22.541C23.5367 22.7625 23.6816 22.9771 23.7436 23.1779C23.7781 23.3233 23.7643 23.441 23.7367 23.4756Z" fill="white"/>
</g>
<defs>
<clipPath id="clip0_619_756">
<rect width="40" height="45" fill="white"/>
</clipPath>
</defs>
</svg>
