<svg width="59" height="59" viewBox="0 0 59 59" fill="none" xmlns="http://www.w3.org/2000/svg">
<circle cx="29.3523" cy="29.3523" r="29.3523" fill="#D332BD"/>
<g clip-path="url(#clip0_595_714)">
<path d="M41.7522 29.8266C41.4944 29.8266 41.2852 29.6249 41.2852 29.3762V28.4395C41.2852 25.5743 40.1871 22.8285 38.1933 20.7078C38.02 20.5234 38.0346 20.2387 38.2255 20.0716C38.4171 19.9048 38.712 19.9188 38.8853 20.1027C41.0353 22.3896 42.2192 25.3503 42.2192 28.4395V29.3762C42.2192 29.6249 42.01 29.8266 41.7522 29.8266Z" fill="white"/>
<path d="M16.9514 29.8266C16.6935 29.8266 16.4844 29.6248 16.4844 29.3762V28.4394C16.4844 25.3477 17.6707 22.3866 19.825 20.1023C19.9977 19.9173 20.2944 19.9047 20.4847 20.0721C20.6757 20.2393 20.6896 20.5242 20.5157 20.7081C18.5183 22.8264 17.4183 25.5723 17.4183 28.4394V29.3762C17.4183 29.6248 17.2092 29.8266 16.9514 29.8266Z" fill="white"/>
<path d="M37.416 21.3165C36.9339 21.3165 36.4657 21.1493 36.099 20.8462C34.2159 19.2881 31.8196 18.4299 29.3515 18.4299C26.8828 18.4299 24.4865 19.2881 22.6034 20.8462C21.757 21.5454 20.4764 21.451 19.7504 20.6362C19.3978 20.2401 19.2269 19.7361 19.2676 19.2163C19.309 18.6964 19.5577 18.2235 19.9681 17.8837C22.5839 15.719 25.9166 14.5269 29.3515 14.5269C32.7864 14.5269 36.1185 15.719 38.7343 17.8837C39.5813 18.5847 39.6792 19.8194 38.9526 20.6357C38.5677 21.0684 38.0077 21.3165 37.416 21.3165ZM29.3515 17.5292C32.0427 17.5292 34.6549 18.4645 36.7071 20.1624C37.1467 20.5257 37.8666 20.4718 38.2436 20.0493C38.4333 19.8361 38.5257 19.5649 38.5032 19.2849C38.4807 19.0052 38.347 18.7501 38.1262 18.5674C35.6795 16.5426 32.5632 15.4276 29.3515 15.4276C26.1398 15.4276 23.0229 16.5426 20.5761 18.5674C20.3554 18.7501 20.2217 19.0052 20.1992 19.2849C20.1767 19.5649 20.2691 19.8361 20.4588 20.0493C20.8504 20.4879 21.5405 20.5395 21.9953 20.1624C24.0475 18.4645 26.6603 17.5292 29.3515 17.5292Z" fill="white"/>
<path d="M19.7614 38.2251H16.0371C14.9913 38.2251 14.1406 37.4047 14.1406 36.3961V30.7555C14.1406 29.7469 14.9913 28.9263 16.0371 28.9263H19.7614C20.0192 28.9263 20.2284 29.128 20.2284 29.3766V37.7747C20.2284 38.0233 20.0192 38.2251 19.7614 38.2251ZM16.0371 29.827C15.5063 29.827 15.0746 30.2436 15.0746 30.7555V36.3961C15.0746 36.908 15.5063 37.3244 16.0371 37.3244H19.2944V29.827H16.0371Z" fill="white"/>
<path d="M22.5711 39.3745H20.2794C19.7364 39.3745 19.2949 38.9485 19.2949 38.4249V28.7267C19.2949 28.2034 19.7364 27.7773 20.2794 27.7773H22.5711C23.1141 27.7773 23.5555 28.2034 23.5555 28.7267V38.4249C23.5555 38.9485 23.1141 39.3745 22.5711 39.3745ZM20.2794 28.6781C20.2514 28.6781 20.2289 28.6997 20.2289 28.7267V38.4249C20.2289 38.4518 20.2514 38.4738 20.2794 38.4738H22.5711C22.5991 38.4738 22.6216 38.4518 22.6216 38.4249V28.7267C22.6216 28.6997 22.5991 28.6781 22.5711 28.6781H20.2794Z" fill="white"/>
<path d="M42.6684 38.2251H38.9435C38.6857 38.2251 38.4766 38.0233 38.4766 37.7747V29.3766C38.4766 29.128 38.6857 28.9263 38.9435 28.9263H42.6684C43.7143 28.9263 44.565 29.7469 44.565 30.7555V36.3961C44.565 37.4047 43.7143 38.2251 42.6684 38.2251ZM39.4105 37.3244H42.6684C43.1993 37.3244 43.631 36.908 43.631 36.3961V30.7555C43.631 30.2436 43.1993 29.827 42.6684 29.827H39.4105V37.3244Z" fill="white"/>
<path d="M38.4246 39.3745H36.1335C35.5905 39.3745 35.1484 38.9485 35.1484 38.4249V28.7267C35.1484 28.2034 35.5905 27.7773 36.1335 27.7773H38.4246C38.9676 27.7773 39.409 28.2034 39.409 28.7267V38.4249C39.409 38.9485 38.9676 39.3745 38.4246 39.3745ZM36.1335 28.6781C36.1055 28.6781 36.0824 28.6997 36.0824 28.7267V38.4249C36.0824 38.4518 36.1055 38.4738 36.1335 38.4738H38.4246C38.4526 38.4738 38.4751 38.4518 38.4751 38.4249V28.7267C38.4751 28.6997 38.4526 28.6781 38.4246 28.6781H36.1335Z" fill="white"/>
<path d="M39.06 42.6586H34.465C34.2072 42.6586 33.998 42.4569 33.998 42.2082C33.998 41.9596 34.2072 41.7579 34.465 41.7579H39.06C39.977 41.7579 40.7231 41.0387 40.7231 40.1544V37.7765C40.7231 37.5279 40.9322 37.3262 41.19 37.3262C41.4479 37.3262 41.657 37.5279 41.657 37.7765V40.1544C41.657 41.5353 40.492 42.6586 39.06 42.6586Z" fill="white"/>
<path d="M32.9723 44.1891H31.5386C30.4532 44.1891 29.5703 43.3377 29.5703 42.2909C29.5703 41.2445 30.4532 40.3931 31.5386 40.3931H32.9723C34.0571 40.3931 34.94 41.2445 34.94 42.2909C34.94 43.3377 34.0571 44.1891 32.9723 44.1891ZM31.5386 41.2938C30.9682 41.2938 30.5043 41.7412 30.5043 42.2909C30.5043 42.841 30.9682 43.2884 31.5386 43.2884H32.9723C33.5421 43.2884 34.006 42.841 34.006 42.2909C34.006 41.7412 33.5421 41.2938 32.9723 41.2938H31.5386Z" fill="white"/>
<path d="M32.7097 33.0433H25.9963C25.7385 33.0433 25.5293 32.8416 25.5293 32.5929V27.0963C25.5293 26.8477 25.7385 26.646 25.9963 26.646H32.7097C32.9676 26.646 33.1767 26.8477 33.1767 27.0963V32.5929C33.1767 32.8416 32.9676 33.0433 32.7097 33.0433ZM26.4633 32.1426H32.2428V27.5467H26.4633V32.1426Z" fill="white"/>
<path d="M30.516 33.0433H28.1896C27.9318 33.0433 27.7227 32.8416 27.7227 32.5929V30.586C27.7227 29.7193 28.4541 29.0142 29.3528 29.0142C30.2515 29.0142 30.983 29.7193 30.983 30.586V32.5929C30.983 32.8416 30.7738 33.0433 30.516 33.0433ZM28.6566 32.1426H30.049V30.586C30.049 30.216 29.7365 29.9149 29.3528 29.9149C28.9692 29.9149 28.6566 30.216 28.6566 30.586V32.1426Z" fill="white"/>
<path d="M33.7577 27.5479H24.9459C24.6035 27.5479 24.2983 27.3503 24.1688 27.0448C24.0386 26.739 24.1128 26.3918 24.3573 26.1605L28.7632 21.9845C29.0885 21.676 29.6163 21.6769 29.9404 21.9842L34.3463 26.1605C34.5907 26.3918 34.6649 26.739 34.5348 27.0448C34.4053 27.3503 34.1 27.5479 33.7577 27.5479ZM25.1757 26.6472H33.5279L29.3518 22.689L25.1757 26.6472Z" fill="white"/>
<path d="M34.0356 34.9965H24.6662C24.4084 34.9965 24.1992 34.7948 24.1992 34.5461V33.2646C24.1992 32.6462 24.7209 32.1431 25.3624 32.1431H33.3394C33.9809 32.1431 34.5026 32.6462 34.5026 33.2646V34.5461C34.5026 34.7948 34.2934 34.9965 34.0356 34.9965ZM25.1332 34.0958H33.5686V33.2646C33.5686 33.1429 33.4659 33.0438 33.3394 33.0438H25.3624C25.2359 33.0438 25.1332 33.1429 25.1332 33.2646V34.0958Z" fill="white"/>
</g>
<defs>
<clipPath id="clip0_595_714">
<rect width="33" height="30" fill="white" transform="translate(12.8516 14.3521)"/>
</clipPath>
</defs>
</svg>
