<svg width="59" height="59" viewBox="0 0 59 59" fill="none" xmlns="http://www.w3.org/2000/svg">
<circle cx="29.3523" cy="29.3523" r="29.3523" fill="#766C44"/>
<g clip-path="url(#clip0_595_682)">
<path d="M22.8516 44.3521C22.5756 44.3521 22.3516 44.1281 22.3516 43.8521V34.8521C22.3516 34.5761 22.5756 34.3521 22.8516 34.3521C23.1276 34.3521 23.3516 34.5761 23.3516 34.8521V43.8521C23.3516 44.1281 23.1276 44.3521 22.8516 44.3521Z" fill="white"/>
<path d="M20.3516 20.3521C18.6976 20.3521 17.3516 19.0061 17.3516 17.3521C17.3516 15.6981 18.6976 14.3521 20.3516 14.3521C22.0056 14.3521 23.3516 15.6981 23.3516 17.3521C23.3516 19.0061 22.0056 20.3521 20.3516 20.3521ZM20.3516 15.3521C19.2486 15.3521 18.3516 16.2491 18.3516 17.3521C18.3516 18.4551 19.2486 19.3521 20.3516 19.3521C21.4546 19.3521 22.3516 18.4551 22.3516 17.3521C22.3516 16.2491 21.4546 15.3521 20.3516 15.3521Z" fill="white"/>
<path d="M16.8514 44.3519C16.8104 44.3519 16.7674 44.3469 16.7254 44.3359C16.4574 44.2659 16.2974 43.9929 16.3684 43.7259L19.3684 32.2259C19.4294 31.9909 19.6524 31.8329 19.8934 31.8539C20.1354 31.8749 20.3284 32.0659 20.3494 32.3089L21.3494 43.8089C21.3734 44.0839 21.1694 44.3269 20.8944 44.3509C20.6234 44.3709 20.3764 44.1709 20.3534 43.8959L19.6044 35.2809L17.3344 43.9779C17.2764 44.2029 17.0744 44.3519 16.8514 44.3519Z" fill="white"/>
<path d="M20.8516 30.3521H16.8516C16.5756 30.3521 16.3516 30.1281 16.3516 29.8521C16.3516 29.5761 16.5756 29.3521 16.8516 29.3521H20.8516C21.1266 29.3521 21.3516 29.1281 21.3516 28.8521C21.3516 28.5761 21.1266 28.3521 20.8516 28.3521H17.3516C16.7996 28.3521 16.3516 27.9031 16.3516 27.3521C16.3516 27.0761 16.5756 26.8521 16.8516 26.8521C17.1276 26.8521 17.3516 27.0761 17.3516 27.3521H20.8516C21.6786 27.3521 22.3516 28.0251 22.3516 28.8521C22.3516 29.6791 21.6786 30.3521 20.8516 30.3521Z" fill="white"/>
<path d="M16.8516 27.8521C16.5756 27.8521 16.3516 27.6281 16.3516 27.3521V25.8521C16.3516 25.5761 16.5756 25.3521 16.8516 25.3521C17.1276 25.3521 17.3516 25.5761 17.3516 25.8521V27.3521C17.3516 27.6281 17.1276 27.8521 16.8516 27.8521Z" fill="white"/>
<path d="M29.8516 33.3521H21.8516C21.5756 33.3521 21.3516 33.1281 21.3516 32.8521V25.8521C21.3516 25.5761 21.5756 25.3521 21.8516 25.3521H29.8516C30.1276 25.3521 30.3516 25.5761 30.3516 25.8521V32.8521C30.3516 33.1281 30.1276 33.3521 29.8516 33.3521ZM22.3516 32.3521H29.3516V26.3521H22.3516V32.3521Z" fill="white"/>
<path d="M25.8516 28.3521C25.5756 28.3521 25.3516 28.1281 25.3516 27.8521V25.8521C25.3516 25.5761 25.5756 25.3521 25.8516 25.3521C26.1276 25.3521 26.3516 25.5761 26.3516 25.8521V27.8521C26.3516 28.1281 26.1276 28.3521 25.8516 28.3521Z" fill="white"/>
<path d="M14.8392 44.3521C14.8092 44.3521 14.7782 44.3501 14.7482 44.3441C14.4772 44.2941 14.2962 44.034 14.3462 43.7621L16.3592 32.7621L16.3522 30.3021C15.2122 30.0701 14.3512 29.0601 14.3512 27.8521V24.8521C14.3512 22.9221 15.9212 21.3521 17.8512 21.3521H21.8512C23.3402 21.3521 24.6692 22.3001 25.1602 23.7111C25.2502 23.9721 25.1122 24.2571 24.8512 24.3471C24.5902 24.4371 24.3062 24.3001 24.2142 24.0391C23.8652 23.0301 22.9142 22.3521 21.8512 22.3521H17.8512C16.4722 22.3521 15.3512 23.4741 15.3512 24.8521V27.8521C15.3512 28.6791 16.0242 29.3521 16.8512 29.3521C17.1272 29.3521 17.3512 29.5761 17.3512 29.8521V32.8521L15.3302 43.9421C15.2862 44.1841 15.0762 44.3521 14.8392 44.3521Z" fill="white"/>
<path d="M40.8516 44.3521H22.8516C22.5756 44.3521 22.3516 44.1281 22.3516 43.8521C22.3516 43.5761 22.5756 43.3521 22.8516 43.3521H40.8516C42.2306 43.3521 43.3516 42.2301 43.3516 40.8521C43.3516 39.4741 42.2306 38.3521 40.8516 38.3521H33.8516C32.4726 38.3521 31.3516 37.2301 31.3516 35.8521C31.3516 34.4741 32.4726 33.3521 33.8516 33.3521H37.3516C37.6276 33.3521 37.8516 33.5761 37.8516 33.8521C37.8516 34.1281 37.6276 34.3521 37.3516 34.3521H33.8516C33.0246 34.3521 32.3516 35.0251 32.3516 35.8521C32.3516 36.6791 33.0246 37.3521 33.8516 37.3521H40.8516C42.7816 37.3521 44.3516 38.9221 44.3516 40.8521C44.3516 42.7821 42.7816 44.3521 40.8516 44.3521Z" fill="white"/>
<path d="M37.3203 34.3521C37.1423 34.3391 37.0263 34.2841 36.9323 34.1671C36.6623 33.8351 30.3203 25.9771 30.3203 21.3521C30.3203 17.4921 33.4613 14.3521 37.3203 14.3521C41.1793 14.3521 44.3203 17.4921 44.3203 21.3521C44.3203 26.1021 37.9753 33.8431 37.7063 34.1701C37.6113 34.2861 37.4693 34.3521 37.3203 34.3521ZM37.3203 15.3521C34.0113 15.3521 31.3203 18.0431 31.3203 21.3521C31.3203 25.0051 35.9413 31.2581 37.3233 33.0461C38.7083 31.2761 43.3203 25.1031 43.3203 21.3521C43.3203 18.0431 40.6283 15.3521 37.3203 15.3521Z" fill="white"/>
<path d="M37.3203 24.8828C35.3903 24.8828 33.8203 23.3128 33.8203 21.3828C33.8203 19.4528 35.3903 17.8828 37.3203 17.8828C39.2503 17.8828 40.8203 19.4528 40.8203 21.3828C40.8203 23.3128 39.2493 24.8828 37.3203 24.8828ZM37.3203 18.8828C35.9413 18.8828 34.8203 20.0048 34.8203 21.3828C34.8203 22.7608 35.9413 23.8828 37.3203 23.8828C38.6993 23.8828 39.8203 22.7608 39.8203 21.3828C39.8203 20.0048 38.6993 18.8828 37.3203 18.8828Z" fill="white"/>
</g>
<defs>
<clipPath id="clip0_595_682">
<rect width="32" height="30" fill="white" transform="translate(13.3516 14.3521)"/>
</clipPath>
</defs>
</svg>
