<svg width="59" height="59" viewBox="0 0 59 59" fill="none" xmlns="http://www.w3.org/2000/svg">
<circle cx="29.3523" cy="29.3523" r="29.3523" fill="#8A6BB4"/>
<g clip-path="url(#clip0_595_507)">
<path d="M39.3164 20.3579L33.2748 14.4326C33.2207 14.3796 33.1267 14.3464 33.0626 14.3464H21.793C20.436 14.3464 19.332 15.4292 19.332 16.7601V22.9321H18.4445C17.2024 22.9321 16.1919 23.9231 16.1919 25.1411V39.9106H14.7756C14.6099 39.9106 14.4756 40.0422 14.4756 40.2049V40.4327C14.4756 42.5969 16.271 44.3578 18.4778 44.3578H40.2595C42.4663 44.3578 44.2615 42.5969 44.2615 40.4327V40.2049C44.2615 40.0422 44.1272 39.9106 43.9615 39.9106H42.5452V25.1411C42.5452 23.9231 41.5347 22.9321 40.2926 22.9321H39.4042V20.5659C39.4042 20.5073 39.3732 20.4135 39.3164 20.3579ZM38.3799 20.2716H35.2234C34.1974 20.2716 33.3627 19.453 33.3627 18.4468V15.351C35.1173 17.0719 36.6252 18.5507 38.3799 20.2716ZM19.9321 16.7601C19.9321 15.7538 20.767 14.9349 21.793 14.9349H32.7627V18.4468C32.7627 19.7774 33.8667 20.8601 35.2235 20.8601H38.8043V35.5971C38.8043 36.6033 37.9694 37.4219 36.9433 37.4219H21.793C20.7669 37.4219 19.932 36.6033 19.932 35.5971L19.9321 16.7601ZM40.2595 43.7693H18.4778C16.6244 43.7693 15.1124 42.3085 15.0764 40.4991H24.6175C24.6647 40.4991 24.7031 40.5367 24.7031 40.583V41.0709C24.7031 41.4415 25.0106 41.7433 25.3887 41.7433H33.3485C33.7266 41.7433 34.0341 41.4416 34.0341 41.0709V40.583C34.0341 40.5367 34.0725 40.4991 34.1197 40.4991H43.6608C43.6247 42.3085 42.1127 43.7693 40.2595 43.7693ZM40.2926 23.5206C41.2038 23.5206 41.9452 24.2475 41.9452 25.1411V39.9106H34.1196C33.7415 39.9106 33.434 40.2123 33.434 40.583V41.0709C33.434 41.1172 33.3956 41.1548 33.3484 41.1548H25.3887C25.3415 41.1548 25.3031 41.1172 25.3031 41.0709V40.583C25.3031 40.2124 24.9956 39.9106 24.6175 39.9106H16.792V25.1411C16.792 24.2475 17.5334 23.5206 18.4446 23.5206H19.3321V35.5971C19.3321 36.9278 20.4361 38.0104 21.793 38.0104H36.9433C38.3002 38.0104 39.4042 36.9277 39.4042 35.5971V23.5206H40.2926Z" fill="white"/>
<path d="M21.8137 25.4662H29.5536C29.7193 25.4662 29.8536 25.3346 29.8536 25.1719C29.8536 25.0093 29.7193 24.8777 29.5536 24.8777H21.8137C21.648 24.8777 21.5137 25.0093 21.5137 25.1719C21.5137 25.3346 21.648 25.4662 21.8137 25.4662Z" fill="white"/>
<path d="M31.8928 25.4662H36.5917C36.7574 25.4662 36.8918 25.3346 36.8918 25.1719C36.8918 25.0093 36.7574 24.8777 36.5917 24.8777H31.8928C31.7271 24.8777 31.5928 25.0093 31.5928 25.1719C31.5928 25.3346 31.7271 25.4662 31.8928 25.4662Z" fill="white"/>
<path d="M21.8137 28.7755H25.3931C25.5588 28.7755 25.6932 28.6439 25.6932 28.4813C25.6932 28.3186 25.5588 28.187 25.3931 28.187H21.8137C21.648 28.187 21.5137 28.3186 21.5137 28.4813C21.5137 28.6439 21.648 28.7755 21.8137 28.7755Z" fill="white"/>
<path d="M26.5664 28.4813C26.5664 28.6439 26.7008 28.7755 26.8664 28.7755H30.4459C30.6115 28.7755 30.7459 28.6439 30.7459 28.4813C30.7459 28.3186 30.6115 28.187 30.4459 28.187H26.8664C26.7008 28.187 26.5664 28.3186 26.5664 28.4813Z" fill="white"/>
<path d="M31.9192 28.1873C31.7535 28.1873 31.6191 28.3188 31.6191 28.4815C31.6191 28.6442 31.7535 28.7757 31.9192 28.7757H35.4986C35.6643 28.7757 35.7986 28.6442 35.7986 28.4815C35.7986 28.3188 35.6643 28.1873 35.4986 28.1873H31.9192Z" fill="white"/>
<path d="M21.8137 32.0848H27.4455C27.6112 32.0848 27.7455 31.9532 27.7455 31.7906C27.7455 31.628 27.6112 31.4963 27.4455 31.4963H21.8137C21.648 31.4963 21.5137 31.6279 21.5137 31.7906C21.5137 31.9532 21.648 32.0848 21.8137 32.0848Z" fill="white"/>
<path d="M30.4502 31.7906C30.4502 31.9532 30.5845 32.0848 30.7502 32.0848H36.382C36.5477 32.0848 36.6821 31.9532 36.6821 31.7906C36.6821 31.628 36.5477 31.4963 36.382 31.4963H30.7502C30.5845 31.4963 30.4502 31.6279 30.4502 31.7906Z" fill="white"/>
<path d="M32.43 34.8057H21.8137C21.648 34.8057 21.5137 34.9372 21.5137 35.0999C21.5137 35.2625 21.648 35.3941 21.8137 35.3941H32.43C32.5956 35.3941 32.73 35.2626 32.73 35.0999C32.73 34.9372 32.5956 34.8057 32.43 34.8057Z" fill="white"/>
<path d="M22.0548 21.1639H22.3866C22.3994 21.1955 22.4128 21.2271 22.4266 21.2584L22.1924 21.4883C21.949 21.7268 21.949 22.1153 22.1924 22.3538L23.1503 23.2934C23.3934 23.5319 23.7896 23.5319 24.0328 23.2934L24.2672 23.0635C24.2993 23.077 24.3315 23.0902 24.3637 23.1029V23.4282C24.3637 23.7655 24.6437 24.0402 24.9878 24.0402H26.3422C26.6863 24.0402 26.9663 23.7655 26.9663 23.4282V23.1029C26.9985 23.0902 27.0307 23.077 27.0627 23.0635L27.2971 23.2934C27.5402 23.5319 27.9365 23.5316 28.1797 23.2934L29.1376 22.3538C29.381 22.1153 29.381 21.7269 29.1376 21.4883L28.9034 21.2584C28.9172 21.2271 28.9306 21.1955 28.9434 21.1639H29.2751C29.6192 21.1639 29.8992 20.8892 29.8992 20.5516V19.2235C29.8992 18.8861 29.6192 18.6115 29.2751 18.6115H28.9435C28.9306 18.5798 28.9171 18.5483 28.9032 18.5166L29.1376 18.2867C29.381 18.0483 29.381 17.6598 29.1376 17.4212L28.1797 16.4819C27.9365 16.2434 27.5402 16.2434 27.2971 16.4819L27.0628 16.7118C27.0309 16.698 26.9987 16.6851 26.9663 16.6724V16.3469C26.9663 16.0095 26.6864 15.7349 26.3423 15.7349H24.9878C24.6437 15.7349 24.3638 16.0095 24.3638 16.3469V16.6724C24.3314 16.6851 24.2991 16.698 24.2673 16.7118L24.0328 16.4819C23.7897 16.2434 23.3936 16.2434 23.1503 16.4819L22.1924 17.4212C21.9491 17.6597 21.9491 18.0482 22.1924 18.2867L22.4268 18.5166C22.4129 18.5483 22.3994 18.5798 22.3866 18.6115H22.0549C21.7106 18.6115 21.4307 18.8861 21.4307 19.2235V20.5516C21.4306 20.8892 21.7106 21.1639 22.0548 21.1639ZM22.0307 19.2235C22.0307 19.2106 22.0415 19.1999 22.0548 19.1999H22.5972C22.7272 19.1999 22.8427 19.1177 22.8827 18.9962C22.928 18.8585 22.9861 18.7215 23.0553 18.5887C23.1145 18.4749 23.0922 18.337 23.0002 18.2468L22.6167 17.8706C22.6073 17.8615 22.6073 17.8465 22.6167 17.8373L23.5746 16.898C23.584 16.8888 23.5992 16.8888 23.6086 16.898L23.9921 17.2741C24.0841 17.3643 24.2248 17.3862 24.341 17.3278C24.4749 17.2606 24.6145 17.2037 24.7563 17.1586C24.88 17.1192 24.9638 17.0063 24.9638 16.8787V16.3468C24.9638 16.3339 24.9746 16.3232 24.9878 16.3232H26.3423C26.3554 16.3232 26.3663 16.3338 26.3663 16.3468V16.8787C26.3663 17.0062 26.45 17.1192 26.5736 17.1586C26.7157 17.2037 26.8555 17.2609 26.9891 17.3278C27.1051 17.3862 27.2462 17.3643 27.338 17.2741L27.7214 16.898C27.7297 16.89 27.7475 16.89 27.7556 16.898L28.7135 17.8373C28.7228 17.8465 28.7228 17.8615 28.7135 17.8706L28.33 18.2468C28.238 18.337 28.2157 18.4749 28.2749 18.5887C28.344 18.7215 28.4022 18.8585 28.4475 18.9962C28.4874 19.1177 28.6029 19.1999 28.733 19.1999H29.2753C29.2885 19.1999 29.2994 19.2105 29.2994 19.2235V20.5516C29.2994 20.5648 29.2885 20.5754 29.2753 20.5754H28.733C28.6029 20.5754 28.4876 20.6576 28.4476 20.7791C28.4019 20.9174 28.3439 21.0544 28.275 21.186C28.2157 21.2998 28.2378 21.438 28.33 21.5282L28.7135 21.9043C28.7228 21.9135 28.7228 21.9284 28.7135 21.9376L27.7556 22.8772C27.746 22.8861 27.7306 22.8861 27.7214 22.8772L27.338 22.5011C27.2463 22.4112 27.1057 22.3893 26.9895 22.4471C26.8539 22.5149 26.7141 22.5718 26.5742 22.6164C26.4502 22.6554 26.3663 22.7686 26.3663 22.8962V23.4281C26.3663 23.441 26.3555 23.4517 26.3423 23.4517H24.9878C24.9747 23.4517 24.9638 23.4411 24.9638 23.4281V22.8962C24.9638 22.7687 24.8799 22.6554 24.7559 22.6161C24.6162 22.5722 24.4766 22.5153 24.3406 22.4471C24.2247 22.3893 24.0841 22.4107 23.9921 22.5012L23.6086 22.8773C23.5992 22.8865 23.584 22.8865 23.5746 22.8773L22.6167 21.9377C22.6073 21.9285 22.6073 21.9135 22.6167 21.9043L23.0002 21.5282C23.0924 21.438 23.1145 21.2998 23.0552 21.186C22.9863 21.0545 22.9283 20.9174 22.8826 20.7792C22.8426 20.6576 22.7273 20.5755 22.5972 20.5755H22.0548C22.0415 20.5755 22.0307 20.5648 22.0307 20.5516V19.2235Z" fill="white"/>
<path d="M25.6655 22.0467C26.8795 22.0467 27.8672 21.0781 27.8672 19.8876C27.8672 18.6971 26.8795 17.7285 25.6655 17.7285C24.4515 17.7285 23.4639 18.6971 23.4639 19.8876C23.4639 21.0781 24.4515 22.0467 25.6655 22.0467ZM25.6655 18.317C26.5486 18.317 27.2671 19.0216 27.2671 19.8876C27.2671 20.7536 26.5486 21.4582 25.6655 21.4582C24.7825 21.4582 24.0639 20.7536 24.0639 19.8876C24.0639 19.0216 24.7825 18.317 25.6655 18.317Z" fill="white"/>
</g>
<defs>
<clipPath id="clip0_595_507">
<rect width="30" height="30" fill="white" transform="translate(14.3525 14.3523)"/>
</clipPath>
</defs>
</svg>
