<svg width="59" height="59" viewBox="0 0 59 59" fill="none" xmlns="http://www.w3.org/2000/svg">
<circle cx="29.3523" cy="29.3523" r="29.3523" fill="#31B6E6"/>
<g clip-path="url(#clip0_595_481)">
<path d="M35.4185 18.2655H34.0707V15.6567H31.375V14.3524H35.4185V18.2655Z" fill="white"/>
<path d="M25.5635 20.2219H23.2891V18.9177H25.5635C28.2469 18.9267 30.8225 17.8964 32.7156 16.0562L34.2739 14.548L35.2258 15.4692L33.6589 16.9774C31.5162 19.0612 28.6013 20.2293 25.5635 20.2219Z" fill="white"/>
<path d="M33.3965 20.222H34.7445V25.4394H33.3965V20.222Z" fill="white"/>
<path d="M23.9629 22.8307H25.3106V25.4392H23.9629V22.8307Z" fill="white"/>
<path d="M28.6797 21.5262H30.0274V25.4393H28.6797V21.5262Z" fill="white"/>
<path d="M24.2991 31.9611H20.4748C19.9377 31.9632 19.4222 31.7578 19.0426 31.3905L17.0377 29.4421L17.9895 28.5209L20.0029 30.4693C20.1315 30.5904 20.3037 30.6577 20.4832 30.6568H24.2991C24.8573 30.6568 25.31 30.2188 25.31 29.6785C25.31 29.1383 24.8573 28.7003 24.2991 28.7003H21.8225C21.2857 28.7024 20.7702 28.497 20.3904 28.1295L18.1159 25.9284C17.627 25.4588 16.8948 25.3189 16.2583 25.5737C15.6216 25.8283 15.205 26.4275 15.2013 27.0941V31.9611H13.8535V27.0941C13.8547 25.8992 14.5983 24.8223 15.7388 24.364C16.8792 23.9059 18.1924 24.1565 19.068 24.9991L21.3425 27.2002C21.4708 27.3212 21.6433 27.3886 21.8225 27.3876H24.2991C25.6019 27.3876 26.6579 28.4096 26.6579 29.6704C26.6579 30.931 25.6019 31.9529 24.2991 31.9529V31.9611Z" fill="white"/>
<path d="M25.9839 44.3525H21.2665V38.4829H16.5492C15.0603 38.4829 13.8535 37.3148 13.8535 35.8742V31.3089H15.2013V35.8742C15.2013 36.5945 15.8047 37.1784 16.5492 37.1784H22.6145V43.048H24.6362V35.8742C24.6362 35.1538 24.0328 34.5699 23.2882 34.5699H19.2447V31.1947H20.5927V33.2654H23.2882C24.7771 33.2654 25.9839 34.4335 25.9839 35.8742V44.3525Z" fill="white"/>
<path d="M17.5601 22.8308C15.513 22.8308 13.8535 21.2249 13.8535 19.2438C13.8535 17.2627 15.513 15.6567 17.5601 15.6567C19.607 15.6567 21.2665 17.2627 21.2665 19.2438C21.262 21.223 19.6051 22.8263 17.5601 22.8308ZM17.5601 16.9612C16.2573 16.9612 15.2013 17.9832 15.2013 19.2438C15.2013 20.5043 16.2573 21.5263 17.5601 21.5263C18.8627 21.5263 19.9187 20.5043 19.9187 19.2438C19.9187 17.9832 18.8627 16.9612 17.5601 16.9612Z" fill="white"/>
<path d="M44.8533 31.9611H43.5053V27.0942C43.5016 26.4276 43.085 25.8284 42.4485 25.5738C41.812 25.3189 41.0795 25.4589 40.5906 25.9284L38.3162 28.1295C37.9366 28.4971 37.421 28.7025 36.8843 28.7003H34.4074C33.8492 28.7003 33.3966 29.1384 33.3966 29.6786C33.3966 30.2188 33.8492 30.6569 34.4074 30.6569H38.232C38.4112 30.6578 38.5837 30.5905 38.712 30.4694L40.7254 28.521L41.6773 29.4421L39.6555 31.3905C39.276 31.7579 38.7604 31.9633 38.2236 31.9611H34.4074C33.1049 31.9611 32.0488 30.9392 32.0488 29.6786C32.0488 28.4178 33.1049 27.3958 34.4074 27.3958H36.8843C37.0634 27.3968 37.236 27.3294 37.3643 27.2083L39.6387 25.0073C40.5131 24.1656 41.8244 23.9146 42.964 24.3708C44.1035 24.8269 44.8486 25.9007 44.8533 27.0942V31.9611Z" fill="white"/>
<path d="M37.4418 44.3525H32.7246V35.8742C32.7246 34.4335 33.9314 33.2654 35.4201 33.2654H38.1158V31.1947H39.4636V34.5699H35.4201C34.6758 34.5699 34.0724 35.1538 34.0724 35.8742V43.048H36.0941V37.1784H42.1593C42.9036 37.1784 43.5071 36.5945 43.5071 35.8742V31.3089H44.855V35.8742C44.855 37.3148 43.648 38.4829 42.1593 38.4829H37.4418V44.3525Z" fill="white"/>
<path d="M41.1461 22.8307C39.0989 22.8307 37.4395 21.2248 37.4395 19.2437C37.4395 17.2625 39.0989 15.6566 41.1461 15.6566C43.1932 15.6566 44.8527 17.2625 44.8527 19.2437C44.848 21.2229 43.1912 22.8262 41.1461 22.8307ZM41.1461 16.9611C39.8435 16.9611 38.7874 17.9831 38.7874 19.2437C38.7874 20.5042 39.8435 21.5262 41.1461 21.5262C42.4486 21.5262 43.5047 20.5042 43.5047 19.2437C43.5047 17.9831 42.4486 16.9611 41.1461 16.9611Z" fill="white"/>
</g>
<defs>
<clipPath id="clip0_595_481">
<rect width="31" height="30" fill="white" transform="translate(13.8535 14.3524)"/>
</clipPath>
</defs>
</svg>
