<svg width="59" height="59" viewBox="0 0 59 59" fill="none" xmlns="http://www.w3.org/2000/svg">
<circle cx="29.3523" cy="29.3523" r="29.3523" fill="#E67631"/>
<g clip-path="url(#clip0_595_499)">
<path d="M43.9278 18.946H42.1833V17.2355C42.1833 16.1994 41.3273 15.3568 40.2748 15.3568H31.9725C30.8784 15.3568 29.9159 15.9124 29.3537 16.7503C28.7916 15.9124 27.829 15.3568 26.7349 15.3568H18.4319C17.3794 15.3568 16.5234 16.1994 16.5234 17.2355V18.946H14.7796C13.7271 18.946 12.8711 19.7886 12.8711 20.8246V40.7178C12.8711 41.7539 13.7271 42.5965 14.7796 42.5965H26.4089C26.4991 44.1182 27.7854 45.3291 29.3537 45.3291C30.922 45.3291 32.2083 44.1182 32.2985 42.5965H43.9278C44.9803 42.5965 45.8363 41.7539 45.8363 40.7178V20.8246C45.8363 19.7886 44.9803 18.946 43.9278 18.946ZM31.5259 22.3356C30.8271 22.4131 30.0994 22.4584 29.3557 22.4584C28.611 22.4584 27.8818 22.4129 27.1811 22.335C27.7002 20.3093 28.5552 19.0721 29.3537 19.0721C30.1523 19.0721 31.0071 20.3095 31.5259 22.3356ZM32.0125 26.5299C32.0125 27.6981 31.9114 28.7682 31.7424 29.7157C30.9781 29.6277 30.1795 29.5767 29.3557 29.5767C28.5309 29.5767 27.7307 29.6279 26.9646 29.7163C26.7955 28.7687 26.6943 27.6984 26.6943 26.5299C26.6943 25.3615 26.7955 24.2912 26.9646 23.3436C27.7307 23.432 28.5309 23.4831 29.3557 23.4831C30.1795 23.4831 30.9781 23.4322 31.7424 23.3442C31.9114 24.2917 32.0125 25.3618 32.0125 26.5299ZM26.1463 22.1895C25.246 22.0342 24.4222 21.8179 23.7359 21.5437C24.6876 20.5057 25.9277 19.7333 27.3341 19.3493C26.8416 20.0581 26.436 21.0281 26.1463 22.1895ZM23.0682 22.3708C23.8762 22.7278 24.8487 23.0061 25.9301 23.1949C25.7514 24.209 25.6533 25.3326 25.6533 26.5299C25.6533 27.7272 25.7514 28.8509 25.9301 29.865C24.8487 30.0538 23.8762 30.3321 23.0682 30.6891C22.2536 29.5001 21.7773 28.0688 21.7773 26.5299C21.7773 24.9911 22.2536 23.5598 23.0682 22.3708ZM26.1463 30.8704C26.436 32.0318 26.8416 33.0018 27.3341 33.7105C25.9277 33.3266 24.6876 32.5541 23.7359 31.5162C24.4222 31.242 25.246 31.0257 26.1463 30.8704ZM27.1811 30.7249C27.8818 30.647 28.611 30.6015 29.3557 30.6015C30.0994 30.6015 30.8271 30.6468 31.5259 30.7243C31.0071 32.7504 30.1523 33.9878 29.3537 33.9878C28.5552 33.9878 27.7002 32.7506 27.1811 30.7249ZM32.5607 30.8696C33.4622 31.0249 34.2863 31.2414 34.9713 31.516C34.0196 32.5542 32.7794 33.3268 31.3727 33.7107C31.8653 33.0018 32.271 32.0314 32.5607 30.8696ZM35.6385 30.6895C34.8323 30.3317 33.8596 30.053 32.7768 29.8641C32.9555 28.8502 33.0535 27.7269 33.0535 26.5299C33.0535 25.333 32.9555 24.2097 32.7768 23.1957C33.8596 23.0069 34.8323 22.7282 35.6385 22.3704C36.4532 23.5595 36.9295 24.9909 36.9295 26.5299C36.9295 28.069 36.4532 29.5004 35.6385 30.6895ZM32.5607 22.1903C32.271 21.0284 31.8653 20.0581 31.3727 19.3492C32.7794 19.7331 34.0196 20.5057 34.9713 21.5439C34.2863 21.8185 33.4622 22.035 32.5607 22.1903ZM17.5644 17.2355C17.5644 16.7645 17.9535 16.3815 18.4319 16.3815H26.7349C27.7623 16.3815 28.6159 17.1135 28.795 18.0752C26.2284 18.2384 23.9692 19.5085 22.5 21.409C22.4775 21.4361 22.4503 21.4582 22.4333 21.4904C22.4316 21.4938 22.432 21.4974 22.4303 21.5008C21.3709 22.91 20.7363 24.6463 20.7363 26.5299C20.7363 28.4136 21.3709 30.1499 22.4303 31.5591C22.432 31.5625 22.4316 31.5661 22.4333 31.5695C22.4388 31.5798 22.4503 31.5837 22.4564 31.5935C24.0293 33.6639 26.5314 35.0125 29.3537 35.0125C32.1702 35.0125 34.6675 33.6695 36.2407 31.6064C36.2496 31.5931 36.263 31.5845 36.2707 31.5701C36.2716 31.5685 36.2714 31.5666 36.2722 31.565C37.3341 30.1547 37.9705 28.4162 37.9705 26.5299C37.9705 24.6437 37.3341 22.9052 36.2722 21.4949C36.2714 21.4933 36.2716 21.4914 36.2707 21.4898C36.263 21.4753 36.2495 21.4667 36.2407 21.4534C34.7728 19.5285 32.4988 18.2397 29.9125 18.0752C30.0916 17.1135 30.9451 16.3815 31.9725 16.3815H40.2748C40.7533 16.3815 41.1423 16.7645 41.1423 17.2355V35.647H31.9725C30.8784 35.647 29.9159 36.2025 29.3537 37.0404C28.7915 36.2025 27.8288 35.647 26.7342 35.647H17.5644V17.2355ZM44.7953 40.7178C44.7953 41.1888 44.4063 41.5718 43.9278 41.5718H31.7827C31.4954 41.5718 31.2622 41.8013 31.2622 42.0841V42.4257C31.2622 43.4618 30.4062 44.3043 29.3537 44.3043C28.3012 44.3043 27.4452 43.4618 27.4452 42.4257V42.0841C27.4452 41.8013 27.2121 41.5718 26.9247 41.5718H14.7796C14.3011 41.5718 13.9121 41.1888 13.9121 40.7178V20.8246C13.9121 20.3536 14.3011 19.9707 14.7796 19.9707H16.5234V36.1593C16.5234 36.4422 16.7566 36.6717 17.0439 36.6717H26.7342C27.8918 36.6717 28.8332 37.5983 28.8332 38.7371C28.8332 39.02 29.0663 39.2495 29.3537 39.2495C29.6411 39.2495 29.8742 39.02 29.8742 38.7371C29.8742 37.5983 30.8156 36.6717 31.9725 36.6717H41.6628C41.9502 36.6717 42.1833 36.4422 42.1833 36.1593V19.9707H43.9278C44.4063 19.9707 44.7953 20.3536 44.7953 20.8246V40.7178Z" fill="white"/>
</g>
<defs>
<clipPath id="clip0_595_499">
<rect width="33" height="30" fill="white" transform="translate(12.8535 15.3523)"/>
</clipPath>
</defs>
</svg>
