<svg width="59" height="59" viewBox="0 0 59 59" fill="none" xmlns="http://www.w3.org/2000/svg">
<circle cx="29.3523" cy="29.3523" r="29.3523" fill="#D40000"/>
<g clip-path="url(#clip0_595_644)">
<path d="M39.7968 44.3524C39.7379 44.3524 39.6794 44.3427 39.6241 44.3237L29.1725 40.7275C29.0467 40.6841 28.9441 40.5953 28.8874 40.4806C28.8307 40.3659 28.8244 40.2346 28.87 40.1155L29.9637 37.2754C30.0094 37.1564 30.1032 37.0594 30.2245 37.0057C30.3458 36.9519 30.4847 36.9458 30.6107 36.9887L41.0633 40.5846C41.1894 40.628 41.2921 40.7169 41.3489 40.8319C41.4056 40.9469 41.4117 41.0784 41.3659 41.1976L40.2725 44.0377C40.2369 44.13 40.1722 44.2097 40.0871 44.266C40.0021 44.3223 39.9007 44.3524 39.7968 44.3524ZM29.9941 39.9921L39.4947 43.2611L40.2418 41.3199L30.7415 38.0514L29.9941 39.9921Z" fill="white"/>
<path d="M38.7277 36.047C38.6463 36.047 38.5661 36.0284 38.4939 35.9929C38.4217 35.9574 38.3597 35.9059 38.313 35.8428C38.2664 35.7798 38.2365 35.707 38.226 35.6308C38.2154 35.5545 38.2244 35.4769 38.2524 35.4046L40.4846 29.6069C40.5793 29.3611 40.5781 29.0915 40.4813 28.8464C40.3844 28.6014 40.1982 28.3971 39.9562 28.2702C39.8387 28.2089 39.7519 28.1059 39.7147 27.9839C39.6776 27.862 39.6932 27.7311 39.7581 27.62C39.8231 27.509 39.932 27.4268 40.061 27.3917C40.19 27.3566 40.3285 27.3714 40.446 27.4328C40.8988 27.67 41.2473 28.0522 41.4287 28.5106C41.6101 28.969 41.6125 29.4736 41.4356 29.9336L39.2033 35.732C39.1678 35.8243 39.1032 35.9041 39.0181 35.9604C38.933 36.0168 38.8316 36.047 38.7277 36.047Z" fill="white"/>
<path d="M39.0959 40.8953C39.0374 40.8954 38.9793 40.886 38.9242 40.8673L32.0622 38.5063C31.9361 38.4628 31.8335 38.3738 31.7768 38.2589C31.7202 38.1439 31.7141 38.0124 31.76 37.8933L33.0175 34.6268C33.6067 33.1059 34.798 31.8609 36.3399 31.1545L37.3425 28.5502C37.5146 28.104 37.8427 27.7268 38.2725 27.4809C38.7023 27.235 39.2081 27.1353 39.706 27.1982L39.766 22.9233C39.7738 22.4303 39.9827 21.9591 40.3491 21.6081C40.7155 21.2571 41.2111 21.0533 41.7325 21.0393C42.254 21.0254 42.761 21.2023 43.1478 21.5331C43.5347 21.8639 43.7714 22.3232 43.8088 22.815L44.309 29.5729C44.4904 32.0877 43.7918 34.5891 42.3211 36.6916L39.5192 40.6824C39.4727 40.7482 39.4097 40.8021 39.3359 40.8393C39.262 40.8764 39.1796 40.8957 39.0959 40.8953ZM32.8826 37.7699L38.8946 39.8385L41.4764 36.1616C42.8241 34.235 43.464 31.9429 43.2977 29.6385L42.7978 22.881C42.7849 22.706 42.7213 22.5378 42.6141 22.3946C42.5069 22.2515 42.3601 22.139 42.1897 22.0694C42.0194 21.9998 41.8322 21.9759 41.6484 22.0001C41.4647 22.0243 41.2915 22.0958 41.1478 22.2068C41.0334 22.2951 40.9408 22.4061 40.8767 22.5319C40.8125 22.6577 40.7784 22.7953 40.7766 22.935L40.7076 27.8576C40.7065 27.9404 40.6827 28.0215 40.6385 28.093C40.5943 28.1645 40.5312 28.2239 40.4554 28.2654C40.3797 28.3069 40.2938 28.3292 40.2062 28.3299C40.1186 28.3307 40.0323 28.3099 39.9558 28.2697C39.8968 28.2389 39.8351 28.2129 39.7714 28.1921C39.1754 27.9974 38.5122 28.3049 38.292 28.8755L37.2175 31.6667C37.1941 31.7272 37.158 31.7826 37.1114 31.8295C37.0648 31.8765 37.0087 31.9141 36.9464 31.9401C36.2616 32.2276 35.645 32.6423 35.1331 33.1596C34.6213 33.6769 34.2247 34.2863 33.967 34.9514L32.8826 37.7699Z" fill="white"/>
<path d="M18.8944 44.3525C18.7906 44.3525 18.6892 44.3223 18.6041 44.266C18.519 44.2097 18.4543 44.13 18.4188 44.0378L17.3254 41.1977C17.2795 41.0785 17.2856 40.9469 17.3424 40.832C17.3991 40.717 17.5018 40.6281 17.6279 40.5847L28.0806 36.9888C28.2066 36.9454 28.3457 36.9512 28.4673 37.0047C28.5889 37.0583 28.683 37.1553 28.729 37.2744L29.8213 40.1156C29.8671 40.2348 29.861 40.3663 29.8043 40.4813C29.7476 40.5962 29.6449 40.6852 29.5188 40.7285L19.0672 44.3238C19.0118 44.3428 18.9533 44.3525 18.8944 44.3525ZM18.4495 41.32L19.1966 43.2611L28.6972 39.9922L27.9497 38.0514L18.4495 41.32Z" fill="white"/>
<path d="M19.9632 36.0467C19.8593 36.0467 19.7579 36.0165 19.6728 35.9601C19.5877 35.9038 19.523 35.824 19.4875 35.7317L17.2553 29.9333C17.0781 29.4732 17.0804 28.9685 17.2618 28.5099C17.4432 28.0513 17.7918 27.669 18.2449 27.4318C18.3624 27.3704 18.5008 27.3556 18.6298 27.3908C18.7588 27.4259 18.8678 27.508 18.9327 27.619C18.9977 27.7301 19.0133 27.861 18.9761 27.9829C18.939 28.1049 18.8521 28.2079 18.7347 28.2693C18.4926 28.3961 18.3065 28.6004 18.2096 28.8455C18.1127 29.0905 18.1115 29.3602 18.2062 29.6059L20.4385 35.4037C20.4664 35.4759 20.4755 35.5535 20.4649 35.6298C20.4543 35.7061 20.4245 35.7788 20.3778 35.8419C20.3312 35.9049 20.2691 35.9564 20.1969 35.9919C20.1248 36.0275 20.0446 36.046 19.9632 36.046V36.0467Z" fill="white"/>
<path d="M19.5953 40.8954C19.5118 40.8954 19.4296 40.8759 19.356 40.8385C19.2824 40.8012 19.2197 40.7473 19.1735 40.6815L16.3716 36.6906C14.9008 34.5881 14.2023 32.0867 14.3836 29.5719L14.8839 22.814C14.9212 22.3222 15.158 21.8629 15.5448 21.5321C15.9317 21.2013 16.4387 21.0244 16.9601 21.0384C17.4815 21.0523 17.9771 21.2561 18.3435 21.6071C18.7099 21.9581 18.9188 22.4293 18.9266 22.9224L18.9866 27.1972C19.4846 27.1343 19.9903 27.234 20.4201 27.4799C20.85 27.7258 21.1781 28.103 21.3501 28.5492L22.3528 31.1536C23.8946 31.8599 25.0859 33.1049 25.6752 34.6258L26.9327 37.8923C26.9785 38.0115 26.9725 38.143 26.9158 38.2579C26.8591 38.3729 26.7565 38.4618 26.6305 38.5053L19.767 40.8673C19.7119 40.886 19.6538 40.8955 19.5953 40.8954ZM16.9076 21.9885C16.7677 21.9889 16.6294 22.0165 16.5013 22.0695C16.3299 22.1376 16.1821 22.2497 16.0747 22.3931C15.9673 22.5366 15.9044 22.7056 15.8934 22.881L15.3935 29.6385C15.2272 31.9429 15.8671 34.235 17.2148 36.1617L19.7966 39.8385L25.8086 37.77L24.7242 34.9528C24.4665 34.2877 24.0699 33.6784 23.5581 33.161C23.0462 32.6437 22.4296 32.229 21.7448 31.9415C21.6825 31.9155 21.6264 31.8779 21.5798 31.831C21.5332 31.784 21.4971 31.7286 21.4737 31.6681L20.3992 28.8769C20.179 28.3053 19.5158 27.9981 18.9205 28.1935C18.8565 28.2142 18.7946 28.2402 18.7354 28.2711C18.6589 28.3113 18.5726 28.3321 18.485 28.3313C18.3974 28.3306 18.3116 28.3083 18.2358 28.2668C18.16 28.2253 18.0969 28.1659 18.0527 28.0944C18.0085 28.0229 17.9847 27.9418 17.9836 27.859L17.9146 22.9364C17.9128 22.7968 17.8787 22.6592 17.8145 22.5335C17.7504 22.4077 17.6578 22.2968 17.5434 22.2086C17.365 22.0675 17.1402 21.9897 16.9076 21.9885Z" fill="white"/>
<path d="M32.4432 29.8309C32.2564 29.8276 32.0743 29.7744 31.918 29.6775C31.3397 29.3338 30.7535 28.9832 30.1864 28.6443L29.5603 28.2684C29.4179 28.2493 29.2734 28.2493 29.1309 28.2684L28.5049 28.6443C27.9378 28.9832 27.3515 29.3338 26.7736 29.6772C26.4721 29.8559 26.1447 29.8798 25.875 29.7428C25.6054 29.6058 25.4507 29.341 25.4413 29.0126C25.4323 28.6449 25.433 28.2732 25.4413 27.9066C25.4529 27.4624 25.6473 27.0722 25.9889 26.8132C26.3066 26.5709 26.6341 26.3369 26.9511 26.11C27.0812 26.017 27.2111 25.924 27.3407 25.8308C27.3902 25.7949 27.3899 25.7871 27.3899 25.7536C27.3855 25.1498 27.3848 24.5369 27.3837 23.9444C27.3837 23.6066 27.383 23.2689 27.3815 22.9313C26.9724 23.0533 26.3641 23.2357 25.7294 23.4264C24.8258 23.698 23.8882 23.9785 23.5246 24.0858C23.1609 24.1931 22.9043 24.1074 22.7572 24.0151C22.5646 23.8941 22.4453 23.6967 22.4214 23.4592C22.3723 22.9702 22.2703 21.9558 23.325 21.4221C23.4309 21.3537 24.0013 20.9779 24.6035 20.5777C25.412 20.0413 26.4186 19.374 27.0573 18.9575C27.3447 18.7699 27.3909 18.6735 27.3848 18.4791C27.3682 17.9594 27.4029 17.4414 27.4368 16.9415C27.4466 16.7946 27.4564 16.6477 27.465 16.5011C27.5012 15.8905 27.7285 15.3236 28.1059 14.9047C28.1133 14.8963 28.1213 14.8881 28.1297 14.8801C28.4901 14.5323 28.9119 14.3495 29.3456 14.3526H29.3536C29.7873 14.3526 30.2033 14.5344 30.5601 14.8788C30.5685 14.8865 30.5765 14.8947 30.584 14.9034C30.9613 15.3223 31.189 15.8902 31.2252 16.4994C31.2338 16.6463 31.2436 16.7932 31.2533 16.9402C31.2873 17.4411 31.322 17.9591 31.3054 18.4777C31.2993 18.6722 31.3455 18.7685 31.6332 18.9561C32.2715 19.3726 33.2782 20.0399 34.0867 20.5764C34.6889 20.9758 35.2593 21.3537 35.3652 21.4207C36.4188 21.9554 36.3168 22.9689 36.2688 23.4578C36.2449 23.6953 36.1242 23.8928 35.933 24.0137C35.7859 24.106 35.5332 24.1931 35.1649 24.0845C34.7966 23.9758 33.8659 23.6967 32.9601 23.425C32.3254 23.2344 31.7167 23.0519 31.3079 22.9299C31.3079 23.2675 31.3072 23.6052 31.3058 23.943C31.3058 24.5355 31.304 25.1485 31.2996 25.7519C31.2996 25.7861 31.2996 25.7936 31.3491 25.8295C31.4783 25.9226 31.608 26.0157 31.7384 26.1086C32.0554 26.3355 32.3829 26.5695 32.7006 26.8115C33.0421 27.0722 33.2366 27.4607 33.2482 27.9066C33.2579 28.2732 33.2586 28.6449 33.2482 29.0123C33.2402 29.341 33.0823 29.6071 32.8144 29.7428C32.7003 29.8007 32.5728 29.831 32.4432 29.8309ZM29.3456 27.2984C29.6261 27.2984 29.9062 27.3455 30.0642 27.4398L30.7274 27.8365C31.2237 28.1331 31.7344 28.4386 32.2412 28.7403C32.2444 28.4707 32.2412 28.1994 32.2354 27.9312C32.2311 27.7641 32.175 27.6418 32.0641 27.557C31.759 27.3243 31.4377 27.0947 31.1268 26.8736C30.9953 26.7798 30.8641 26.6856 30.7332 26.5911C30.3609 26.3222 30.285 25.9839 30.2865 25.7475C30.2908 25.1464 30.2915 24.5348 30.2926 23.943C30.2926 23.492 30.2938 23.0407 30.2962 22.5893C30.2962 22.4471 30.2962 22.1505 30.5619 21.9681C30.8276 21.7856 31.1225 21.8738 31.2656 21.9165C31.604 22.0162 32.4111 22.2582 33.2652 22.5148C34.0408 22.7475 34.8389 22.987 35.2784 23.1175C35.2979 22.6292 35.188 22.4146 34.8754 22.2599C34.8244 22.2349 34.8165 22.2308 33.5052 21.3612C32.698 20.8258 31.6936 20.1595 31.0578 19.7454C30.6671 19.4902 30.2709 19.1369 30.2933 18.4501C30.3085 17.9762 30.2767 17.5029 30.2431 17.0017C30.233 16.8523 30.2229 16.7027 30.2142 16.5534C30.1911 16.1574 30.0526 15.7972 29.8246 15.5372C29.6666 15.3886 29.504 15.3103 29.3547 15.3103H29.3388C29.1884 15.3103 29.0258 15.3886 28.8689 15.5372C28.6408 15.7972 28.5024 16.1574 28.4793 16.5537C28.4706 16.7027 28.4605 16.8523 28.4503 17.0017C28.4167 17.5029 28.3849 17.9762 28.4001 18.4504C28.4225 19.1369 28.0264 19.4902 27.636 19.7451C26.9999 20.1595 25.9954 20.8258 25.1883 21.3612C23.877 22.2308 23.869 22.2349 23.818 22.2599C23.5054 22.4146 23.3955 22.6292 23.415 23.1175C23.8549 22.9866 24.653 22.7475 25.4283 22.5148C26.2824 22.2585 27.0909 22.0162 27.4285 21.9161C27.5709 21.8741 27.868 21.7856 28.1315 21.9681C28.395 22.1505 28.3968 22.4464 28.3972 22.5896C28.3994 23.0406 28.4006 23.4918 28.4008 23.943C28.4008 24.5348 28.4026 25.1464 28.407 25.7475C28.407 25.9839 28.3325 26.3222 27.9606 26.5911C27.8295 26.6858 27.6982 26.78 27.5666 26.8736C27.2558 27.0957 26.9344 27.3254 26.6294 27.557C26.5184 27.6418 26.4624 27.7641 26.458 27.9312C26.4508 28.199 26.449 28.4703 26.4523 28.7403C26.9583 28.4389 27.4697 28.1331 27.966 27.8365L28.6274 27.4391C28.785 27.3455 29.0655 27.2984 29.3456 27.2984Z" fill="white"/>
</g>
<defs>
<clipPath id="clip0_595_644">
<rect width="30" height="30" fill="white" transform="translate(14.3525 14.3525)"/>
</clipPath>
</defs>
</svg>
