<svg width="59" height="59" viewBox="0 0 59 59" fill="none" xmlns="http://www.w3.org/2000/svg">
<circle cx="29.3523" cy="29.3523" r="29.3523" fill="#00C295"/>
<g clip-path="url(#clip0_595_612)">
<path d="M37.7177 41.1246C37.8657 41.2467 38.0863 41.2268 38.2087 41.0827C38.3326 40.9378 38.3135 40.7217 38.166 40.6005L36.7934 39.4699C36.6464 39.3487 36.4259 39.3665 36.3024 39.5118C36.1786 39.6566 36.1976 39.8728 36.3451 39.994L37.7177 41.1246Z" fill="white"/>
<path d="M35.594 40.5802C35.5287 40.4024 35.3281 40.311 35.148 40.3748C34.9669 40.4389 34.8735 40.635 34.9388 40.8128L35.5477 42.4675C35.599 42.607 35.7329 42.6935 35.8754 42.6935C36.1149 42.6935 36.2855 42.4595 36.203 42.2349L35.594 40.5802Z" fill="white"/>
<path d="M39.4643 38.6069C39.4965 38.4206 39.3686 38.2441 39.1789 38.2125L37.4124 37.9188C37.2264 37.8858 37.0426 38.0124 37.0108 38.1991C36.9786 38.3854 37.1066 38.5619 37.2962 38.5935L39.0627 38.8872C39.243 38.9201 39.4314 38.7992 39.4643 38.6069Z" fill="white"/>
<path d="M22.0238 43.1137C22.0656 43.0704 22.1463 43.0526 22.2076 43.112L23.2191 44.1066C23.5328 44.4148 24.0364 44.4267 24.3639 44.128L25.3957 43.1891C25.4586 43.133 25.5392 43.1534 25.5795 43.1989L26.1757 43.87C26.5032 44.2382 27.088 44.2416 27.4186 43.8709L28.0003 43.218C28.0461 43.1663 28.1256 43.1596 28.1791 43.2038L29.0122 43.8847C29.413 44.2119 30.0218 43.9332 30.0218 43.4199V33.0538C30.0218 32.4424 30.5287 31.945 31.1512 31.945C31.7742 31.945 32.2811 32.4424 32.282 33.0542L32.2865 36.1145C32.2874 37.0985 33.1038 37.8993 34.1061 37.8993C35.1103 37.8993 35.928 37.0985 35.9289 36.114C35.9325 33.3787 35.9325 29.1219 35.9325 29.1219C35.9325 28.5246 36.4167 28.0391 37.0194 28.0168L38.3388 28.0176C38.5312 28.0176 38.6873 27.8643 38.6873 27.6753C38.6873 27.4864 38.5316 27.3331 38.3388 27.3331C31.6474 27.3276 24.5409 27.3247 21.2756 27.3237C21.0832 27.3237 20.9271 27.477 20.9271 27.666C20.9271 27.8549 21.0828 28.0082 21.2756 28.0082L22.312 28.0088C22.0621 28.3156 21.9063 28.6994 21.9063 29.1219V30.0863C21.9063 30.2752 22.0624 30.4285 22.2548 30.4285C22.4472 30.4285 22.6033 30.2752 22.6033 30.0863V29.1219C22.6033 28.5697 23.0211 28.0393 23.7483 28.0096L35.6349 28.0161C35.3887 28.3218 35.2355 28.7028 35.2355 29.1219C35.2355 29.1219 35.2355 33.3778 35.2319 36.1131C35.231 36.7206 34.7264 37.2148 34.1061 37.2148C33.4876 37.2148 32.9844 36.721 32.9835 36.1136L32.979 33.0534C32.9781 32.0649 32.1581 31.2605 31.1512 31.2605H19.1869C17.9831 31.2605 17.0039 32.2222 17.0039 33.4045V43.6071C17.0039 44.1263 17.6272 44.4037 18.024 44.063L19.0417 43.1931C19.0936 43.148 19.1767 43.1516 19.2242 43.2073L19.8962 43.9983C20.2012 44.3594 20.7768 44.4014 21.1277 44.0384L22.0238 43.1137ZM20.4316 43.5603L19.7596 42.7688C19.4574 42.4129 18.9261 42.3844 18.5839 42.677L17.7009 43.4319V33.4045C17.7009 32.5997 18.3675 31.945 19.1869 31.945H29.7169C29.4714 32.2503 29.3248 32.6358 29.3248 33.0538V43.2497L28.6251 42.6779C28.2785 42.3945 27.7734 42.4337 27.4758 42.767L26.8941 43.4199C26.8433 43.4773 26.7524 43.4778 26.7012 43.4199L26.1045 42.7483C25.8007 42.408 25.2672 42.3724 24.922 42.6873L23.8902 43.6262C23.8384 43.6721 23.7608 43.6708 23.7118 43.6227L22.7004 42.628C22.3756 42.3081 21.8406 42.3095 21.5188 42.6422L20.6231 43.567C20.5763 43.6149 20.4882 43.6261 20.4316 43.5603Z" fill="white"/>
<path d="M15.0078 18.6238V32.8594C15.0078 33.4312 15.1798 33.9833 15.5051 34.4562C15.6127 34.613 15.8291 34.654 15.9888 34.548C16.1481 34.4424 16.1903 34.2298 16.0823 34.0729C15.8355 33.7137 15.7048 33.2939 15.7048 32.8594V18.6238C15.7048 17.4273 16.6963 16.4536 17.9151 16.4536H40.79C42.0083 16.4536 42.9998 17.4273 42.9998 18.6238V32.8594C42.9998 34.056 42.0083 35.0297 40.79 35.0297H39.1478C38.9554 35.0297 38.7993 35.183 38.7993 35.372C38.7993 35.5609 38.9554 35.7142 39.1478 35.7142H40.79C42.3927 35.7142 43.6968 34.4334 43.6968 32.8594V18.6238C43.6968 17.0498 42.3927 15.769 40.79 15.769H17.9151C16.3119 15.769 15.0078 17.0498 15.0078 18.6238Z" fill="white"/>
<path d="M21.1703 15.1555C21.2394 15.1195 21.0895 15.1482 25.0272 15.1386C25.0645 15.1386 25.0903 15.148 25.1048 15.1555C25.1244 15.3262 25.2718 15.459 25.4511 15.459C25.6435 15.459 25.7995 15.3057 25.7995 15.1168C25.7995 14.7451 25.4601 14.4541 25.0272 14.4541H21.2479C20.815 14.4541 20.4756 14.7451 20.4756 15.1168C20.4756 15.3057 20.6317 15.459 20.8241 15.459C21.0033 15.459 21.1508 15.3262 21.1703 15.1555Z" fill="white"/>
<path d="M35.7457 21.3491H28.9266C28.7342 21.3491 28.5781 21.5024 28.5781 21.6914C28.5781 21.8803 28.7342 22.0336 28.9266 22.0336H35.7457C35.9381 22.0336 36.0942 21.8803 36.0942 21.6914C36.0942 21.5024 35.9381 21.3491 35.7457 21.3491Z" fill="white"/>
<path d="M35.7459 23.8418H34.2245C34.0321 23.8418 33.876 23.9951 33.876 24.1841C33.876 24.373 34.0321 24.5263 34.2245 24.5263H35.7459C35.9383 24.5263 36.0944 24.373 36.0944 24.1841C36.0944 23.9951 35.9383 23.8418 35.7459 23.8418Z" fill="white"/>
<path d="M28.9266 23.8418C28.7342 23.8418 28.5781 23.9951 28.5781 24.1841C28.5781 24.373 28.7342 24.5263 28.9266 24.5263H32.3362C32.5286 24.5263 32.6846 24.373 32.6846 24.1841C32.6846 23.9951 32.5286 23.8418 32.3362 23.8418H28.9266Z" fill="white"/>
<path d="M27.7825 34.6821C27.7825 34.4931 27.6264 34.3398 27.434 34.3398H19.5536C19.3612 34.3398 19.2051 34.4931 19.2051 34.6821C19.2051 34.871 19.3612 35.0244 19.5536 35.0244H27.434C27.6264 35.0244 27.7825 34.871 27.7825 34.6821Z" fill="white"/>
<path d="M20.0321 36.8525C19.8397 36.8525 19.6836 37.0058 19.6836 37.1948C19.6836 37.3837 19.8397 37.537 20.0321 37.537H24.1241C24.3165 37.537 24.4726 37.3837 24.4726 37.1948C24.4726 37.0058 24.3165 36.8525 24.1241 36.8525H20.0321Z" fill="white"/>
<path d="M24.4726 39.7075C24.4726 39.5185 24.3165 39.3652 24.1241 39.3652H20.0321C19.8397 39.3652 19.6836 39.5185 19.6836 39.7075C19.6836 39.8964 19.8397 40.0497 20.0321 40.0497H24.1241C24.3165 40.0497 24.4726 39.8964 24.4726 39.7075Z" fill="white"/>
<path d="M27.067 36.5925C27.0549 36.3634 27.1117 36.2433 26.9929 36.1205C26.8293 35.9528 26.5204 36.0536 26.5174 36.3093L26.5143 36.6029C25.842 36.6968 25.5337 37.1119 25.5292 37.566C25.518 38.526 26.6812 38.464 26.8732 38.5744C27.0911 38.6204 27.3002 38.6981 27.2966 38.9162C27.2933 39.3946 26.3402 39.3079 25.9067 39.0702C25.5275 38.8708 25.3105 39.4309 25.6548 39.6053C25.9135 39.7429 26.1842 39.8083 26.4786 39.8322L26.4756 40.1066C26.4713 40.4672 27.0238 40.4795 27.0282 40.1124L27.0314 39.8194C27.693 39.7141 27.9978 39.3212 28.0023 38.8739C28.0128 37.9916 26.968 37.9989 26.6348 37.8834C26.4186 37.8332 26.2277 37.7625 26.23 37.5464C26.2354 37.0879 26.9737 37.0779 27.4488 37.3087C27.834 37.502 28.0426 37.024 27.7421 36.8328C27.5471 36.693 27.3081 36.6249 27.067 36.5925Z" fill="white"/>
<path d="M24.9397 21.0432C25.0862 21.1653 25.3063 21.1466 25.4306 21.0022C25.5545 20.8578 25.5364 20.6422 25.3889 20.52C24.9437 20.1511 24.4011 19.9233 23.8193 19.8614C22.2036 19.6945 20.7757 20.8384 20.604 22.4051C20.4312 23.9804 21.5893 25.3933 23.1941 25.5629C24.8065 25.7314 26.2373 24.5894 26.4094 23.0192C26.4298 22.8316 26.2914 22.6627 26.0999 22.6422C25.9089 22.6213 25.7369 22.7576 25.716 22.9461C25.5824 24.1647 24.4644 25.0137 23.2685 24.882C22.0477 24.7529 21.1649 23.678 21.2973 22.4782C21.4898 20.723 23.5994 19.9331 24.9397 21.0432Z" fill="white"/>
<path d="M40.4514 33.8229C40.6438 33.8229 40.7999 33.6696 40.7999 33.4807V19.2125C40.7999 18.4028 40.1338 17.7441 39.3152 17.7441H18.3275C17.5089 17.7441 16.8428 18.4028 16.8428 19.2125V30.19C16.8428 30.379 16.9989 30.5323 17.1913 30.5323C17.3837 30.5323 17.5397 30.379 17.5397 30.19V19.2125C17.5397 18.7803 17.8932 18.4286 18.3275 18.4286H39.3152C39.7495 18.4286 40.1029 18.7803 40.1029 19.2125V33.4807C40.1029 33.6696 40.259 33.8229 40.4514 33.8229Z" fill="white"/>
<path d="M26.4808 21.0249C26.3605 20.8769 26.1418 20.8542 25.9907 20.9705L23.4129 22.9884L22.7382 22.1871C22.6152 22.0414 22.396 22.0218 22.2472 22.1417C22.0993 22.2624 22.0784 22.4781 22.2009 22.6238L23.0939 23.684C23.2148 23.827 23.4296 23.8499 23.5799 23.7335L26.4254 21.5062C26.5756 21.3881 26.6006 21.1728 26.4808 21.0249Z" fill="white"/>
<path d="M42.1355 26.2536V25.9394C42.1355 25.7505 41.9794 25.5972 41.787 25.5972C41.5946 25.5972 41.4385 25.7505 41.4385 25.9394V26.2536C41.4385 26.4426 41.5946 26.5959 41.787 26.5959C41.9794 26.5959 42.1355 26.4426 42.1355 26.2536Z" fill="white"/>
</g>
<defs>
<clipPath id="clip0_595_612">
<rect width="29" height="30" fill="white" transform="translate(14.8525 14.3525)"/>
</clipPath>
</defs>
</svg>
