<svg width="59" height="59" viewBox="0 0 59 59" fill="none" xmlns="http://www.w3.org/2000/svg">
<circle cx="29.3523" cy="29.3523" r="29.3523" fill="#D91A66"/>
<g clip-path="url(#clip0_595_585)">
<path fill-rule="evenodd" clip-rule="evenodd" d="M26.0636 20.3435L24.1647 19.4556C24.0082 19.3824 23.9088 19.229 23.9088 19.0608C23.9088 18.8925 24.0082 18.739 24.1647 18.6659L33.2106 14.4361C33.3349 14.3781 33.4798 14.3781 33.604 14.4361L42.6501 18.6659C42.7477 18.7116 42.8231 18.7885 42.866 18.8808C43.5435 19.2182 43.9941 19.8666 43.9941 20.6019V21.7776C44.7453 21.958 45.2874 22.5764 45.2874 23.2905C45.2874 24.1415 44.5176 24.8565 43.5416 24.8565C42.5656 24.8565 41.7959 24.1415 41.7959 23.2905C41.7959 22.5764 42.3379 21.958 43.0891 21.7776V20.6019C43.0891 20.1518 42.7701 19.7743 42.3278 19.6063L40.7511 20.3435V22.8295V22.8401V24.6076V24.6182C40.7511 24.814 40.6183 24.98 40.4353 25.0362L33.604 28.2304C33.4798 28.2885 33.3349 28.2885 33.2106 28.2304L26.3195 25.0082C26.2399 24.971 26.1766 24.9141 26.1329 24.8464C26.0891 24.7789 26.0636 24.699 26.0636 24.6133V22.8343V20.3435ZM33.4074 22.8037L41.4123 19.0608L33.4074 15.3178L25.4024 19.0608L33.4074 22.8037ZM43.5416 22.6014C43.0898 22.6014 42.7009 22.8966 42.7009 23.2905C42.7009 23.6844 43.0898 23.9796 43.5416 23.9796C43.9934 23.9796 44.3823 23.6844 44.3823 23.2905C44.3823 22.8966 43.9934 22.6014 43.5416 22.6014ZM39.846 22.56V20.7667L33.604 23.6853C33.4798 23.7435 33.3349 23.7435 33.2106 23.6853L26.9687 20.7667V22.56C28.1944 23.1332 33.4074 25.5706 33.4074 25.5706L39.846 22.56ZM26.9687 23.5337V24.3381C28.1944 24.9113 33.4074 27.3487 33.4074 27.3487L39.846 24.3381V23.5336L33.604 26.4523C33.4798 26.5104 33.3349 26.5104 33.2106 26.4523L26.9687 23.5337ZM18.8228 42.1469C18.8511 42.2128 18.8794 42.2786 18.9077 42.3445L18.9079 42.345C19.015 42.5959 19.0152 42.8488 18.9093 43.1015L18.9085 43.1034C18.8014 43.3524 18.6169 43.532 18.3568 43.6381L18.3557 43.6385L17.0234 44.1736C16.5046 44.3833 15.9041 44.1425 15.6889 43.6405C14.9372 41.8905 14.1845 40.1406 13.4328 38.3907C13.3236 38.14 13.3233 37.8855 13.4311 37.633C13.5386 37.3811 13.7244 37.2012 13.9828 37.097L15.3166 36.5607C15.835 36.3522 16.4336 36.5907 16.6509 37.0933L16.6511 37.0938C16.671 37.1401 16.6909 37.1864 16.7108 37.2327C17.317 36.9547 17.9223 36.6748 18.525 36.3892C19.4378 35.9565 20.1593 35.6767 20.9975 35.7864C21.5392 35.8573 22.1366 36.0917 22.8679 36.5843L25.3039 37.2166C25.722 37.3251 26.0594 37.584 26.2706 37.9173L29.6027 36.9703C31.1771 36.5228 32.0431 36.8788 32.4258 37.38C32.6905 37.7266 32.7631 38.1748 32.664 38.6184C32.5277 39.2287 32.0612 39.8199 31.4271 40.0569L26.2243 41.9992C25.3234 42.3351 24.1176 42.7929 23.1508 42.5209L20.3791 41.7419L20.3784 41.7418C20.0874 41.6595 19.8083 41.6823 19.5355 41.8111L18.8228 42.1469ZM16.0564 37.9919C15.9761 37.8049 15.8957 37.6179 15.8154 37.4308C15.7903 37.3741 15.7225 37.347 15.6636 37.3707L14.3306 37.9066C14.3011 37.9186 14.28 37.9393 14.2676 37.9681C14.2559 37.9956 14.2552 38.0233 14.2677 38.0519L14.2683 38.0533C15.0201 39.8033 15.773 41.5534 16.5248 43.3037L16.5249 43.3039C16.5491 43.3604 16.6166 43.3878 16.6758 43.3638L18.0073 42.8291L18.0084 42.8286C18.0377 42.8162 18.0593 42.7962 18.0725 42.7668C18.0838 42.738 18.0836 42.709 18.0714 42.6802C17.989 42.4884 17.9066 42.2965 17.8241 42.1047C17.8233 42.1028 17.8225 42.1008 17.8216 42.0988C17.234 40.7312 16.6458 39.3636 16.058 37.9956C16.0575 37.9944 16.057 37.9932 16.0564 37.9919ZM18.4743 41.3359L19.139 41.0226C19.6223 40.7946 20.1168 40.7541 20.6313 40.8997L23.4031 41.6787C23.7682 41.7814 24.1767 41.7271 24.5794 41.6271C25.046 41.5113 25.5049 41.3277 25.899 41.1808L31.1012 39.2387C31.4533 39.1071 31.7036 38.7718 31.7792 38.433C31.8214 38.2438 31.811 38.0494 31.6981 37.9016C31.6004 37.7737 31.4316 37.6923 31.1944 37.6569C30.8612 37.6073 30.4221 37.6514 29.8576 37.8118L26.5139 38.7621C26.5126 38.8916 26.4947 39.0228 26.4586 39.1532C26.2264 39.9933 25.326 40.4971 24.4596 40.2709L21.1192 39.4043C20.8779 39.3416 20.7344 39.101 20.799 38.8673C20.8637 38.6335 21.1121 38.4945 21.3533 38.5571L24.6938 39.4237L24.6945 39.4239C25.0804 39.5246 25.4809 39.3002 25.5842 38.9263C25.6876 38.5522 25.4559 38.1639 25.0698 38.0637L22.5562 37.4114C22.5043 37.3979 22.4552 37.3755 22.4114 37.3454C21.8043 36.928 21.3209 36.7137 20.8762 36.6555C20.2101 36.5683 19.6482 36.8331 18.9227 37.1769C18.3036 37.4704 17.6818 37.7578 17.059 38.0433C17.5307 39.1408 18.0026 40.2383 18.4743 41.3359ZM31.9146 43.2031L32.4252 43.4052C32.6564 43.4967 32.7674 43.7529 32.6728 43.9769C32.5784 44.2009 32.314 44.3084 32.0827 44.2169L29.8652 43.3388C29.7156 43.2796 29.6099 43.1475 29.588 42.9923C29.5662 42.8371 29.6315 42.6824 29.7593 42.5865L31.6528 41.1649C31.8503 41.0167 32.1348 41.0517 32.2877 41.243C32.4408 41.4342 32.4046 41.7098 32.2072 41.858C32.2072 41.858 31.8564 42.1214 31.523 42.3717C38.2658 41.4972 43.4731 35.8958 43.4731 29.1256C43.4731 28.2713 43.3902 27.4357 43.2318 26.6258C43.1853 26.3881 43.3467 26.1585 43.5921 26.1135C43.8375 26.0684 44.0745 26.2248 44.121 26.4626C44.2897 27.3253 44.3781 28.2155 44.3781 29.1256C44.3781 36.2491 38.9679 42.1579 31.9146 43.2031ZM27.05 30.6466C28.8688 30.6466 30.3434 32.0752 30.3434 33.8374C30.3434 35.5995 28.8688 37.0278 27.05 37.0278C25.2312 37.0278 23.7566 35.5995 23.7566 33.8374C23.7566 32.0752 25.2312 30.6466 27.05 30.6466ZM27.05 31.5235C25.731 31.5235 24.6617 32.5595 24.6617 33.8374C24.6617 35.1152 25.731 36.1509 27.05 36.1509C28.369 36.1509 29.4384 35.1152 29.4384 33.8374C29.4384 32.5595 28.369 31.5235 27.05 31.5235ZM26.5895 32.288L26.5892 32.2779C26.5832 32.036 26.781 31.8349 27.0307 31.829C27.2804 31.8232 27.488 32.0149 27.494 32.2567L27.4949 32.2909C27.5554 32.3128 27.6151 32.3384 27.6714 32.3672C27.8372 32.4521 27.9718 32.5661 28.0478 32.6783C28.1851 32.8804 28.127 33.1525 27.9184 33.2854C27.7156 33.4146 27.4447 33.3651 27.3036 33.1768C27.2817 33.165 27.1178 33.0783 27.05 33.0783C26.9265 33.0783 26.804 33.1373 26.804 33.2441C26.804 33.351 26.9265 33.41 27.05 33.41C27.6993 33.41 28.2011 33.891 28.2011 34.4527C28.2011 34.8712 27.9221 35.2453 27.511 35.4086C27.5102 35.645 27.3149 35.8396 27.0695 35.8454C26.8208 35.8513 26.6139 35.6613 26.6061 35.4208C26.4447 35.3579 26.3078 35.2556 26.1552 35.1164C25.9735 34.9505 25.9649 34.6728 26.1362 34.4967C26.3074 34.3205 26.594 34.3122 26.7759 34.4781C26.8622 34.557 26.9228 34.6186 27.05 34.6186C27.1736 34.6186 27.2961 34.5595 27.2961 34.4527C27.2961 34.3458 27.1736 34.2869 27.05 34.2869C26.4008 34.2869 25.8989 33.8059 25.8989 33.2441C25.8989 32.8251 26.1781 32.451 26.5895 32.288ZM17.072 34.5579C17.1737 34.7789 17.0711 35.0384 16.843 35.1369C16.6149 35.2355 16.3472 35.1361 16.2454 34.915C15.431 33.1458 14.9781 31.1865 14.9781 29.1256C14.9781 22.7699 19.2848 17.3809 25.2228 15.551C25.4608 15.4776 25.7155 15.6053 25.7912 15.8359C25.8669 16.0665 25.7352 16.3132 25.4971 16.3866C19.9247 18.1039 15.8831 23.1611 15.8831 29.1256C15.8831 31.0594 16.3078 32.8978 17.072 34.5579Z" fill="white"/>
</g>
<defs>
<clipPath id="clip0_595_585">
<rect width="32" height="30" fill="white" transform="translate(13.3516 14.3525)"/>
</clipPath>
</defs>
</svg>
