<svg width="59" height="59" viewBox="0 0 59 59" fill="none" xmlns="http://www.w3.org/2000/svg">
<circle cx="29.3523" cy="29.3523" r="29.3523" fill="#569E2F"/>
<g clip-path="url(#clip0_595_545)">
<path fill-rule="evenodd" clip-rule="evenodd" d="M29.3638 33.928C25.4391 33.928 22.2451 30.6834 22.2451 26.6963C22.2451 24.5737 23.157 22.5658 24.7498 21.189L25.2049 21.7322C23.7698 22.9741 22.9494 24.7828 22.9494 26.6962C22.9494 30.2902 25.8261 33.2142 29.3638 33.2142C32.9016 33.2142 35.7817 30.2901 35.7817 26.6962C35.7817 24.7828 34.9579 22.9741 33.5245 21.7322L33.9812 21.189C35.5707 22.5658 36.4842 24.5737 36.4842 26.6963C36.4826 30.6834 33.2886 33.928 29.3638 33.928Z" fill="white"/>
<path fill-rule="evenodd" clip-rule="evenodd" d="M29.3636 32.0498C26.457 32.0498 24.0918 29.6488 24.0918 26.696C24.0918 24.5819 25.3209 22.6584 27.2243 21.7996L27.51 22.4525C25.8607 23.1966 24.7944 24.862 24.7944 26.696C24.7944 29.254 26.844 31.3361 29.3636 31.3361C31.8832 31.3361 33.9312 29.254 33.9312 26.696C33.9312 24.862 32.8665 23.1966 31.2188 22.4525L31.5046 21.7996C33.4063 22.6601 34.6354 24.5819 34.6354 26.696C34.6337 29.6471 32.2703 32.0498 29.3636 32.0498Z" fill="white"/>
<path fill-rule="evenodd" clip-rule="evenodd" d="M29.3639 29.9967C29.1696 29.9967 29.0118 29.8381 29.0118 29.639V29.3404C28.1515 29.2003 27.4971 28.5558 27.4971 27.783C27.4971 27.5873 27.6549 27.427 27.8492 27.427C28.0435 27.427 28.1996 27.5856 28.1996 27.783C28.1996 28.2639 28.7228 28.6553 29.3639 28.6553C30.0051 28.6553 30.5282 28.2639 30.5282 27.783C30.5282 27.1908 30.113 27.049 29.2344 26.8836C28.9487 26.8296 28.6796 26.779 28.4537 26.6845C27.9405 26.4686 27.6697 26.0484 27.6697 25.4696C27.6697 24.7745 28.2461 24.194 29.0118 24.0557V23.752C29.0118 23.5546 29.1696 23.3943 29.3639 23.3943C29.5582 23.3943 29.716 23.5546 29.716 23.752V24.0557C30.4817 24.194 31.0596 24.7745 31.0596 25.4696C31.0596 25.6654 30.9018 25.8257 30.7075 25.8257C30.5132 25.8257 30.3554 25.667 30.3554 25.4696C30.3554 25.0732 29.902 24.7374 29.3639 24.7374C28.8257 24.7374 28.3706 25.0732 28.3706 25.4696C28.3706 25.8088 28.5102 25.937 28.7211 26.0248C28.8789 26.0923 29.1131 26.1361 29.3605 26.1817C30.1046 26.3217 31.2291 26.5326 31.2291 27.7829C31.2291 28.5557 30.5763 29.2002 29.7143 29.3403V29.6389C29.7143 29.838 29.5582 29.9967 29.3639 29.9967L29.3639 29.9967Z" fill="white"/>
<path fill-rule="evenodd" clip-rule="evenodd" d="M29.3642 22.613C27.5421 22.613 25.7201 22.311 24.6937 21.7103C24.5857 21.6462 24.5176 21.5281 24.5176 21.4015V18.7559H25.2202V21.1872C26.1071 21.6276 27.6634 21.8976 29.3609 21.8976H29.3675C31.065 21.8976 32.6196 21.6276 33.5065 21.1872V18.7559H34.2091V21.4015C34.2091 21.5281 34.1427 21.6462 34.033 21.7103C33.0082 22.311 31.1862 22.613 29.3642 22.613Z" fill="white"/>
<path fill-rule="evenodd" clip-rule="evenodd" d="M29.364 20.671C29.3258 20.671 29.2876 20.6642 29.2494 20.6524L21.2073 17.8616C21.0661 17.8127 20.9697 17.676 20.9697 17.5242C20.9697 17.3723 21.0661 17.2357 21.2073 17.1867L29.2494 14.3976C29.3242 14.3723 29.4039 14.3723 29.477 14.3976L37.5192 17.1867C37.6603 17.2357 37.7567 17.3723 37.7567 17.5242C37.7567 17.676 37.6604 17.8127 37.5192 17.8616L29.477 20.6524C29.4404 20.6642 29.4022 20.671 29.364 20.671H29.364ZM22.4081 17.5242L29.364 19.937L36.3184 17.5242L29.364 15.1113L22.4081 17.5242Z" fill="white"/>
<path fill-rule="evenodd" clip-rule="evenodd" d="M37.4058 21.7579C37.2114 21.7579 37.0537 21.5976 37.0537 21.4001V17.5228C37.0537 17.327 37.2115 17.1667 37.4058 17.1667C37.6001 17.1667 37.7579 17.3254 37.7579 17.5228V21.4002C37.7563 21.5976 37.6001 21.7579 37.4058 21.7579Z" fill="white"/>
<path fill-rule="evenodd" clip-rule="evenodd" d="M21.593 41.0501L20.8921 41.0265C20.927 39.9213 20.3307 39.3746 19.5733 38.6811C19.4205 38.541 19.2627 38.3977 19.1049 38.2424C17.7014 36.8724 16.185 35.2863 15.9592 33.7778C15.8346 32.9578 15.916 25.5742 16.4558 23.7621C17.0039 21.9145 17.8709 21.7255 18.5037 21.8942C19.1149 22.0343 19.7627 22.7075 19.7544 24.1805C19.7528 24.3442 19.7528 24.5146 19.7511 24.6934C19.7361 26.4229 19.7145 28.9403 20.0218 30.6884C20.1845 30.6023 20.3689 30.5534 20.5715 30.5416C22.4584 30.4319 25.6739 33.6681 26.2851 34.5135C27.285 35.8937 27.2103 38.514 27.1389 41.0467L26.4363 41.0265C26.5011 38.7267 26.5758 36.1181 25.7187 34.9371C25.0328 33.9855 22.0148 31.1744 20.6114 31.2537C20.3788 31.2672 20.2244 31.36 20.1131 31.5574C20.0417 31.6823 19.9038 31.7515 19.761 31.7329C19.6199 31.7127 19.5053 31.608 19.4687 31.468C19.0053 29.6542 19.0302 26.7824 19.0485 24.6868C19.0501 24.508 19.0518 24.3375 19.0518 24.1756C19.0568 23.1885 18.7014 22.6671 18.3459 22.5895C18.3409 22.5878 18.3343 22.5861 18.3293 22.5844C17.8444 22.4528 17.4408 22.9185 17.1285 23.968C16.6269 25.6553 16.5355 32.8853 16.6535 33.6683C16.8479 34.9556 18.2712 36.4388 19.5917 37.7279C19.7429 37.873 19.8956 38.0147 20.0434 38.1497C20.8656 38.9022 21.6412 39.6143 21.5931 41.0502L21.593 41.0501Z" fill="white"/>
<path fill-rule="evenodd" clip-rule="evenodd" d="M27.1472 44.3756H20.8839C20.2345 44.3756 19.708 43.8407 19.708 43.1827V41.875C19.708 41.217 20.2345 40.6804 20.8839 40.6804H27.1473C27.7951 40.6804 28.3232 41.217 28.3232 41.875V43.1827C28.3232 43.8407 27.7951 44.3756 27.1473 44.3756H27.1472ZM20.8839 41.3942C20.6231 41.3942 20.4105 41.6101 20.4105 41.8734V43.1811C20.4105 43.446 20.6231 43.662 20.8839 43.662H27.1472C27.408 43.662 27.6189 43.446 27.6189 43.1811V41.8734C27.6189 41.6085 27.4063 41.3942 27.1472 41.3942H20.8839Z" fill="white"/>
<path fill-rule="evenodd" clip-rule="evenodd" d="M21.7007 35.1547C21.6143 35.1547 21.5263 35.1226 21.4582 35.0568C19.5979 33.2615 18.98 32.0332 19.5132 31.1878C19.6178 31.0208 19.8338 30.9735 19.9982 31.0781C20.1609 31.1861 20.2091 31.4054 20.1045 31.5725C19.9633 31.7953 19.8603 32.5309 21.9414 34.5388C22.0826 34.6754 22.0893 34.8998 21.9547 35.0433C21.8867 35.1175 21.7937 35.1547 21.7007 35.1547Z" fill="white"/>
<path fill-rule="evenodd" clip-rule="evenodd" d="M37.1377 41.0501C37.0879 39.6125 37.8652 38.9022 38.6857 38.1496C38.8335 38.0146 38.9863 37.8746 39.1358 37.7278C40.4579 36.4387 41.883 34.9556 42.0756 33.6682C42.1936 32.8869 42.1022 25.6569 41.6023 23.9696C41.2884 22.9184 40.8847 22.4528 40.3997 22.586C40.3948 22.5877 40.3881 22.5877 40.3832 22.5894C40.0277 22.6687 39.6706 23.1901 39.6773 24.1755C39.6789 24.3459 39.6806 24.5265 39.6823 24.7137C39.6988 26.8026 39.7205 29.6625 39.262 31.4696C39.2255 31.6097 39.1109 31.7126 38.9681 31.7328C38.8269 31.7514 38.689 31.6839 38.6176 31.5574C38.5063 31.3616 38.3519 31.2671 38.1193 31.2553C36.7158 31.176 33.698 33.9854 33.0103 34.937C32.1533 36.1198 32.2263 38.7266 32.2928 41.0281L31.5902 41.0484C31.5187 38.5141 31.444 35.8937 32.4439 34.5135C33.0551 33.6682 36.2706 30.4353 38.1575 30.5416C38.3618 30.5534 38.5461 30.6024 38.7089 30.6884C39.0128 28.9471 38.9929 26.4415 38.9796 24.7187C38.978 24.5315 38.9763 24.3509 38.9746 24.1805C38.9647 22.7092 39.6124 22.0359 40.2253 21.8942C40.8565 21.7255 41.7235 21.9144 42.2732 23.7637C42.813 25.5775 42.8944 32.9594 42.7699 33.7778C42.5423 35.2862 41.0259 36.874 39.6241 38.2424C39.4663 38.3976 39.3085 38.541 39.1557 38.681C38.3999 39.3745 37.802 39.9212 37.8385 41.0264L37.1376 41.05L37.1377 41.0501Z" fill="white"/>
<path fill-rule="evenodd" clip-rule="evenodd" d="M37.8472 44.3756H31.5822C30.9344 44.3756 30.4062 43.8407 30.4062 43.1827V41.875C30.4062 41.217 30.9344 40.6804 31.5822 40.6804H37.8472C38.4949 40.6804 39.0215 41.217 39.0215 41.875V43.1827C39.0231 43.8407 38.4949 44.3756 37.8472 44.3756ZM31.5822 41.3942C31.3214 41.3942 31.1105 41.6101 31.1105 41.8734V43.1811C31.1105 43.446 31.3214 43.662 31.5822 43.662H37.8472C38.1079 43.662 38.3189 43.446 38.3189 43.1811V41.8734C38.3189 41.6085 38.1079 41.3942 37.8472 41.3942H31.5822Z" fill="white"/>
<path fill-rule="evenodd" clip-rule="evenodd" d="M37.028 35.1547C36.935 35.1547 36.8419 35.1175 36.7738 35.0433C36.6393 34.9016 36.6459 34.6755 36.7854 34.5388C38.8666 32.5309 38.7653 31.7952 38.6257 31.5708C38.5211 31.4055 38.5693 31.1845 38.732 31.0782C38.8965 30.9719 39.1141 31.0208 39.217 31.1879C39.7485 32.0332 39.129 33.2616 37.2704 35.0569C37.2023 35.1226 37.1143 35.1547 37.0279 35.1547L37.028 35.1547Z" fill="white"/>
</g>
<defs>
<clipPath id="clip0_595_545">
<rect width="30" height="30" fill="white" transform="translate(14.3535 14.3525)"/>
</clipPath>
</defs>
</svg>
