<svg width="59" height="59" viewBox="0 0 59 59" fill="none" xmlns="http://www.w3.org/2000/svg">
<circle cx="29.3523" cy="29.3523" r="29.3523" fill="#EFBB4C"/>
<g clip-path="url(#clip0_595_465)">
<path fill-rule="evenodd" clip-rule="evenodd" d="M32.1122 42.2832C31.91 42.2832 31.71 42.2643 31.5029 42.2257C30.5446 42.0454 29.528 41.4316 27.5024 40.2091C27.1036 39.9681 26.6652 39.7037 26.1793 39.4131C24.5877 38.4623 24.1733 38.7444 22.9436 39.5835C22.7614 39.7076 22.5554 39.848 22.3312 39.9936C22.1597 40.1046 21.9342 40.0524 21.8262 39.8767C21.7184 39.701 21.7691 39.4693 21.9399 39.3582C22.1572 39.2165 22.3515 39.0846 22.5389 38.9566C23.843 38.0665 24.562 37.5767 26.5471 38.7626C27.0336 39.0539 27.4732 39.319 27.8727 39.56C29.8243 40.738 30.8035 41.3291 31.6344 41.4852C32.4394 41.6366 33.2059 41.3807 34.7342 40.8713C35.7063 40.5474 36.9148 40.1445 38.6191 39.6749L43.4729 38.3382C43.8628 38.2304 44.1892 37.9718 44.3931 37.6094C44.5966 37.2469 44.651 36.8264 44.5468 36.4261C44.4422 36.0251 44.1904 35.6895 43.8379 35.4805C43.4855 35.2708 43.0763 35.2147 42.6869 35.3224L36.0999 37.1365C36.0619 37.3573 35.9862 37.5709 35.8744 37.77C35.6212 38.2213 35.2106 38.5445 34.7183 38.6797C34.2262 38.8156 33.7134 38.747 33.2745 38.4864L29.3561 36.1602C29.1814 36.0564 29.1216 35.8266 29.2225 35.647C29.3238 35.4667 29.5471 35.4054 29.7218 35.5092L33.6406 37.8346C33.9098 37.9946 34.2254 38.0371 34.529 37.9535C34.8323 37.8699 35.0848 37.6708 35.2405 37.3939C35.3359 37.224 35.3878 37.0373 35.3955 36.846C35.3956 36.8348 35.3955 36.8244 35.3967 36.814C35.3982 36.7029 35.3847 36.5906 35.3561 36.4803C35.275 36.1688 35.081 35.9089 34.8117 35.7489L30.8939 33.4227C27.8094 31.5923 26.2695 30.7094 24.9744 30.633C23.6856 30.5578 22.4945 31.2808 20.1233 32.722C19.7024 32.978 19.2251 33.2686 18.7112 33.5756C18.5362 33.68 18.3123 33.6193 18.2107 33.4397C18.1091 33.2601 18.1687 33.0296 18.3434 32.9251C18.8549 32.6195 19.3312 32.3302 19.7511 32.0749C22.2501 30.5559 23.5032 29.7931 25.0163 29.882C26.4806 29.9681 27.9884 30.8302 31.2596 32.7717L35.1778 35.0971C35.6166 35.3577 35.9309 35.7796 36.0624 36.2857C36.0697 36.3111 36.0758 36.3372 36.0809 36.3627L42.4977 34.5956C43.0765 34.4362 43.6817 34.5192 44.2038 34.8288C44.7255 35.1382 45.0982 35.6365 45.2532 36.2315C45.4084 36.8257 45.3281 37.4487 45.0264 37.9855C44.7255 38.5217 44.2407 38.905 43.662 39.0644L38.8086 40.4018C37.1227 40.8661 35.9233 41.2657 34.9603 41.587C33.6603 42.02 32.8718 42.2832 32.1122 42.2832Z" fill="white"/>
<path fill-rule="evenodd" clip-rule="evenodd" d="M14.2408 33.2372L19.968 43.4351L22.8598 41.7183L17.1335 31.5204L14.2408 33.2372ZM19.8345 44.3252C19.7082 44.3252 19.5847 44.2573 19.5167 44.1371L13.4239 33.2875C13.3756 33.2013 13.3622 33.0988 13.3876 33.0021C13.4125 32.9061 13.474 32.8239 13.5579 32.7736L17.0841 30.6806C17.1684 30.6309 17.2681 30.6172 17.3621 30.6434C17.4557 30.6688 17.5355 30.7322 17.5838 30.8184L23.6768 41.6679C23.7777 41.8475 23.718 42.0774 23.5426 42.1819L20.0169 44.2742C19.9588 44.3088 19.8959 44.3252 19.8345 44.3252Z" fill="white"/>
<path fill-rule="evenodd" clip-rule="evenodd" d="M42.563 35.3433C42.3609 35.3433 42.197 35.1748 42.197 34.9672L42.1971 16.652C42.1971 15.8142 41.5338 15.1318 40.7183 15.1318L24.8408 15.1317C24.0259 15.1317 23.3626 15.8142 23.3626 16.652L23.3627 30.6786C23.3627 30.8869 23.1987 31.0548 22.9967 31.0548C22.7948 31.0548 22.6309 30.887 22.6309 30.6786L22.631 16.652C22.631 15.3988 23.6224 14.3794 24.8407 14.3794L40.7184 14.3794C41.9373 14.3794 42.9287 15.3988 42.9287 16.652L42.9289 34.9671C42.9289 35.1748 42.7649 35.3433 42.563 35.3433Z" fill="white"/>
<path fill-rule="evenodd" clip-rule="evenodd" d="M26.663 31.0599C26.4609 31.0599 26.2969 30.8915 26.2969 30.6838L26.2971 14.7555C26.2971 14.5479 26.4608 14.3794 26.6628 14.3794C26.8648 14.3794 27.0286 14.5479 27.0286 14.7555L27.0289 30.6838C27.0289 30.8915 26.8648 31.06 26.663 31.0599Z" fill="white"/>
<path fill-rule="evenodd" clip-rule="evenodd" d="M34.6125 17.1366C31.8257 17.1366 29.558 19.4673 29.558 22.3328C29.5582 25.1977 31.8256 27.5291 34.6122 27.5291C37.3997 27.5291 39.6665 25.1977 39.6665 22.3328C39.6667 19.4672 37.3995 17.1366 34.6125 17.1366ZM34.6125 28.2814C31.4225 28.2814 28.8262 25.6124 28.8262 22.3328C28.8264 19.0526 31.4222 16.3843 34.6122 16.3843C37.803 16.3842 40.3983 19.0526 40.3983 22.3328C40.3984 25.6124 37.8029 28.2814 34.6125 28.2814Z" fill="white"/>
<path fill-rule="evenodd" clip-rule="evenodd" d="M34.6129 17.1365C33.6264 17.1365 32.5267 19.2707 32.5267 22.3328C32.5268 25.3949 33.6262 27.529 34.6127 27.529C35.5999 27.529 36.6993 25.3949 36.6993 22.3328C36.6995 19.2707 35.5998 17.1366 34.6129 17.1365ZM34.6129 28.2813C33.8062 28.2813 33.0717 27.6231 32.5458 26.428C32.0617 25.3276 31.7949 23.8733 31.7949 22.3328C31.7951 20.7916 32.0617 19.3373 32.5458 18.2376C33.0719 17.0425 33.806 16.3843 34.6127 16.3843C35.4201 16.3842 36.1543 17.0425 36.6803 18.2376C37.1643 19.3373 37.4311 20.7916 37.4311 22.3328C37.4313 23.8733 37.1643 25.3277 36.6803 26.428C36.1544 27.6231 35.42 28.2814 34.6129 28.2813Z" fill="white"/>
<path fill-rule="evenodd" clip-rule="evenodd" d="M34.6124 20.1877C31.6339 20.1877 29.5579 21.3181 29.5579 22.3329C29.5581 23.347 31.6338 24.4775 34.6122 24.4775C37.5915 24.4775 39.6665 23.3471 39.6665 22.3329C39.6666 21.3181 37.5913 20.1877 34.6124 20.1877ZM34.6124 25.2298C33.114 25.2298 31.6992 24.9555 30.6288 24.4579C29.4667 23.9171 28.8262 23.1623 28.8262 22.3329C28.8264 21.5029 29.4665 20.748 30.6288 20.2073C31.6994 19.7096 33.1138 19.436 34.6122 19.436C36.1114 19.436 37.5259 19.7097 38.5956 20.2073C39.7581 20.748 40.3983 21.5029 40.3983 22.3329C40.3984 23.1623 39.7581 23.9172 38.5956 24.4579C37.526 24.9555 36.1113 25.2298 34.6124 25.2298Z" fill="white"/>
<path fill-rule="evenodd" clip-rule="evenodd" d="M34.6122 28.2813C34.4101 28.2813 34.2461 28.1128 34.2461 27.9052L34.2463 16.7604C34.2463 16.5527 34.4099 16.3843 34.612 16.3843C34.814 16.3842 34.9778 16.5527 34.9778 16.7604L34.9781 27.9052C34.9781 28.1128 34.814 28.2813 34.6122 28.2813Z" fill="white"/>
<path fill-rule="evenodd" clip-rule="evenodd" d="M39.2155 30.3788H30.0096C29.8076 30.3788 29.6436 30.2103 29.6436 30.0027C29.6438 29.7949 29.8074 29.6265 30.0094 29.6265L39.2155 29.6265C39.4175 29.6265 39.5813 29.795 39.5813 30.0027C39.5813 30.2103 39.4174 30.3788 39.2155 30.3788Z" fill="white"/>
<path fill-rule="evenodd" clip-rule="evenodd" d="M36.7059 32.4764H32.5195C32.3174 32.4764 32.1533 32.308 32.1533 32.1003C32.1536 31.8926 32.3172 31.7241 32.5192 31.7241L36.7059 31.7241C36.908 31.7241 37.0717 31.8926 37.0717 32.1003C37.0718 32.308 36.9078 32.4765 36.7059 32.4764Z" fill="white"/>
</g>
<defs>
<clipPath id="clip0_595_465">
<rect width="32" height="30" fill="white" transform="translate(13.3525 14.3523)"/>
</clipPath>
</defs>
</svg>
