<svg width="20" height="20" viewBox="0 0 20 20" fill="none" xmlns="http://www.w3.org/2000/svg">
<g clip-path="url(#clip0_552_1009)">
<path d="M17.2603 0.220703H2.73942C2.0819 0.220703 1.45132 0.48296 0.986385 0.94978C0.521451 1.4166 0.260254 2.04974 0.260254 2.70993V17.2897C0.260254 17.9499 0.521451 18.583 0.986385 19.0498C1.45132 19.5166 2.0819 19.7789 2.73942 19.7789H9.85242V11.6411H8.23144V8.38598H9.839V6.91494C9.839 5.58356 10.4707 3.50355 13.2505 3.50355L15.7546 3.51364V6.3025H13.9361C13.6404 6.3025 13.2197 6.45034 13.2197 7.08447V8.3862H15.796L15.5003 11.6413H13.0944V19.7789H17.2603C17.5858 19.7789 17.9082 19.7145 18.209 19.5894C18.5098 19.4643 18.7831 19.281 19.0133 19.0498C19.2435 18.8187 19.4261 18.5443 19.5507 18.2423C19.6753 17.9402 19.7394 17.6166 19.7394 17.2897V2.70993C19.7394 2.38304 19.6753 2.05935 19.5507 1.75734C19.4261 1.45534 19.2435 1.18093 19.0133 0.94978C18.7831 0.718634 18.5098 0.535279 18.209 0.410184C17.9082 0.285089 17.5858 0.220703 17.2603 0.220703Z" fill="white"/>
</g>
<defs>
<clipPath id="clip0_552_1009">
<rect width="20" height="20" fill="white"/>
</clipPath>
</defs>
</svg>
