<svg width="20" height="21" viewBox="0 0 20 21" fill="none" xmlns="http://www.w3.org/2000/svg">
<g clip-path="url(#clip0_552_985)">
<path d="M17.6886 9.33314H10.0002V11.6665H17.6886C17.1483 15.6228 13.9161 18.6666 10.0002 18.6666C5.70564 18.6666 2.22275 15.0096 2.22275 10.4997C2.22275 5.98973 5.70564 2.33337 10.0002 2.33337C12.1474 2.33337 14.0917 3.24751 15.5003 4.72587L17.0713 3.07607C15.2613 1.17561 12.7614 0 10.0002 0C4.47736 0 0.000488281 4.7014 0.000488281 10.4997C0.000488281 16.2994 4.47736 21 10.0002 21C15.1473 21 19.3815 16.9167 19.9349 11.6665C19.9748 11.2829 19.9998 10.8944 19.9998 10.4997V9.33314H17.6886Z" fill="white"/>
</g>
<defs>
<clipPath id="clip0_552_985">
<rect width="20" height="21" fill="white"/>
</clipPath>
</defs>
</svg>
