<svg width="21" height="21" viewBox="0 0 21 21" fill="none" xmlns="http://www.w3.org/2000/svg">
<g clip-path="url(#clip0_552_989)">
<path d="M16.2665 21C16.3566 21 20.4332 20.9991 20.344 20.9991C20.7062 20.9991 21.0002 20.7051 21.0002 20.3429C20.694 13.468 22.612 6.21338 15.4545 6.21338C14.0781 6.21338 12.9817 6.68325 12.1916 7.3045C12.1916 6.02613 10.81 6.73313 7.62058 6.54325C7.25833 6.54325 6.96433 6.83725 6.96433 7.1995C7.22858 19.5948 6.37458 20.9991 7.62058 20.9991H11.6981C12.882 20.9991 12.1286 19.3296 12.3543 13.8346C12.3543 11.5649 13.0106 11.1204 14.1446 11.1204C15.3993 11.1204 15.6102 11.9919 15.6102 13.9449C15.8351 19.341 15.087 21 16.2665 21ZM14.1446 9.80788C10.215 9.80788 11.0418 14.1286 11.0418 19.6866H8.27683V7.85575H10.8791V8.9915C10.8791 9.6215 11.839 9.93125 12.1732 9.29775C12.6037 8.4805 13.722 7.52588 15.4545 7.52588C18.5406 7.52588 19.6877 9.04225 19.6877 13.1224V19.6875H16.9227C16.9227 13.4365 17.5842 9.80788 14.1446 9.80788Z" fill="white"/>
<path d="M0.981957 6.544C-0.260543 6.544 0.589957 7.93087 0.325707 20.3436C0.325707 20.7059 0.619707 20.9999 0.981957 20.9999H5.06383C6.30633 20.9999 5.45583 19.613 5.72008 7.20025C5.72008 6.06712 4.07421 6.73562 0.981957 6.544ZM4.40758 19.6874H1.63821V7.8565H4.40758V19.6874Z" fill="white"/>
<path d="M3.02068 0C-0.983325 0 -0.958825 6.06288 3.02068 6.06288C6.99755 6.06288 7.02905 0 3.02068 0ZM3.02068 4.75038C0.773675 4.75038 0.752675 1.3125 3.02068 1.3125C5.29305 1.3125 5.26418 4.75038 3.02068 4.75038Z" fill="white"/>
</g>
<defs>
<clipPath id="clip0_552_989">
<rect width="21" height="21" fill="white"/>
</clipPath>
</defs>
</svg>
