<svg width="22" height="21" viewBox="0 0 22 21" fill="none" xmlns="http://www.w3.org/2000/svg">
<g clip-path="url(#clip0_552_993)">
<path d="M12.5256 12.5518C10.8328 11.9047 9.45935 10.6702 8.68071 9.09623L8.47946 8.68975L9.49577 7.71964C9.6329 7.58874 9.6329 7.37677 9.49577 7.24587L7.98615 5.80488C7.83576 5.66132 7.58701 5.67734 7.45609 5.83724C6.1019 7.49181 6.62458 10.2983 8.7324 12.3104C10.8401 14.3224 13.7804 14.8211 15.5138 13.5285C15.6813 13.4037 15.6979 13.1661 15.5477 13.0227L14.038 11.5817C13.9009 11.4508 13.6787 11.4508 13.5416 11.5817L12.5256 12.5518Z" fill="white"/>
<path d="M2.66343 21C2.49306 21 2.32454 20.9455 2.18741 20.8395C1.97207 20.674 1.8685 20.4103 1.91634 20.1507L2.61525 16.3489C0.858736 14.1935 0.102586 11.5132 0.482759 8.76308C1.09792 4.3108 4.93154 0.661684 9.59735 0.0866638C12.8819 -0.318526 16.1098 0.70975 18.4516 2.90617C20.7939 5.10259 21.9271 8.16115 21.5615 11.2982C21.0318 15.8412 17.1886 19.5786 12.4237 20.1853C10.5131 20.4279 8.5802 20.1719 6.80891 19.4406L2.95044 20.9462C2.85796 20.9824 2.76061 21 2.66343 21ZM9.79155 1.52365C5.79612 2.01584 2.51371 5.14008 1.98667 8.95246C1.64695 11.4113 2.36382 13.8037 4.00536 15.6877C4.1477 15.8516 4.20779 16.0668 4.16918 16.276L3.64802 19.109L6.53616 17.9825C6.73321 17.9061 6.9541 17.911 7.14595 17.9974C8.73596 18.7094 10.4916 18.9696 12.223 18.7498C16.3065 18.23 19.5997 15.0285 20.0539 11.1383C20.3676 8.44617 19.3959 5.82181 17.3883 3.93925C15.3809 2.05622 12.6109 1.17502 9.79155 1.52365Z" fill="white"/>
</g>
<defs>
<clipPath id="clip0_552_993">
<rect width="22" height="21" fill="white"/>
</clipPath>
</defs>
</svg>
