<svg width="17" height="18" viewBox="0 0 17 18" fill="none" xmlns="http://www.w3.org/2000/svg">
<path d="M7.41308 16.9578C7.36468 16.9578 7.3168 16.9465 7.27246 16.9244C7.22812 16.9024 7.18828 16.8702 7.15543 16.8299L0.208455 8.29921C0.162145 8.24234 0.131444 8.17138 0.12011 8.09501C0.108776 8.01863 0.117301 7.94017 0.144641 7.86921C0.171981 7.79825 0.21695 7.73788 0.274045 7.69549C0.331139 7.65309 0.397883 7.63051 0.466107 7.63051H3.81C3.8602 7.63052 3.90982 7.64275 3.95551 7.66638C4.0012 7.69001 4.04189 7.72449 4.07484 7.76749L6.39654 10.7997C6.64746 10.1908 7.13318 9.177 7.98554 7.94164C9.24562 6.11534 11.5894 3.42941 15.5994 1.00475C15.6769 0.957897 15.7671 0.945736 15.8521 0.970671C15.9371 0.995605 16.0108 1.05582 16.0587 1.13943C16.1065 1.22304 16.1249 1.32396 16.1104 1.42227C16.0959 1.52058 16.0494 1.60912 15.9801 1.67043C15.9648 1.68401 14.4187 3.06618 12.6393 5.59788C11.0017 7.92766 8.82477 11.7372 7.75357 16.6553C7.73476 16.7417 7.69099 16.8184 7.62925 16.8733C7.56752 16.9282 7.49138 16.958 7.41297 16.958L7.41308 16.9578Z" fill="#771D40"/>
</svg>
