<svg width="21" height="17" viewBox="0 0 21 17" fill="none" xmlns="http://www.w3.org/2000/svg">
<path d="M20.9219 4.07031C20.9372 4.62873 20.9385 5.26684 20.9385 6V10.2852C20.9385 13.1134 20.9381 14.5276 20.0596 15.4062C19.1809 16.2849 17.7668 16.2852 14.9385 16.2852H6C3.17158 16.2852 1.75759 16.2849 0.87891 15.4062C0.000342245 14.5276 4.05168e-06 13.1135 4.05168e-06 10.2852V6C4.05168e-06 5.26686 -0.000649732 4.62872 0.0146525 4.07031L9.74024 9.47266C10.1932 9.7243 10.7443 9.7242 11.1973 9.47266L20.9219 4.07031ZM14.9385 0C17.7668 2.0661e-10 19.1809 0.000240067 20.0596 0.878906C20.5488 1.36812 20.7652 2.02323 20.8613 2.99609C20.8047 3.00488 20.7484 3.02229 20.6953 3.05176L10.7119 8.59863C10.561 8.68245 10.3775 8.68241 10.2266 8.59863L0.243168 3.05176L0.149418 3.01172C0.12527 3.00414 0.100746 2.9989 0.0761759 2.99512C0.172329 2.0227 0.389835 1.36798 0.87891 0.878906C1.75759 0.000226633 3.17158 0 6 0H14.9385Z" fill="white"/>
</svg>
