<svg width="22" height="22" viewBox="0 0 22 22" fill="none" xmlns="http://www.w3.org/2000/svg">
<g clip-path="url(#clip0_552_1027)">
<path d="M21.0641 16.8536C20.4073 16.2837 16.5553 13.7599 15.9151 13.8757C15.6145 13.9309 15.3846 14.196 14.7691 14.9557C14.4845 15.3296 14.172 15.6798 13.8343 16.003C13.2157 15.8484 12.6169 15.6187 12.0504 15.3188C9.82854 14.1995 8.03358 12.3417 6.95251 10.0425C6.66263 9.45627 6.44067 8.8367 6.29123 8.19662C6.60363 7.84728 6.94208 7.52387 7.30344 7.22938C8.03686 6.59258 8.29386 6.35621 8.34721 6.04364C8.45918 5.37963 6.0177 1.39557 5.46914 0.716011C5.2392 0.434545 5.03029 0.245605 4.76278 0.245605C3.98728 0.245605 0.479492 4.73351 0.479492 5.3151C0.479492 5.36253 0.554637 10.0347 6.25742 16.038C12.0594 21.9387 16.5749 22.0164 16.6207 22.0164C17.1828 22.0164 21.5202 18.3869 21.5202 17.5845C21.5202 17.3077 21.3376 17.0916 21.0641 16.8536Z" fill="white"/>
<path d="M16.2602 10.3535H17.7631C17.7613 8.7044 17.1274 7.12333 16.0003 5.95721C14.8733 4.79109 13.3453 4.13515 11.7515 4.1333V5.68836C12.9469 5.6896 14.093 6.1815 14.9383 7.05612C15.7836 7.93075 16.259 9.11664 16.2602 10.3535Z" fill="white"/>
<path d="M20.0175 10.3535H21.5204C21.5174 7.67366 20.4872 5.10447 18.6558 3.20955C16.8244 1.31462 14.3414 0.248692 11.7515 0.245605V1.80066C13.9429 1.80334 16.0439 2.7053 17.5935 4.30868C19.1432 5.91207 20.0149 8.08596 20.0175 10.3535Z" fill="white"/>
</g>
<defs>
<clipPath id="clip0_552_1027">
<rect width="22" height="22" fill="white"/>
</clipPath>
</defs>
</svg>
