<svg width="16" height="16" viewBox="0 0 16 16" fill="none" xmlns="http://www.w3.org/2000/svg">
<path d="M7.29784 15.9998C7.24944 15.9998 7.20157 15.9885 7.15723 15.9664C7.11289 15.9444 7.07304 15.9122 7.04019 15.8719L0.093221 7.34121C0.0469107 7.28433 0.0162099 7.21337 0.00487599 7.137C-0.00645791 7.06063 0.00206669 6.98216 0.0294066 6.9112C0.0567465 6.84025 0.101716 6.77988 0.15881 6.73748C0.215905 6.69509 0.282649 6.67251 0.350872 6.6725H3.69476C3.74497 6.67251 3.79459 6.68474 3.84028 6.70837C3.88596 6.73201 3.92665 6.76648 3.95961 6.80949L6.28131 9.84167C6.53222 9.2328 7.01795 8.21899 7.87031 6.98363C9.13039 5.15733 11.4742 2.47141 15.4842 0.0467428C15.5617 -0.000110955 15.6519 -0.0122714 15.7369 0.0126629C15.8219 0.0375972 15.8956 0.0978135 15.9434 0.181422C15.9912 0.26503 16.0097 0.365952 15.9952 0.46426C15.9806 0.562568 15.9341 0.651115 15.8649 0.712418C15.8496 0.726001 14.3035 2.10818 12.5241 4.63987C10.8865 6.96965 8.70954 10.7792 7.63834 15.6973C7.61952 15.7837 7.57575 15.8604 7.51402 15.9153C7.45229 15.9702 7.37614 16 7.29774 16L7.29784 15.9998Z" fill="#771D40"/>
</svg>
