<svg width="14" height="12" viewBox="0 0 14 12" fill="none" xmlns="http://www.w3.org/2000/svg">
<path d="M6.28732 11.9849C6.24562 11.9849 6.20438 11.9764 6.16618 11.9599C6.12797 11.9434 6.09364 11.9193 6.06534 11.889L0.0803128 5.49903C0.040415 5.45643 0.0139653 5.40327 0.00420082 5.34607C-0.00556369 5.28886 0.00178052 5.23008 0.0253347 5.17693C0.0488888 5.12378 0.0876312 5.07856 0.13682 5.0468C0.186009 5.01505 0.24351 4.99813 0.302287 4.99813H3.18315C3.22641 4.99814 3.26916 5.0073 3.30852 5.025C3.34788 5.0427 3.38293 5.06853 3.41132 5.10074L5.41154 7.37204C5.62771 6.91595 6.04618 6.15655 6.78051 5.23119C7.86611 3.86317 9.88538 1.85124 13.3401 0.0350133C13.4069 -8.31124e-05 13.4846 -0.00919203 13.5578 0.00948532C13.6311 0.0281627 13.6946 0.0732686 13.7357 0.135896C13.7769 0.198524 13.7928 0.274121 13.7803 0.34776C13.7678 0.421399 13.7278 0.487727 13.6681 0.533646C13.6549 0.543821 12.3229 1.57916 10.7899 3.47556C9.37903 5.22071 7.50354 8.07431 6.58067 11.7583C6.56445 11.823 6.52675 11.8805 6.47356 11.9216C6.42038 11.9627 6.35478 11.985 6.28723 11.985L6.28732 11.9849Z" fill="white"/>
</svg>
